<svg width="335" height="160" viewBox="0 0 335 160" fill="none" xmlns="http://www.w3.org/2000/svg">
<rect width="335" height="160" rx="5" fill="white"/>
<path opacity="0.7" d="M27.017 33.064H24.3807L28.3977 21.4276H31.5682L35.5795 33.064H32.9432L30.0284 24.0867H29.9375L27.017 33.064ZM26.8523 28.4901H33.0795V30.4106H26.8523V28.4901ZM43.9773 24.3367L40.9261 33.064H38.1989L35.1477 24.3367H37.7045L39.517 30.581H39.608L41.4148 24.3367H43.9773ZM48.9119 33.2344C48.0142 33.2344 47.2415 33.0526 46.5938 32.689C45.9498 32.3215 45.4536 31.8026 45.1051 31.1321C44.7566 30.4579 44.5824 29.6606 44.5824 28.7401C44.5824 27.8424 44.7566 27.0545 45.1051 26.3765C45.4536 25.6984 45.9441 25.17 46.5767 24.7912C47.2131 24.4124 47.9593 24.2231 48.8153 24.2231C49.3911 24.2231 49.9271 24.3159 50.4233 24.5015C50.9233 24.6833 51.3589 24.9579 51.7301 25.3253C52.1051 25.6928 52.3968 26.1549 52.6051 26.7117C52.8134 27.2647 52.9176 27.9124 52.9176 28.6549V29.3196H45.5483V27.8196H50.6392C50.6392 27.4712 50.5634 27.1624 50.4119 26.8935C50.2604 26.6246 50.0502 26.4143 49.7812 26.2628C49.5161 26.1075 49.2074 26.0299 48.8551 26.0299C48.4877 26.0299 48.1619 26.1151 47.8778 26.2856C47.5975 26.4522 47.3778 26.6776 47.2188 26.9617C47.0597 27.242 46.9782 27.5545 46.9744 27.8992V29.3253C46.9744 29.7571 47.054 30.1303 47.2131 30.4446C47.3759 30.759 47.6051 31.0015 47.9006 31.1719C48.196 31.3424 48.5464 31.4276 48.9517 31.4276C49.2206 31.4276 49.4669 31.3897 49.6903 31.314C49.9138 31.2382 50.1051 31.1246 50.2642 30.9731C50.4233 30.8215 50.5445 30.6359 50.6278 30.4162L52.8665 30.564C52.7528 31.1018 52.5199 31.5715 52.1676 31.9731C51.8191 32.3708 51.3684 32.6814 50.8153 32.9049C50.2661 33.1246 49.6316 33.2344 48.9119 33.2344ZM54.4972 33.064V24.3367H56.8438V25.8594H56.9347C57.0938 25.3178 57.3608 24.9087 57.7358 24.6321C58.1108 24.3518 58.5426 24.2117 59.0312 24.2117C59.1525 24.2117 59.2831 24.2193 59.4233 24.2344C59.5634 24.2496 59.6866 24.2704 59.7926 24.2969V26.4446C59.679 26.4106 59.5218 26.3803 59.321 26.3537C59.1203 26.3272 58.9366 26.314 58.7699 26.314C58.4138 26.314 58.0956 26.3916 57.8153 26.5469C57.5388 26.6984 57.3191 26.9106 57.1562 27.1833C56.9972 27.456 56.9176 27.7704 56.9176 28.1265V33.064H54.4972ZM63.2827 33.2287C62.7259 33.2287 62.2296 33.1321 61.794 32.939C61.3584 32.742 61.0137 32.4522 60.7599 32.0696C60.5099 31.6833 60.3849 31.2022 60.3849 30.6265C60.3849 30.1416 60.474 29.7344 60.652 29.4049C60.83 29.0753 61.0724 28.8102 61.3793 28.6094C61.6861 28.4087 62.0346 28.2571 62.4247 28.1549C62.8187 28.0526 63.2315 27.9806 63.6634 27.939C64.1709 27.8859 64.58 27.8367 64.8906 27.7912C65.2012 27.742 65.4266 27.67 65.5668 27.5753C65.7069 27.4806 65.777 27.3405 65.777 27.1549V27.1208C65.777 26.7609 65.6634 26.4825 65.4361 26.2856C65.2126 26.0886 64.8944 25.9901 64.4815 25.9901C64.0459 25.9901 63.6993 26.0867 63.4418 26.2799C63.1842 26.4693 63.0137 26.7079 62.9304 26.9958L60.6918 26.814C60.8054 26.2837 61.0289 25.8253 61.3622 25.439C61.6955 25.0488 62.1255 24.7496 62.652 24.5412C63.1823 24.3291 63.7959 24.2231 64.4929 24.2231C64.9777 24.2231 65.4418 24.2799 65.8849 24.3935C66.3319 24.5071 66.7277 24.6833 67.0724 24.9219C67.4209 25.1606 67.6955 25.4674 67.8963 25.8424C68.0971 26.2136 68.1974 26.6587 68.1974 27.1776V33.064H65.902V31.8537H65.8338C65.6937 32.1265 65.5062 32.367 65.2713 32.5753C65.0365 32.7799 64.7543 32.9409 64.4247 33.0583C64.0952 33.1719 63.7145 33.2287 63.2827 33.2287ZM63.9759 31.5583C64.3319 31.5583 64.6463 31.4882 64.919 31.3481C65.1918 31.2041 65.4058 31.0109 65.5611 30.7685C65.7164 30.5261 65.794 30.2515 65.794 29.9446V29.0185C65.7183 29.0678 65.6141 29.1132 65.4815 29.1549C65.3527 29.1928 65.2069 29.2287 65.044 29.2628C64.8812 29.2931 64.7183 29.3215 64.5554 29.3481C64.3925 29.3708 64.2448 29.3916 64.1122 29.4106C63.8281 29.4522 63.58 29.5185 63.3679 29.6094C63.1558 29.7003 62.991 29.8234 62.8736 29.9787C62.7562 30.1303 62.6974 30.3196 62.6974 30.5469C62.6974 30.8765 62.8168 31.1284 63.0554 31.3026C63.2978 31.4731 63.6046 31.5583 63.9759 31.5583ZM74.0071 36.5185C73.223 36.5185 72.5507 36.4106 71.9901 36.1946C71.4332 35.9825 70.9901 35.6928 70.6605 35.3253C70.331 34.9579 70.117 34.545 70.0185 34.0867L72.2571 33.7856C72.3253 33.9598 72.4332 34.1227 72.581 34.2742C72.7287 34.4257 72.9238 34.5469 73.1662 34.6378C73.4124 34.7325 73.7116 34.7799 74.0639 34.7799C74.5904 34.7799 75.0241 34.6511 75.3651 34.3935C75.7098 34.1397 75.8821 33.7136 75.8821 33.1151V31.5185H75.7798C75.6738 31.7609 75.5147 31.9901 75.3026 32.206C75.0904 32.4219 74.8177 32.5981 74.4844 32.7344C74.151 32.8708 73.7533 32.939 73.2912 32.939C72.6359 32.939 72.0393 32.7874 71.5014 32.4844C70.9673 32.1776 70.5412 31.7098 70.223 31.081C69.9086 30.4484 69.7514 29.6492 69.7514 28.6833C69.7514 27.6946 69.9124 26.8689 70.2344 26.206C70.5563 25.5431 70.9844 25.0469 71.5185 24.7174C72.0563 24.3878 72.6454 24.2231 73.2855 24.2231C73.7741 24.2231 74.1832 24.3064 74.5128 24.4731C74.8423 24.6359 75.1075 24.8405 75.3082 25.0867C75.5128 25.3291 75.67 25.5678 75.7798 25.8026H75.8707V24.3367H78.2741V33.1492C78.2741 33.8916 78.0923 34.5128 77.7287 35.0128C77.3651 35.5128 76.8613 35.8878 76.2173 36.1378C75.5772 36.3916 74.8404 36.5185 74.0071 36.5185ZM74.0582 31.1208C74.4484 31.1208 74.7779 31.0242 75.0469 30.831C75.3196 30.634 75.5279 30.3537 75.6719 29.9901C75.8196 29.6227 75.8935 29.1833 75.8935 28.6719C75.8935 28.1606 75.8215 27.7174 75.6776 27.3424C75.5336 26.9636 75.3253 26.67 75.0526 26.4617C74.7798 26.2534 74.4484 26.1492 74.0582 26.1492C73.6605 26.1492 73.3253 26.2571 73.0526 26.4731C72.7798 26.6852 72.5734 26.9806 72.4332 27.3594C72.2931 27.7382 72.223 28.1757 72.223 28.6719C72.223 29.1757 72.2931 29.6113 72.4332 29.9787C72.5772 30.3424 72.7836 30.6246 73.0526 30.8253C73.3253 31.0223 73.6605 31.1208 74.0582 31.1208ZM84.1776 33.2344C83.2798 33.2344 82.5071 33.0526 81.8594 32.689C81.2154 32.3215 80.7192 31.8026 80.3707 31.1321C80.0223 30.4579 79.848 29.6606 79.848 28.7401C79.848 27.8424 80.0223 27.0545 80.3707 26.3765C80.7192 25.6984 81.2098 25.17 81.8423 24.7912C82.4787 24.4124 83.2249 24.2231 84.081 24.2231C84.6567 24.2231 85.1927 24.3159 85.6889 24.5015C86.1889 24.6833 86.6245 24.9579 86.9957 25.3253C87.3707 25.6928 87.6624 26.1549 87.8707 26.7117C88.0791 27.2647 88.1832 27.9124 88.1832 28.6549V29.3196H80.8139V27.8196H85.9048C85.9048 27.4712 85.8291 27.1624 85.6776 26.8935C85.526 26.6246 85.3158 26.4143 85.0469 26.2628C84.7817 26.1075 84.473 26.0299 84.1207 26.0299C83.7533 26.0299 83.4276 26.1151 83.1435 26.2856C82.8632 26.4522 82.6435 26.6776 82.4844 26.9617C82.3253 27.242 82.2438 27.5545 82.2401 27.8992V29.3253C82.2401 29.7571 82.3196 30.1303 82.4787 30.4446C82.6416 30.759 82.8707 31.0015 83.1662 31.1719C83.4616 31.3424 83.812 31.4276 84.2173 31.4276C84.4863 31.4276 84.7325 31.3897 84.956 31.314C85.1795 31.2382 85.3707 31.1246 85.5298 30.9731C85.6889 30.8215 85.8101 30.6359 85.8935 30.4162L88.1321 30.564C88.0185 31.1018 87.7855 31.5715 87.4332 31.9731C87.0848 32.3708 86.634 32.6814 86.081 32.9049C85.5317 33.1246 84.8973 33.2344 84.1776 33.2344ZM103.778 25.5015H101.29C101.244 25.1795 101.152 24.8935 101.011 24.6435C100.871 24.3897 100.691 24.1738 100.472 23.9958C100.252 23.8178 99.9981 23.6814 99.7102 23.5867C99.4261 23.492 99.1174 23.4446 98.7841 23.4446C98.1818 23.4446 97.6572 23.5943 97.2102 23.8935C96.7633 24.189 96.4167 24.6208 96.1705 25.189C95.9242 25.7534 95.8011 26.439 95.8011 27.2458C95.8011 28.0753 95.9242 28.7723 96.1705 29.3367C96.4205 29.9011 96.7689 30.3272 97.2159 30.6151C97.6629 30.903 98.1799 31.0469 98.767 31.0469C99.0966 31.0469 99.4015 31.0034 99.6818 30.9162C99.9659 30.8291 100.218 30.7022 100.438 30.5356C100.657 30.3651 100.839 30.1587 100.983 29.9162C101.131 29.6738 101.233 29.3973 101.29 29.0867L103.778 29.0981C103.714 29.6321 103.553 30.1473 103.295 30.6435C103.042 31.1359 102.699 31.5772 102.267 31.9674C101.839 32.3537 101.328 32.6606 100.733 32.8878C100.142 33.1113 99.4735 33.2231 98.7273 33.2231C97.6894 33.2231 96.7614 32.9882 95.9432 32.5185C95.1288 32.0488 94.4848 31.3689 94.0114 30.4787C93.5417 29.5886 93.3068 28.5109 93.3068 27.2458C93.3068 25.9768 93.5455 24.8973 94.0227 24.0071C94.5 23.117 95.1477 22.439 95.9659 21.9731C96.7841 21.5034 97.7045 21.2685 98.7273 21.2685C99.4015 21.2685 100.027 21.3632 100.602 21.5526C101.182 21.742 101.695 22.0185 102.142 22.3821C102.589 22.742 102.953 23.1833 103.233 23.706C103.517 24.2287 103.699 24.8272 103.778 25.5015ZM109.474 33.2344C108.577 33.2344 107.804 33.0526 107.156 32.689C106.512 32.3215 106.016 31.8026 105.668 31.1321C105.319 30.4579 105.145 29.6606 105.145 28.7401C105.145 27.8424 105.319 27.0545 105.668 26.3765C106.016 25.6984 106.507 25.17 107.139 24.7912C107.776 24.4124 108.522 24.2231 109.378 24.2231C109.954 24.2231 110.49 24.3159 110.986 24.5015C111.486 24.6833 111.921 24.9579 112.293 25.3253C112.668 25.6928 112.959 26.1549 113.168 26.7117C113.376 27.2647 113.48 27.9124 113.48 28.6549V29.3196H106.111V27.8196H111.202C111.202 27.4712 111.126 27.1624 110.974 26.8935C110.823 26.6246 110.613 26.4143 110.344 26.2628C110.079 26.1075 109.77 26.0299 109.418 26.0299C109.05 26.0299 108.724 26.1151 108.44 26.2856C108.16 26.4522 107.94 26.6776 107.781 26.9617C107.622 27.242 107.541 27.5545 107.537 27.8992V29.3253C107.537 29.7571 107.616 30.1303 107.776 30.4446C107.938 30.759 108.168 31.0015 108.463 31.1719C108.759 31.3424 109.109 31.4276 109.514 31.4276C109.783 31.4276 110.029 31.3897 110.253 31.314C110.476 31.2382 110.668 31.1246 110.827 30.9731C110.986 30.8215 111.107 30.6359 111.19 30.4162L113.429 30.564C113.315 31.1018 113.082 31.5715 112.73 31.9731C112.382 32.3708 111.931 32.6814 111.378 32.9049C110.829 33.1246 110.194 33.2344 109.474 33.2344ZM115.06 33.064V24.3367H117.406V25.8594H117.497C117.656 25.3178 117.923 24.9087 118.298 24.6321C118.673 24.3518 119.105 24.2117 119.594 24.2117C119.715 24.2117 119.846 24.2193 119.986 24.2344C120.126 24.2496 120.249 24.2704 120.355 24.2969V26.4446C120.241 26.4106 120.084 26.3803 119.884 26.3537C119.683 26.3272 119.499 26.314 119.332 26.314C118.976 26.314 118.658 26.3916 118.378 26.5469C118.101 26.6984 117.882 26.9106 117.719 27.1833C117.56 27.456 117.48 27.7704 117.48 28.1265V33.064H115.06ZM126.686 24.3367V26.1549H121.43V24.3367H126.686ZM122.624 22.2458H125.044V30.3821C125.044 30.6056 125.078 30.7799 125.146 30.9049C125.214 31.0261 125.309 31.1113 125.43 31.1606C125.555 31.2098 125.699 31.2344 125.862 31.2344C125.976 31.2344 126.089 31.2249 126.203 31.206C126.317 31.1833 126.404 31.1662 126.464 31.1549L126.845 32.956C126.724 32.9939 126.554 33.0374 126.334 33.0867C126.114 33.1397 125.847 33.1719 125.533 33.1833C124.949 33.206 124.438 33.1284 123.999 32.9503C123.563 32.7723 123.224 32.4958 122.982 32.1208C122.739 31.7458 122.62 31.2723 122.624 30.7003V22.2458ZM128.263 33.064V24.3367H130.683V33.064H128.263ZM129.479 23.2117C129.119 23.2117 128.81 23.0924 128.553 22.8537C128.299 22.6113 128.172 22.3215 128.172 21.9844C128.172 21.6511 128.299 21.3651 128.553 21.1265C128.81 20.884 129.119 20.7628 129.479 20.7628C129.839 20.7628 130.145 20.884 130.399 21.1265C130.657 21.3651 130.786 21.6511 130.786 21.9844C130.786 22.3215 130.657 22.6113 130.399 22.8537C130.145 23.0924 129.839 23.2117 129.479 23.2117ZM137.315 24.3367V26.1549H131.929V24.3367H137.315ZM133.162 33.064V23.706C133.162 23.0734 133.285 22.5488 133.531 22.1321C133.781 21.7155 134.122 21.403 134.554 21.1946C134.986 20.9863 135.476 20.8821 136.026 20.8821C136.397 20.8821 136.736 20.9106 137.043 20.9674C137.353 21.0242 137.584 21.0753 137.736 21.1208L137.304 22.939C137.209 22.9087 137.092 22.8803 136.952 22.8537C136.815 22.8272 136.675 22.814 136.531 22.814C136.175 22.814 135.927 22.8973 135.787 23.064C135.647 23.2268 135.577 23.456 135.577 23.7515V33.064H133.162ZM138.794 33.064V24.3367H141.214V33.064H138.794ZM140.01 23.2117C139.65 23.2117 139.341 23.0924 139.084 22.8537C138.83 22.6113 138.703 22.3215 138.703 21.9844C138.703 21.6511 138.83 21.3651 139.084 21.1265C139.341 20.884 139.65 20.7628 140.01 20.7628C140.37 20.7628 140.677 20.884 140.93 21.1265C141.188 21.3651 141.317 21.6511 141.317 21.9844C141.317 22.3215 141.188 22.6113 140.93 22.8537C140.677 23.0924 140.37 23.2117 140.01 23.2117ZM147.097 33.2344C146.203 33.2344 145.434 33.045 144.79 32.6662C144.15 32.2837 143.657 31.7534 143.312 31.0753C142.972 30.3973 142.801 29.617 142.801 28.7344C142.801 27.8405 142.973 27.0564 143.318 26.3821C143.667 25.7041 144.161 25.1757 144.801 24.7969C145.441 24.4143 146.203 24.2231 147.085 24.2231C147.847 24.2231 148.513 24.3613 149.085 24.6378C149.657 24.9143 150.11 25.3026 150.443 25.8026C150.777 26.3026 150.96 26.8897 150.994 27.564H148.71C148.646 27.1284 148.475 26.778 148.199 26.5128C147.926 26.2439 147.568 26.1094 147.125 26.1094C146.75 26.1094 146.422 26.2117 146.142 26.4162C145.866 26.617 145.65 26.9106 145.494 27.2969C145.339 27.6833 145.261 28.1511 145.261 28.7003C145.261 29.2571 145.337 29.7306 145.489 30.1208C145.644 30.5109 145.862 30.8083 146.142 31.0128C146.422 31.2174 146.75 31.3196 147.125 31.3196C147.402 31.3196 147.65 31.2628 147.869 31.1492C148.093 31.0356 148.277 30.8708 148.42 30.6549C148.568 30.4352 148.665 30.1719 148.71 29.8651H150.994C150.956 30.5318 150.775 31.1189 150.449 31.6265C150.127 32.1303 149.682 32.5242 149.114 32.8083C148.545 33.0924 147.873 33.2344 147.097 33.2344ZM155.033 33.2287C154.476 33.2287 153.98 33.1321 153.544 32.939C153.108 32.742 152.764 32.4522 152.51 32.0696C152.26 31.6833 152.135 31.2022 152.135 30.6265C152.135 30.1416 152.224 29.7344 152.402 29.4049C152.58 29.0753 152.822 28.8102 153.129 28.6094C153.436 28.4087 153.785 28.2571 154.175 28.1549C154.569 28.0526 154.982 27.9806 155.413 27.939C155.921 27.8859 156.33 27.8367 156.641 27.7912C156.951 27.742 157.177 27.67 157.317 27.5753C157.457 27.4806 157.527 27.3405 157.527 27.1549V27.1208C157.527 26.7609 157.413 26.4825 157.186 26.2856C156.963 26.0886 156.644 25.9901 156.232 25.9901C155.796 25.9901 155.449 26.0867 155.192 26.2799C154.934 26.4693 154.764 26.7079 154.68 26.9958L152.442 26.814C152.555 26.2837 152.779 25.8253 153.112 25.439C153.446 25.0488 153.875 24.7496 154.402 24.5412C154.932 24.3291 155.546 24.2231 156.243 24.2231C156.728 24.2231 157.192 24.2799 157.635 24.3935C158.082 24.5071 158.478 24.6833 158.822 24.9219C159.171 25.1606 159.446 25.4674 159.646 25.8424C159.847 26.2136 159.947 26.6587 159.947 27.1776V33.064H157.652V31.8537H157.584C157.444 32.1265 157.256 32.367 157.021 32.5753C156.786 32.7799 156.504 32.9409 156.175 33.0583C155.845 33.1719 155.464 33.2287 155.033 33.2287ZM155.726 31.5583C156.082 31.5583 156.396 31.4882 156.669 31.3481C156.942 31.2041 157.156 31.0109 157.311 30.7685C157.466 30.5261 157.544 30.2515 157.544 29.9446V29.0185C157.468 29.0678 157.364 29.1132 157.232 29.1549C157.103 29.1928 156.957 29.2287 156.794 29.2628C156.631 29.2931 156.468 29.3215 156.305 29.3481C156.143 29.3708 155.995 29.3916 155.862 29.4106C155.578 29.4522 155.33 29.5185 155.118 29.6094C154.906 29.7003 154.741 29.8234 154.624 29.9787C154.506 30.1303 154.447 30.3196 154.447 30.5469C154.447 30.8765 154.567 31.1284 154.805 31.3026C155.048 31.4731 155.355 31.5583 155.726 31.5583ZM166.467 24.3367V26.1549H161.212V24.3367H166.467ZM162.405 22.2458H164.825V30.3821C164.825 30.6056 164.859 30.7799 164.928 30.9049C164.996 31.0261 165.09 31.1113 165.212 31.1606C165.337 31.2098 165.481 31.2344 165.643 31.2344C165.757 31.2344 165.871 31.2249 165.984 31.206C166.098 31.1833 166.185 31.1662 166.246 31.1549L166.626 32.956C166.505 32.9939 166.335 33.0374 166.115 33.0867C165.895 33.1397 165.628 33.1719 165.314 33.1833C164.731 33.206 164.219 33.1284 163.78 32.9503C163.344 32.7723 163.005 32.4958 162.763 32.1208C162.52 31.7458 162.401 31.2723 162.405 30.7003V22.2458ZM168.044 33.064V24.3367H170.464V33.064H168.044ZM169.26 23.2117C168.9 23.2117 168.591 23.0924 168.334 22.8537C168.08 22.6113 167.953 22.3215 167.953 21.9844C167.953 21.6511 168.08 21.3651 168.334 21.1265C168.591 20.884 168.9 20.7628 169.26 20.7628C169.62 20.7628 169.927 20.884 170.18 21.1265C170.438 21.3651 170.567 21.6511 170.567 21.9844C170.567 22.3215 170.438 22.6113 170.18 22.8537C169.927 23.0924 169.62 23.2117 169.26 23.2117ZM176.347 33.2344C175.464 33.2344 174.701 33.0469 174.057 32.6719C173.417 32.2931 172.922 31.7666 172.574 31.0924C172.225 30.4143 172.051 29.6284 172.051 28.7344C172.051 27.8329 172.225 27.045 172.574 26.3708C172.922 25.6928 173.417 25.1662 174.057 24.7912C174.701 24.4124 175.464 24.2231 176.347 24.2231C177.229 24.2231 177.991 24.4124 178.631 24.7912C179.275 25.1662 179.771 25.6928 180.119 26.3708C180.468 27.045 180.642 27.8329 180.642 28.7344C180.642 29.6284 180.468 30.4143 180.119 31.0924C179.771 31.7666 179.275 32.2931 178.631 32.6719C177.991 33.0469 177.229 33.2344 176.347 33.2344ZM176.358 31.3594C176.759 31.3594 177.095 31.2458 177.364 31.0185C177.633 30.7874 177.835 30.4731 177.972 30.0753C178.112 29.6776 178.182 29.2249 178.182 28.7174C178.182 28.2098 178.112 27.7571 177.972 27.3594C177.835 26.9617 177.633 26.6473 177.364 26.4162C177.095 26.1852 176.759 26.0696 176.358 26.0696C175.953 26.0696 175.612 26.1852 175.335 26.4162C175.063 26.6473 174.856 26.9617 174.716 27.3594C174.58 27.7571 174.511 28.2098 174.511 28.7174C174.511 29.2249 174.58 29.6776 174.716 30.0753C174.856 30.4731 175.063 30.7874 175.335 31.0185C175.612 31.2458 175.953 31.3594 176.358 31.3594ZM184.636 28.0185V33.064H182.216V24.3367H184.523V25.8765H184.625C184.818 25.3689 185.142 24.9674 185.597 24.6719C186.051 24.3727 186.602 24.2231 187.25 24.2231C187.856 24.2231 188.384 24.3556 188.835 24.6208C189.286 24.8859 189.636 25.2647 189.886 25.7571C190.136 26.2458 190.261 26.8291 190.261 27.5071V33.064H187.841V27.939C187.845 27.4049 187.708 26.9882 187.432 26.689C187.155 26.3859 186.775 26.2344 186.29 26.2344C185.964 26.2344 185.676 26.3045 185.426 26.4446C185.18 26.5848 184.987 26.7893 184.847 27.0583C184.71 27.3234 184.64 27.6435 184.636 28.0185ZM202.23 24.7742C202.185 24.3159 201.99 23.9598 201.645 23.706C201.3 23.4522 200.832 23.3253 200.241 23.3253C199.84 23.3253 199.501 23.3821 199.224 23.4958C198.948 23.6056 198.736 23.759 198.588 23.956C198.444 24.153 198.372 24.3765 198.372 24.6265C198.365 24.8348 198.408 25.0166 198.503 25.1719C198.601 25.3272 198.736 25.4617 198.906 25.5753C199.077 25.6852 199.274 25.7818 199.497 25.8651C199.721 25.9446 199.959 26.0128 200.213 26.0696L201.259 26.3196C201.766 26.4333 202.232 26.5848 202.656 26.7742C203.08 26.9636 203.448 27.1965 203.759 27.4731C204.069 27.7496 204.31 28.0753 204.48 28.4503C204.654 28.8253 204.743 29.2553 204.747 29.7401C204.743 30.4522 204.562 31.0696 204.202 31.5924C203.846 32.1113 203.33 32.5147 202.656 32.8026C201.986 33.0867 201.177 33.2287 200.23 33.2287C199.291 33.2287 198.473 33.0848 197.776 32.7969C197.082 32.509 196.541 32.0829 196.151 31.5185C195.764 30.9503 195.562 30.2477 195.543 29.4106H197.923C197.95 29.8007 198.062 30.1265 198.259 30.3878C198.459 30.6454 198.726 30.8405 199.06 30.9731C199.397 31.1018 199.777 31.1662 200.202 31.1662C200.618 31.1662 200.98 31.1056 201.287 30.9844C201.598 30.8632 201.838 30.6946 202.009 30.4787C202.179 30.2628 202.264 30.0147 202.264 29.7344C202.264 29.4731 202.187 29.2534 202.031 29.0753C201.88 28.8973 201.656 28.7458 201.361 28.6208C201.069 28.4958 200.711 28.3821 200.287 28.2799L199.02 27.9617C198.039 27.7231 197.264 27.3499 196.696 26.8424C196.128 26.3348 195.846 25.6511 195.849 24.7912C195.846 24.0867 196.033 23.4712 196.412 22.9446C196.795 22.4181 197.319 22.0071 197.986 21.7117C198.652 21.4162 199.41 21.2685 200.259 21.2685C201.122 21.2685 201.876 21.4162 202.52 21.7117C203.168 22.0071 203.671 22.4181 204.031 22.9446C204.391 23.4712 204.577 24.081 204.588 24.7742H202.23ZM210.3 33.2344C209.406 33.2344 208.637 33.045 207.993 32.6662C207.353 32.2837 206.86 31.7534 206.516 31.0753C206.175 30.3973 206.004 29.617 206.004 28.7344C206.004 27.8405 206.177 27.0564 206.521 26.3821C206.87 25.7041 207.364 25.1757 208.004 24.7969C208.644 24.4143 209.406 24.2231 210.288 24.2231C211.05 24.2231 211.716 24.3613 212.288 24.6378C212.86 24.9143 213.313 25.3026 213.646 25.8026C213.98 26.3026 214.163 26.8897 214.197 27.564H211.913C211.849 27.1284 211.679 26.778 211.402 26.5128C211.129 26.2439 210.771 26.1094 210.328 26.1094C209.953 26.1094 209.625 26.2117 209.345 26.4162C209.069 26.617 208.853 26.9106 208.697 27.2969C208.542 27.6833 208.464 28.1511 208.464 28.7003C208.464 29.2571 208.54 29.7306 208.692 30.1208C208.847 30.5109 209.065 30.8083 209.345 31.0128C209.625 31.2174 209.953 31.3196 210.328 31.3196C210.605 31.3196 210.853 31.2628 211.072 31.1492C211.296 31.0356 211.48 30.8708 211.624 30.6549C211.771 30.4352 211.868 30.1719 211.913 29.8651H214.197C214.16 30.5318 213.978 31.1189 213.652 31.6265C213.33 32.1303 212.885 32.5242 212.317 32.8083C211.749 33.0924 211.076 33.2344 210.3 33.2344ZM219.69 33.2344C218.808 33.2344 218.045 33.0469 217.401 32.6719C216.76 32.2931 216.266 31.7666 215.918 31.0924C215.569 30.4143 215.395 29.6284 215.395 28.7344C215.395 27.8329 215.569 27.045 215.918 26.3708C216.266 25.6928 216.76 25.1662 217.401 24.7912C218.045 24.4124 218.808 24.2231 219.69 24.2231C220.573 24.2231 221.334 24.4124 221.974 24.7912C222.618 25.1662 223.115 25.6928 223.463 26.3708C223.812 27.045 223.986 27.8329 223.986 28.7344C223.986 29.6284 223.812 30.4143 223.463 31.0924C223.115 31.7666 222.618 32.2931 221.974 32.6719C221.334 33.0469 220.573 33.2344 219.69 33.2344ZM219.702 31.3594C220.103 31.3594 220.438 31.2458 220.707 31.0185C220.976 30.7874 221.179 30.4731 221.315 30.0753C221.455 29.6776 221.526 29.2249 221.526 28.7174C221.526 28.2098 221.455 27.7571 221.315 27.3594C221.179 26.9617 220.976 26.6473 220.707 26.4162C220.438 26.1852 220.103 26.0696 219.702 26.0696C219.296 26.0696 218.955 26.1852 218.679 26.4162C218.406 26.6473 218.2 26.9617 218.06 27.3594C217.923 27.7571 217.855 28.2098 217.855 28.7174C217.855 29.2249 217.923 29.6776 218.06 30.0753C218.2 30.4731 218.406 30.7874 218.679 31.0185C218.955 31.2458 219.296 31.3594 219.702 31.3594ZM225.56 33.064V24.3367H227.906V25.8594H227.997C228.156 25.3178 228.423 24.9087 228.798 24.6321C229.173 24.3518 229.605 24.2117 230.094 24.2117C230.215 24.2117 230.346 24.2193 230.486 24.2344C230.626 24.2496 230.749 24.2704 230.855 24.2969V26.4446C230.741 26.4106 230.584 26.3803 230.384 26.3537C230.183 26.3272 229.999 26.314 229.832 26.314C229.476 26.314 229.158 26.3916 228.878 26.5469C228.601 26.6984 228.382 26.9106 228.219 27.1833C228.06 27.456 227.98 27.7704 227.98 28.1265V33.064H225.56ZM235.678 33.2344C234.78 33.2344 234.007 33.0526 233.359 32.689C232.715 32.3215 232.219 31.8026 231.871 31.1321C231.522 30.4579 231.348 29.6606 231.348 28.7401C231.348 27.8424 231.522 27.0545 231.871 26.3765C232.219 25.6984 232.71 25.17 233.342 24.7912C233.979 24.4124 234.725 24.2231 235.581 24.2231C236.157 24.2231 236.693 24.3159 237.189 24.5015C237.689 24.6833 238.125 24.9579 238.496 25.3253C238.871 25.6928 239.162 26.1549 239.371 26.7117C239.579 27.2647 239.683 27.9124 239.683 28.6549V29.3196H232.314V27.8196H237.405C237.405 27.4712 237.329 27.1624 237.178 26.8935C237.026 26.6246 236.816 26.4143 236.547 26.2628C236.282 26.1075 235.973 26.0299 235.621 26.0299C235.253 26.0299 234.928 26.1151 234.643 26.2856C234.363 26.4522 234.143 26.6776 233.984 26.9617C233.825 27.242 233.744 27.5545 233.74 27.8992V29.3253C233.74 29.7571 233.82 30.1303 233.979 30.4446C234.142 30.759 234.371 31.0015 234.666 31.1719C234.962 31.3424 235.312 31.4276 235.717 31.4276C235.986 31.4276 236.232 31.3897 236.456 31.314C236.679 31.2382 236.871 31.1246 237.03 30.9731C237.189 30.8215 237.31 30.6359 237.393 30.4162L239.632 30.564C239.518 31.1018 239.286 31.5715 238.933 31.9731C238.585 32.3708 238.134 32.6814 237.581 32.9049C237.032 33.1246 236.397 33.2344 235.678 33.2344Z" fill="#202224"/>
<path d="M31.9261 86.3026C30.6136 86.3026 29.446 86.0895 28.4233 85.6634C27.4063 85.2316 26.608 84.6435 26.0284 83.8992C25.4489 83.1549 25.1591 82.3111 25.1591 81.3679C25.1591 80.6407 25.3239 79.9731 25.6534 79.3651C25.9886 78.7515 26.4432 78.2429 27.017 77.8395C27.5909 77.4304 28.233 77.1691 28.9432 77.0554V76.9361C28.0114 76.7486 27.2557 76.2969 26.6761 75.581C26.0966 74.8594 25.8068 74.0214 25.8068 73.0668C25.8068 72.1634 26.071 71.3594 26.5994 70.6549C27.1278 69.9446 27.8523 69.3878 28.7727 68.9844C29.6989 68.5753 30.75 68.3708 31.9261 68.3708C33.1023 68.3708 34.1506 68.5753 35.071 68.9844C35.9972 69.3935 36.7244 69.9532 37.2528 70.6634C37.7813 71.3679 38.0483 72.1691 38.054 73.0668C38.0483 74.027 37.7528 74.8651 37.1676 75.581C36.5824 76.2969 35.8324 76.7486 34.9176 76.9361V77.0554C35.6165 77.1691 36.25 77.4304 36.8182 77.8395C37.392 78.2429 37.8466 78.7515 38.1818 79.3651C38.5227 79.9731 38.696 80.6407 38.7017 81.3679C38.696 82.3111 38.4034 83.1549 37.8239 83.8992C37.2443 84.6435 36.4432 85.2316 35.4205 85.6634C34.4034 86.0895 33.2386 86.3026 31.9261 86.3026ZM31.9261 83.5924C32.5114 83.5924 33.0227 83.4873 33.4602 83.277C33.8977 83.0611 34.2386 82.7657 34.483 82.3907C34.733 82.01 34.858 81.5725 34.858 81.0782C34.858 80.5725 34.7301 80.1265 34.4744 79.7401C34.2188 79.3481 33.8722 79.0412 33.4347 78.8196C32.9972 78.5924 32.4943 78.4787 31.9261 78.4787C31.3636 78.4787 30.8608 78.5924 30.4176 78.8196C29.9744 79.0412 29.625 79.3481 29.3693 79.7401C29.1193 80.1265 28.9943 80.5725 28.9943 81.0782C28.9943 81.5725 29.1165 82.01 29.3608 82.3907C29.6051 82.7657 29.9489 83.0611 30.392 83.277C30.8352 83.4873 31.3466 83.5924 31.9261 83.5924ZM31.9261 75.7941C32.4148 75.7941 32.8494 75.6946 33.2301 75.4958C33.6108 75.2969 33.9091 75.0214 34.125 74.6691C34.3409 74.3168 34.4489 73.9106 34.4489 73.4503C34.4489 72.9958 34.3409 72.5981 34.125 72.2571C33.9091 71.9106 33.6136 71.6407 33.2386 71.4475C32.8636 71.2486 32.4261 71.1492 31.9261 71.1492C31.4318 71.1492 30.9943 71.2486 30.6136 71.4475C30.233 71.6407 29.9347 71.9106 29.7188 72.2571C29.5085 72.5981 29.4034 72.9958 29.4034 73.4503C29.4034 73.9106 29.5114 74.3168 29.7273 74.6691C29.9432 75.0214 30.2415 75.2969 30.6222 75.4958C31.0028 75.6946 31.4375 75.7941 31.9261 75.7941ZM42.0178 82.9958V80.0895L49.3047 68.6094H51.8104V72.6321H50.3274L45.7337 79.902V80.0384H56.0888V82.9958H42.0178ZM50.3956 86.064V82.1094L50.4638 80.8225V68.6094H53.924V86.064H50.3956ZM61.3757 86.2856C60.8132 86.2856 60.3303 86.0867 59.9268 85.689C59.5291 85.2856 59.3303 84.8026 59.3303 84.2401C59.3303 83.6833 59.5291 83.206 59.9268 82.8083C60.3303 82.4106 60.8132 82.2117 61.3757 82.2117C61.9212 82.2117 62.3984 82.4106 62.8075 82.8083C63.2166 83.206 63.4212 83.6833 63.4212 84.2401C63.4212 84.6151 63.3246 84.9589 63.1314 85.2714C62.9439 85.5782 62.6967 85.8253 62.3899 86.0128C62.0831 86.1946 61.745 86.2856 61.3757 86.2856ZM73.3636 86.3026C72.4659 86.2969 71.5994 86.1464 70.7642 85.8509C69.9347 85.5554 69.1903 85.0753 68.5312 84.4106C67.8722 83.7458 67.3494 82.8651 66.9631 81.7685C66.5824 80.6719 66.392 79.3253 66.392 77.7287C66.3977 76.2628 66.5653 74.9532 66.8949 73.7998C67.2301 72.6407 67.7074 71.6577 68.3267 70.8509C68.9517 70.0441 69.6989 69.4304 70.5682 69.01C71.4375 68.5839 72.4119 68.3708 73.4915 68.3708C74.6563 68.3708 75.6847 68.5981 76.5767 69.0526C77.4688 69.5015 78.1847 70.1123 78.7244 70.885C79.2699 71.6577 79.5994 72.5242 79.7131 73.4844H76.0739C75.9318 72.8765 75.6335 72.3992 75.179 72.0526C74.7244 71.706 74.1619 71.5327 73.4915 71.5327C72.3551 71.5327 71.4915 72.027 70.9006 73.0157C70.3153 74.0043 70.017 75.3481 70.0057 77.0469H70.125C70.3864 76.5299 70.7386 76.0895 71.1818 75.7259C71.6307 75.3566 72.1392 75.0753 72.7074 74.8821C73.2812 74.6833 73.8864 74.5839 74.5227 74.5839C75.5568 74.5839 76.4773 74.8282 77.2841 75.3168C78.0909 75.7998 78.7273 76.4645 79.1932 77.3111C79.6591 78.1577 79.892 79.1265 79.892 80.2174C79.892 81.3992 79.6165 82.4503 79.0653 83.3708C78.5199 84.2912 77.7557 85.0128 76.7727 85.5356C75.7955 86.0526 74.6591 86.3083 73.3636 86.3026ZM73.3466 83.4049C73.9148 83.4049 74.4233 83.2685 74.8722 82.9958C75.321 82.7231 75.6733 82.3537 75.929 81.8878C76.1847 81.4219 76.3125 80.8992 76.3125 80.3196C76.3125 79.7401 76.1847 79.2202 75.929 78.76C75.679 78.2998 75.3324 77.9333 74.8892 77.6606C74.446 77.3878 73.9403 77.2515 73.3722 77.2515C72.946 77.2515 72.5511 77.331 72.1875 77.4901C71.8295 77.6492 71.5142 77.8708 71.2415 78.1549C70.9744 78.439 70.7642 78.7685 70.6108 79.1435C70.4574 79.5128 70.3807 79.9077 70.3807 80.3282C70.3807 80.8907 70.5085 81.4049 70.7642 81.8708C71.0256 82.3367 71.3778 82.7089 71.821 82.9873C72.2699 83.2657 72.7784 83.4049 73.3466 83.4049ZM83.5085 86.064V83.4049L89.7216 77.652C90.25 77.1407 90.6932 76.6804 91.0511 76.2714C91.4148 75.8623 91.6903 75.4617 91.8778 75.0696C92.0653 74.6719 92.1591 74.2429 92.1591 73.7827C92.1591 73.2714 92.0426 72.831 91.8097 72.4617C91.5767 72.0867 91.2585 71.7998 90.8551 71.6009C90.4517 71.3964 89.9943 71.2941 89.483 71.2941C88.9489 71.2941 88.483 71.402 88.0852 71.6179C87.6875 71.8339 87.3807 72.1435 87.1648 72.5469C86.9489 72.9503 86.8409 73.4304 86.8409 73.9873H83.3381C83.3381 72.8452 83.5966 71.8537 84.1136 71.0128C84.6307 70.1719 85.3551 69.5214 86.2869 69.0611C87.2188 68.6009 88.2926 68.3708 89.5085 68.3708C90.7585 68.3708 91.8466 68.5924 92.7727 69.0356C93.7045 69.4731 94.429 70.081 94.946 70.8594C95.4631 71.6378 95.7216 72.5299 95.7216 73.5356C95.7216 74.1946 95.5909 74.8452 95.3295 75.4873C95.0739 76.1293 94.6165 76.8424 93.9574 77.6265C93.2983 78.4049 92.3693 79.3395 91.1705 80.4304L88.6222 82.9276V83.0469H95.9517V86.064H83.5085Z" fill="#202224"/>
<path d="M40 124.064L42.29 126.354L37.41 131.234L33.41 127.234L26 134.654L27.41 136.064L33.41 130.064L37.41 134.064L43.71 127.774L46 130.064V124.064H40Z" fill="#00B69B"/>
<path d="M61.0511 134.223C60.2367 134.223 59.517 134.083 58.892 133.803C58.2708 133.522 57.7841 133.136 57.4318 132.644C57.0795 132.151 56.9053 131.59 56.9091 130.962C56.9053 130.469 57.0057 130.017 57.2102 129.604C57.4186 129.187 57.7008 128.84 58.0568 128.564C58.4129 128.284 58.8106 128.106 59.25 128.03V127.962C58.6705 127.822 58.2064 127.511 57.858 127.03C57.5095 126.549 57.3371 125.996 57.3409 125.371C57.3371 124.776 57.4943 124.246 57.8125 123.78C58.1345 123.31 58.5758 122.941 59.1364 122.672C59.697 122.403 60.3352 122.269 61.0511 122.269C61.7595 122.269 62.392 122.405 62.9489 122.678C63.5095 122.947 63.9508 123.316 64.2727 123.786C64.5947 124.251 64.7576 124.78 64.7614 125.371C64.7576 125.996 64.5795 126.549 64.2273 127.03C63.875 127.511 63.4167 127.822 62.8523 127.962V128.03C63.2879 128.106 63.6799 128.284 64.0284 128.564C64.3807 128.84 64.661 129.187 64.8693 129.604C65.0814 130.017 65.1894 130.469 65.1932 130.962C65.1894 131.59 65.0114 132.151 64.6591 132.644C64.3068 133.136 63.8182 133.522 63.1932 133.803C62.572 134.083 61.858 134.223 61.0511 134.223ZM61.0511 132.786C61.5322 132.786 61.9489 132.706 62.3011 132.547C62.6534 132.384 62.9261 132.159 63.1193 131.871C63.3125 131.579 63.411 131.238 63.4148 130.848C63.411 130.443 63.3049 130.085 63.0966 129.774C62.892 129.464 62.6136 129.219 62.2614 129.041C61.9091 128.863 61.5057 128.774 61.0511 128.774C60.5928 128.774 60.1856 128.863 59.8295 129.041C59.4735 129.219 59.1932 129.464 58.9886 129.774C58.7841 130.085 58.6837 130.443 58.6875 130.848C58.6837 131.238 58.7765 131.579 58.9659 131.871C59.1591 132.159 59.4337 132.384 59.7898 132.547C60.1458 132.706 60.5663 132.786 61.0511 132.786ZM61.0511 127.371C61.4375 127.371 61.7803 127.293 62.0795 127.138C62.3788 126.983 62.6136 126.767 62.7841 126.49C62.9583 126.214 63.0473 125.89 63.0511 125.519C63.0473 125.155 62.9602 124.837 62.7898 124.564C62.6231 124.291 62.3902 124.081 62.0909 123.933C61.7917 123.782 61.4451 123.706 61.0511 123.706C60.6496 123.706 60.2973 123.782 59.9943 123.933C59.6951 124.081 59.4621 124.291 59.2955 124.564C59.1288 124.837 59.0473 125.155 59.0511 125.519C59.0473 125.89 59.1307 126.214 59.3011 126.49C59.4716 126.767 59.7064 126.983 60.0057 127.138C60.3087 127.293 60.6572 127.371 61.0511 127.371ZM68.027 134.172C67.7164 134.172 67.4493 134.062 67.2259 133.842C67.0024 133.619 66.8906 133.35 66.8906 133.036C66.8906 132.725 67.0024 132.46 67.2259 132.24C67.4493 132.017 67.7164 131.905 68.027 131.905C68.3376 131.905 68.6046 132.017 68.8281 132.24C69.0516 132.46 69.1634 132.725 69.1634 133.036C69.1634 133.244 69.1103 133.435 69.0043 133.609C68.902 133.78 68.7656 133.916 68.5952 134.019C68.4247 134.121 68.2353 134.172 68.027 134.172ZM75.0696 134.223C74.3575 134.223 73.7173 134.087 73.1491 133.814C72.5848 133.537 72.134 133.159 71.7969 132.678C71.4598 132.197 71.2798 131.647 71.2571 131.03H72.9616C73.0033 131.53 73.2249 131.941 73.6264 132.263C74.0279 132.585 74.509 132.746 75.0696 132.746C75.5166 132.746 75.9124 132.644 76.2571 132.439C76.6056 132.231 76.8783 131.945 77.0753 131.581C77.276 131.217 77.3764 130.803 77.3764 130.337C77.3764 129.863 77.2741 129.441 77.0696 129.07C76.8651 128.698 76.5829 128.407 76.223 128.195C75.867 127.983 75.4579 127.875 74.9957 127.871C74.6435 127.871 74.2893 127.931 73.9332 128.053C73.5772 128.174 73.2893 128.333 73.0696 128.53L71.4616 128.291L72.1151 122.428H78.5128V123.933H73.5753L73.206 127.189H73.2741C73.5014 126.969 73.8026 126.786 74.1776 126.638C74.5563 126.49 74.9616 126.416 75.3935 126.416C76.1018 126.416 76.7325 126.585 77.2855 126.922C77.8423 127.259 78.2798 127.719 78.598 128.303C78.92 128.882 79.0791 129.549 79.0753 130.303C79.0791 131.056 78.9086 131.729 78.5639 132.32C78.223 132.911 77.7495 133.376 77.1435 133.717C76.5412 134.054 75.8499 134.223 75.0696 134.223ZM87.2244 131.882V131.269C87.2244 130.829 87.3153 130.428 87.4972 130.064C87.6828 129.697 87.9517 129.403 88.304 129.183C88.66 128.96 89.09 128.848 89.5938 128.848C90.1089 128.848 90.5407 128.958 90.8892 129.178C91.2377 129.397 91.5009 129.691 91.679 130.058C91.8608 130.426 91.9517 130.829 91.9517 131.269V131.882C91.9517 132.322 91.8608 132.725 91.679 133.092C91.4972 133.456 91.2301 133.75 90.8778 133.973C90.5294 134.193 90.1013 134.303 89.5938 134.303C89.0824 134.303 88.6506 134.193 88.2983 133.973C87.946 133.75 87.679 133.456 87.4972 133.092C87.3153 132.725 87.2244 132.322 87.2244 131.882ZM88.5483 131.269V131.882C88.5483 132.208 88.6259 132.503 88.7812 132.769C88.9366 133.034 89.2074 133.166 89.5938 133.166C89.9763 133.166 90.2434 133.034 90.3949 132.769C90.5464 132.503 90.6222 132.208 90.6222 131.882V131.269C90.6222 130.943 90.5483 130.647 90.4006 130.382C90.2566 130.117 89.9877 129.984 89.5938 129.984C89.215 129.984 88.946 130.117 88.7869 130.382C88.6278 130.647 88.5483 130.943 88.5483 131.269ZM81.3722 125.223V124.609C81.3722 124.17 81.4631 123.767 81.6449 123.399C81.8305 123.032 82.0994 122.738 82.4517 122.519C82.8078 122.299 83.2377 122.189 83.7415 122.189C84.2566 122.189 84.6884 122.299 85.0369 122.519C85.3854 122.738 85.6487 123.032 85.8267 123.399C86.0047 123.767 86.0938 124.17 86.0938 124.609V125.223C86.0938 125.662 86.0028 126.066 85.821 126.433C85.643 126.797 85.3778 127.09 85.0256 127.314C84.6771 127.534 84.2491 127.644 83.7415 127.644C83.2263 127.644 82.7926 127.534 82.4403 127.314C82.0919 127.09 81.8267 126.797 81.6449 126.433C81.4631 126.066 81.3722 125.662 81.3722 125.223ZM82.7017 124.609V125.223C82.7017 125.549 82.7775 125.844 82.929 126.109C83.0843 126.375 83.3551 126.507 83.7415 126.507C84.1203 126.507 84.3854 126.375 84.5369 126.109C84.6922 125.844 84.7699 125.549 84.7699 125.223V124.609C84.7699 124.284 84.696 123.988 84.5483 123.723C84.4006 123.458 84.1316 123.325 83.7415 123.325C83.3627 123.325 83.0938 123.458 82.9347 123.723C82.7794 123.988 82.7017 124.284 82.7017 124.609ZM81.9119 134.064L89.9119 122.428H91.2699L83.2699 134.064H81.9119Z" fill="#00B69B"/>
<path d="M106.277 122.428H108.038V130.081C108.038 130.895 107.847 131.617 107.464 132.246C107.082 132.871 106.544 133.363 105.851 133.723C105.158 134.079 104.345 134.257 103.413 134.257C102.485 134.257 101.675 134.079 100.982 133.723C100.288 133.363 99.7505 132.871 99.3679 132.246C98.9853 131.617 98.794 130.895 98.794 130.081V122.428H100.55V129.939C100.55 130.465 100.665 130.933 100.896 131.342C101.131 131.751 101.463 132.073 101.891 132.308C102.319 132.539 102.826 132.655 103.413 132.655C104.004 132.655 104.514 132.539 104.942 132.308C105.374 132.073 105.703 131.751 105.93 131.342C106.161 130.933 106.277 130.465 106.277 129.939V122.428ZM110.455 137.337V125.337H112.114V126.751H112.256C112.354 126.57 112.496 126.359 112.682 126.121C112.867 125.882 113.125 125.674 113.455 125.496C113.784 125.314 114.22 125.223 114.761 125.223C115.466 125.223 116.095 125.401 116.648 125.757C117.201 126.113 117.634 126.626 117.949 127.297C118.267 127.967 118.426 128.774 118.426 129.717C118.426 130.661 118.269 131.469 117.955 132.144C117.64 132.814 117.208 133.331 116.659 133.695C116.11 134.054 115.483 134.234 114.778 134.234C114.248 134.234 113.814 134.145 113.477 133.967C113.144 133.789 112.883 133.581 112.693 133.342C112.504 133.104 112.358 132.892 112.256 132.706H112.153V137.337H110.455ZM112.119 129.7C112.119 130.314 112.208 130.852 112.386 131.314C112.564 131.776 112.822 132.138 113.159 132.399C113.496 132.657 113.909 132.786 114.398 132.786C114.905 132.786 115.33 132.651 115.67 132.382C116.011 132.109 116.269 131.74 116.443 131.274C116.621 130.808 116.71 130.284 116.71 129.7C116.71 129.125 116.623 128.608 116.449 128.149C116.278 127.691 116.021 127.329 115.676 127.064C115.335 126.799 114.909 126.666 114.398 126.666C113.905 126.666 113.489 126.793 113.148 127.047C112.811 127.301 112.555 127.655 112.381 128.109C112.206 128.564 112.119 129.094 112.119 129.7ZM128.717 125.337V126.7H123.786V125.337H128.717ZM125.138 134.064V124.325C125.138 123.78 125.257 123.327 125.496 122.967C125.734 122.604 126.051 122.333 126.445 122.155C126.839 121.973 127.267 121.882 127.729 121.882C128.07 121.882 128.361 121.911 128.604 121.967C128.846 122.02 129.026 122.07 129.143 122.115L128.746 123.49C128.666 123.467 128.564 123.441 128.439 123.411C128.314 123.376 128.162 123.359 127.984 123.359C127.571 123.359 127.276 123.462 127.098 123.666C126.924 123.871 126.837 124.166 126.837 124.553V134.064H125.138ZM130.47 134.064V125.337H132.112V126.723H132.203C132.362 126.253 132.643 125.884 133.044 125.615C133.449 125.342 133.908 125.206 134.419 125.206C134.525 125.206 134.65 125.21 134.794 125.217C134.942 125.225 135.057 125.234 135.141 125.246V126.871C135.072 126.852 134.951 126.831 134.777 126.808C134.603 126.782 134.429 126.769 134.254 126.769C133.853 126.769 133.495 126.854 133.18 127.024C132.87 127.191 132.624 127.424 132.442 127.723C132.26 128.019 132.169 128.356 132.169 128.734V134.064H130.47ZM139.974 134.24C139.156 134.24 138.442 134.053 137.832 133.678C137.223 133.303 136.749 132.778 136.412 132.104C136.075 131.429 135.906 130.642 135.906 129.74C135.906 128.835 136.075 128.043 136.412 127.365C136.749 126.687 137.223 126.161 137.832 125.786C138.442 125.411 139.156 125.223 139.974 125.223C140.793 125.223 141.507 125.411 142.116 125.786C142.726 126.161 143.2 126.687 143.537 127.365C143.874 128.043 144.043 128.835 144.043 129.74C144.043 130.642 143.874 131.429 143.537 132.104C143.2 132.778 142.726 133.303 142.116 133.678C141.507 134.053 140.793 134.24 139.974 134.24ZM139.98 132.814C140.51 132.814 140.95 132.674 141.298 132.394C141.647 132.113 141.904 131.74 142.071 131.274C142.241 130.808 142.327 130.295 142.327 129.734C142.327 129.178 142.241 128.666 142.071 128.2C141.904 127.731 141.647 127.354 141.298 127.07C140.95 126.786 140.51 126.644 139.98 126.644C139.446 126.644 139.003 126.786 138.651 127.07C138.302 127.354 138.043 127.731 137.872 128.2C137.705 128.666 137.622 129.178 137.622 129.734C137.622 130.295 137.705 130.808 137.872 131.274C138.043 131.74 138.302 132.113 138.651 132.394C139.003 132.674 139.446 132.814 139.98 132.814ZM145.939 134.064V125.337H147.57V126.757H147.678C147.859 126.276 148.157 125.901 148.57 125.632C148.982 125.359 149.477 125.223 150.053 125.223C150.636 125.223 151.125 125.359 151.518 125.632C151.916 125.905 152.21 126.28 152.399 126.757H152.49C152.698 126.291 153.03 125.92 153.484 125.644C153.939 125.363 154.481 125.223 155.109 125.223C155.901 125.223 156.547 125.471 157.047 125.967C157.551 126.464 157.803 127.212 157.803 128.212V134.064H156.104V128.371C156.104 127.78 155.943 127.352 155.621 127.087C155.299 126.822 154.914 126.689 154.467 126.689C153.914 126.689 153.484 126.859 153.178 127.2C152.871 127.537 152.717 127.971 152.717 128.501V134.064H151.024V128.263C151.024 127.789 150.876 127.409 150.581 127.121C150.286 126.833 149.901 126.689 149.428 126.689C149.106 126.689 148.808 126.774 148.536 126.945C148.267 127.111 148.049 127.344 147.882 127.644C147.719 127.943 147.638 128.289 147.638 128.683V134.064H145.939ZM165.388 137.337C165.134 137.337 164.903 137.316 164.695 137.274C164.486 137.236 164.331 137.195 164.229 137.149L164.638 135.757C164.948 135.84 165.225 135.876 165.467 135.865C165.71 135.854 165.924 135.763 166.109 135.592C166.299 135.422 166.465 135.144 166.609 134.757L166.82 134.178L163.626 125.337H165.445L167.655 132.109H167.746L169.956 125.337H171.78L168.183 135.229C168.017 135.683 167.804 136.068 167.547 136.382C167.289 136.7 166.982 136.939 166.626 137.098C166.27 137.257 165.857 137.337 165.388 137.337ZM176.841 134.24C175.981 134.24 175.241 134.056 174.619 133.689C174.002 133.318 173.525 132.797 173.188 132.126C172.854 131.452 172.688 130.662 172.688 129.757C172.688 128.863 172.854 128.075 173.188 127.394C173.525 126.712 173.994 126.179 174.597 125.797C175.203 125.414 175.911 125.223 176.722 125.223C177.214 125.223 177.691 125.304 178.153 125.467C178.616 125.63 179.03 125.886 179.398 126.234C179.765 126.583 180.055 127.036 180.267 127.592C180.479 128.145 180.585 128.818 180.585 129.609V130.212H173.648V128.939H178.92C178.92 128.492 178.83 128.096 178.648 127.751C178.466 127.403 178.21 127.128 177.881 126.928C177.555 126.727 177.172 126.626 176.733 126.626C176.256 126.626 175.839 126.744 175.483 126.979C175.131 127.21 174.858 127.513 174.665 127.888C174.475 128.259 174.381 128.662 174.381 129.098V130.092C174.381 130.676 174.483 131.172 174.688 131.581C174.896 131.99 175.186 132.303 175.557 132.519C175.928 132.731 176.362 132.837 176.858 132.837C177.18 132.837 177.473 132.791 177.739 132.7C178.004 132.606 178.233 132.465 178.426 132.28C178.619 132.094 178.767 131.865 178.869 131.592L180.477 131.882C180.348 132.356 180.117 132.77 179.784 133.126C179.455 133.479 179.04 133.753 178.54 133.95C178.044 134.144 177.477 134.24 176.841 134.24ZM189.01 127.467L187.47 127.74C187.406 127.543 187.304 127.356 187.163 127.178C187.027 127 186.841 126.854 186.607 126.74C186.372 126.626 186.078 126.57 185.726 126.57C185.245 126.57 184.843 126.678 184.521 126.894C184.199 127.106 184.038 127.38 184.038 127.717C184.038 128.009 184.146 128.244 184.362 128.422C184.578 128.6 184.927 128.746 185.408 128.859L186.794 129.178C187.597 129.363 188.196 129.649 188.589 130.036C188.983 130.422 189.18 130.924 189.18 131.541C189.18 132.064 189.029 132.53 188.726 132.939C188.427 133.344 188.008 133.662 187.47 133.894C186.936 134.125 186.317 134.24 185.612 134.24C184.635 134.24 183.838 134.032 183.22 133.615C182.603 133.195 182.224 132.598 182.084 131.825L183.726 131.575C183.828 132.003 184.038 132.327 184.357 132.547C184.675 132.763 185.089 132.871 185.601 132.871C186.158 132.871 186.603 132.755 186.936 132.524C187.269 132.289 187.436 132.003 187.436 131.666C187.436 131.394 187.334 131.164 187.129 130.979C186.929 130.793 186.62 130.653 186.203 130.558L184.726 130.234C183.911 130.049 183.309 129.753 182.919 129.348C182.533 128.943 182.339 128.429 182.339 127.808C182.339 127.293 182.483 126.842 182.771 126.456C183.059 126.07 183.457 125.769 183.964 125.553C184.472 125.333 185.054 125.223 185.709 125.223C186.652 125.223 187.394 125.428 187.936 125.837C188.478 126.242 188.836 126.786 189.01 127.467ZM195.122 125.337V126.7H190.355V125.337H195.122ZM191.634 123.246H193.332V131.501C193.332 131.831 193.382 132.079 193.48 132.246C193.579 132.409 193.705 132.52 193.861 132.581C194.02 132.638 194.192 132.666 194.378 132.666C194.514 132.666 194.634 132.657 194.736 132.638C194.838 132.619 194.918 132.604 194.974 132.592L195.281 133.996C195.183 134.034 195.043 134.072 194.861 134.109C194.679 134.151 194.452 134.174 194.179 134.178C193.732 134.185 193.315 134.106 192.929 133.939C192.543 133.772 192.23 133.515 191.991 133.166C191.753 132.818 191.634 132.38 191.634 131.854V123.246ZM200.669 134.24C199.809 134.24 199.069 134.056 198.447 133.689C197.83 133.318 197.353 132.797 197.016 132.126C196.682 131.452 196.516 130.662 196.516 129.757C196.516 128.863 196.682 128.075 197.016 127.394C197.353 126.712 197.822 126.179 198.425 125.797C199.031 125.414 199.739 125.223 200.55 125.223C201.042 125.223 201.519 125.304 201.982 125.467C202.444 125.63 202.858 125.886 203.226 126.234C203.593 126.583 203.883 127.036 204.095 127.592C204.307 128.145 204.413 128.818 204.413 129.609V130.212H197.476V128.939H202.749C202.749 128.492 202.658 128.096 202.476 127.751C202.294 127.403 202.038 127.128 201.709 126.928C201.383 126.727 201 126.626 200.561 126.626C200.084 126.626 199.667 126.744 199.311 126.979C198.959 127.21 198.686 127.513 198.493 127.888C198.304 128.259 198.209 128.662 198.209 129.098V130.092C198.209 130.676 198.311 131.172 198.516 131.581C198.724 131.99 199.014 132.303 199.385 132.519C199.756 132.731 200.19 132.837 200.686 132.837C201.008 132.837 201.302 132.791 201.567 132.7C201.832 132.606 202.061 132.465 202.254 132.28C202.447 132.094 202.595 131.865 202.697 131.592L204.305 131.882C204.177 132.356 203.946 132.77 203.612 133.126C203.283 133.479 202.868 133.753 202.368 133.95C201.872 134.144 201.305 134.24 200.669 134.24ZM206.298 134.064V125.337H207.94V126.723H208.031C208.19 126.253 208.471 125.884 208.872 125.615C209.277 125.342 209.736 125.206 210.247 125.206C210.353 125.206 210.478 125.21 210.622 125.217C210.77 125.225 210.885 125.234 210.969 125.246V126.871C210.901 126.852 210.779 126.831 210.605 126.808C210.431 126.782 210.257 126.769 210.082 126.769C209.681 126.769 209.323 126.854 209.009 127.024C208.698 127.191 208.452 127.424 208.27 127.723C208.088 128.019 207.997 128.356 207.997 128.734V134.064H206.298ZM215.393 134.234C214.689 134.234 214.06 134.054 213.507 133.695C212.958 133.331 212.526 132.814 212.212 132.144C211.901 131.469 211.746 130.661 211.746 129.717C211.746 128.774 211.903 127.967 212.217 127.297C212.536 126.626 212.971 126.113 213.524 125.757C214.077 125.401 214.704 125.223 215.405 125.223C215.946 125.223 216.382 125.314 216.712 125.496C217.045 125.674 217.303 125.882 217.484 126.121C217.67 126.359 217.814 126.57 217.916 126.751H218.018V122.428H219.717V134.064H218.058V132.706H217.916C217.814 132.892 217.666 133.104 217.473 133.342C217.284 133.581 217.022 133.789 216.689 133.967C216.356 134.145 215.924 134.234 215.393 134.234ZM215.768 132.786C216.257 132.786 216.67 132.657 217.007 132.399C217.348 132.138 217.606 131.776 217.78 131.314C217.958 130.852 218.047 130.314 218.047 129.7C218.047 129.094 217.96 128.564 217.786 128.109C217.611 127.655 217.356 127.301 217.018 127.047C216.681 126.793 216.265 126.666 215.768 126.666C215.257 126.666 214.831 126.799 214.49 127.064C214.149 127.329 213.892 127.691 213.717 128.149C213.547 128.608 213.462 129.125 213.462 129.7C213.462 130.284 213.549 130.808 213.723 131.274C213.897 131.74 214.155 132.109 214.496 132.382C214.84 132.651 215.265 132.786 215.768 132.786ZM224.682 134.257C224.129 134.257 223.629 134.155 223.182 133.95C222.735 133.742 222.381 133.441 222.119 133.047C221.862 132.653 221.733 132.17 221.733 131.598C221.733 131.106 221.828 130.7 222.017 130.382C222.206 130.064 222.462 129.812 222.784 129.626C223.106 129.441 223.466 129.301 223.864 129.206C224.261 129.111 224.667 129.039 225.08 128.99C225.602 128.929 226.027 128.88 226.352 128.842C226.678 128.801 226.915 128.734 227.062 128.644C227.21 128.553 227.284 128.405 227.284 128.2V128.161C227.284 127.664 227.144 127.28 226.864 127.007C226.587 126.734 226.174 126.598 225.625 126.598C225.053 126.598 224.602 126.725 224.273 126.979C223.947 127.229 223.722 127.507 223.597 127.814L222 127.45C222.189 126.92 222.466 126.492 222.83 126.166C223.197 125.837 223.619 125.598 224.097 125.45C224.574 125.299 225.076 125.223 225.602 125.223C225.951 125.223 226.32 125.265 226.71 125.348C227.104 125.428 227.472 125.575 227.812 125.791C228.157 126.007 228.439 126.316 228.659 126.717C228.879 127.115 228.989 127.632 228.989 128.269V134.064H227.33V132.871H227.261C227.152 133.09 226.987 133.306 226.767 133.519C226.547 133.731 226.265 133.907 225.92 134.047C225.576 134.187 225.163 134.257 224.682 134.257ZM225.051 132.894C225.521 132.894 225.922 132.801 226.256 132.615C226.593 132.429 226.848 132.187 227.023 131.888C227.201 131.585 227.29 131.261 227.29 130.916V129.791C227.229 129.852 227.112 129.909 226.938 129.962C226.767 130.011 226.572 130.054 226.352 130.092C226.133 130.126 225.919 130.159 225.71 130.189C225.502 130.215 225.328 130.238 225.188 130.257C224.858 130.299 224.557 130.369 224.284 130.467C224.015 130.566 223.799 130.708 223.636 130.894C223.477 131.075 223.398 131.318 223.398 131.621C223.398 132.041 223.553 132.359 223.864 132.575C224.174 132.787 224.57 132.894 225.051 132.894ZM232.013 137.337C231.759 137.337 231.528 137.316 231.32 137.274C231.111 137.236 230.956 137.195 230.854 137.149L231.263 135.757C231.573 135.84 231.85 135.876 232.092 135.865C232.335 135.854 232.549 135.763 232.734 135.592C232.924 135.422 233.09 135.144 233.234 134.757L233.445 134.178L230.251 125.337H232.07L234.28 132.109H234.371L236.581 125.337H238.405L234.808 135.229C234.642 135.683 234.429 136.068 234.172 136.382C233.914 136.7 233.607 136.939 233.251 137.098C232.895 137.257 232.482 137.337 232.013 137.337Z" fill="#606060"/>
<path opacity="0.21" fill-rule="evenodd" clip-rule="evenodd" d="M271 38.064V53.064C271 55.8254 273.239 58.064 276 58.064H291H306C308.761 58.064 311 55.8254 311 53.064V38.064V23.064C311 20.3025 308.761 18.064 306 18.064H291H276C273.239 18.064 271 20.3025 271 23.064V38.064Z" fill="#4AD991"/>
<path d="M283.742 45.3228H299.298C299.87 45.3228 300.335 45.7871 300.335 46.3599C300.335 46.9326 299.87 47.3969 299.298 47.3969H282.705C282.132 47.3969 281.668 46.9326 281.668 46.3599V29.7673C281.668 29.1945 282.132 28.7302 282.705 28.7302C283.278 28.7302 283.742 29.1945 283.742 29.7673V45.3228Z" fill="#4AD991"/>
<path opacity="0.5" d="M287.61 40.847C287.218 41.2648 286.562 41.286 286.144 40.8942C285.726 40.5025 285.705 39.8462 286.097 39.4284L289.986 35.2803C290.365 34.8762 290.994 34.8411 291.415 35.2007L294.485 37.8199L298.484 32.7543C298.839 32.3048 299.491 32.2281 299.94 32.583C300.39 32.9379 300.467 33.59 300.112 34.0395L295.445 39.9506C295.081 40.4124 294.406 40.4788 293.958 40.0969L290.822 37.4208L287.61 40.847Z" fill="#4AD991"/>
</svg>
