<svg width="244" height="44" viewBox="0 0 244 44" fill="none" xmlns="http://www.w3.org/2000/svg">
<g filter="url(#filter0_d_1_10597)">
<rect x="2" y="1" width="240" height="40" rx="4" fill="white" shape-rendering="crispEdges"/>
<rect x="2.5" y="1.5" width="239" height="39" rx="3.5" stroke="#E2E8F0" shape-rendering="crispEdges"/>
<path fill-rule="evenodd" clip-rule="evenodd" d="M20.75 15.75C20.3358 15.75 20 16.0858 20 16.5V27C20 27.4142 20.3358 27.75 20.75 27.75H31.25C31.6642 27.75 32 27.4142 32 27V16.5C32 16.0858 31.6642 15.75 31.25 15.75H20.75ZM18.5 16.5C18.5 15.2574 19.5074 14.25 20.75 14.25H31.25C32.4926 14.25 33.5 15.2574 33.5 16.5V27C33.5 28.2426 32.4926 29.25 31.25 29.25H20.75C19.5074 29.25 18.5 28.2426 18.5 27V16.5Z" fill="#64748B"/>
<path fill-rule="evenodd" clip-rule="evenodd" d="M29 12.75C29.4142 12.75 29.75 13.0858 29.75 13.5V16.5C29.75 16.9142 29.4142 17.25 29 17.25C28.5858 17.25 28.25 16.9142 28.25 16.5V13.5C28.25 13.0858 28.5858 12.75 29 12.75Z" fill="#64748B"/>
<path fill-rule="evenodd" clip-rule="evenodd" d="M23 12.75C23.4142 12.75 23.75 13.0858 23.75 13.5V16.5C23.75 16.9142 23.4142 17.25 23 17.25C22.5858 17.25 22.25 16.9142 22.25 16.5V13.5C22.25 13.0858 22.5858 12.75 23 12.75Z" fill="#64748B"/>
<path fill-rule="evenodd" clip-rule="evenodd" d="M18.5 19.5C18.5 19.0858 18.8358 18.75 19.25 18.75H32.75C33.1642 18.75 33.5 19.0858 33.5 19.5C33.5 19.9142 33.1642 20.25 32.75 20.25H19.25C18.8358 20.25 18.5 19.9142 18.5 19.5Z" fill="#64748B"/>
<path d="M47.4148 26H44.1186V15.8182H47.5192C48.5168 15.8182 49.3736 16.022 50.0895 16.4297C50.8054 16.834 51.3539 17.4157 51.7351 18.1747C52.1196 18.9304 52.3118 19.8369 52.3118 20.8942C52.3118 21.9548 52.1179 22.8662 51.7301 23.6286C51.3456 24.3909 50.7888 24.9775 50.0597 25.3885C49.3305 25.7962 48.4489 26 47.4148 26ZM45.6548 24.6577H47.3303C48.1058 24.6577 48.7505 24.5118 49.2642 24.2202C49.7779 23.9252 50.1624 23.4993 50.4176 22.9425C50.6728 22.3823 50.8004 21.6996 50.8004 20.8942C50.8004 20.0954 50.6728 19.4176 50.4176 18.8608C50.1657 18.304 49.7895 17.8814 49.2891 17.593C48.7886 17.3047 48.1671 17.1605 47.4247 17.1605H45.6548V24.6577ZM57.394 26.1541C56.6416 26.1541 55.9937 25.9934 55.4501 25.6719C54.9099 25.3471 54.4922 24.8913 54.1973 24.3047C53.9056 23.7147 53.7598 23.0237 53.7598 22.2315C53.7598 21.4493 53.9056 20.7599 54.1973 20.1634C54.4922 19.5668 54.9032 19.1011 55.4302 18.7663C55.9605 18.4316 56.5803 18.2642 57.2896 18.2642C57.7205 18.2642 58.1381 18.3355 58.5424 18.478C58.9468 18.6205 59.3097 18.8442 59.6312 19.1491C59.9527 19.4541 60.2063 19.8501 60.3919 20.3374C60.5775 20.8213 60.6703 21.4096 60.6703 22.1023V22.6293H54.6V21.5156H59.2136C59.2136 21.1245 59.1341 20.7782 58.975 20.4766C58.8159 20.1716 58.5922 19.9313 58.3038 19.7557C58.0188 19.58 57.684 19.4922 57.2995 19.4922C56.8819 19.4922 56.5173 19.5949 56.2058 19.8004C55.8975 20.0026 55.6589 20.2678 55.4899 20.5959C55.3242 20.9207 55.2413 21.2737 55.2413 21.6548V22.5249C55.2413 23.0353 55.3308 23.4695 55.5098 23.8274C55.6921 24.1854 55.9456 24.4588 56.2704 24.6477C56.5952 24.8333 56.9747 24.9261 57.4089 24.9261C57.6906 24.9261 57.9475 24.8864 58.1795 24.8068C58.4115 24.724 58.612 24.6013 58.7811 24.4389C58.9501 24.2765 59.0794 24.076 59.1689 23.8374L60.5758 24.0909C60.4631 24.5052 60.2609 24.8681 59.9693 25.1797C59.6809 25.4879 59.318 25.7282 58.8805 25.9006C58.4463 26.0696 57.9508 26.1541 57.394 26.1541ZM65.5362 26.1541C64.7971 26.1541 64.1607 25.9867 63.6271 25.652C63.0968 25.3139 62.6892 24.8482 62.4041 24.255C62.1191 23.6617 61.9766 22.9822 61.9766 22.2166C61.9766 21.4411 62.1224 20.7566 62.4141 20.1634C62.7057 19.5668 63.1167 19.1011 63.647 18.7663C64.1773 18.4316 64.8021 18.2642 65.5213 18.2642C66.1013 18.2642 66.6184 18.3719 67.0724 18.5874C67.5265 18.7995 67.8928 19.0978 68.1712 19.4822C68.4529 19.8667 68.6203 20.3158 68.6733 20.8295H67.2266C67.147 20.4716 66.9647 20.1634 66.6797 19.9048C66.398 19.6463 66.0201 19.517 65.5462 19.517C65.1319 19.517 64.7689 19.6264 64.4574 19.8452C64.1491 20.0606 63.9089 20.3688 63.7365 20.7699C63.5642 21.1676 63.478 21.6383 63.478 22.1818C63.478 22.7386 63.5625 23.2192 63.7315 23.6236C63.9006 24.0279 64.1392 24.3411 64.4474 24.5632C64.759 24.7853 65.1252 24.8963 65.5462 24.8963C65.8279 24.8963 66.0831 24.8449 66.3118 24.7422C66.5438 24.6361 66.7377 24.4853 66.8935 24.2898C67.0526 24.0942 67.1636 23.8589 67.2266 23.5838H68.6733C68.6203 24.0777 68.4595 24.5185 68.1911 24.9062C67.9226 25.294 67.563 25.599 67.1122 25.821C66.6648 26.0431 66.1394 26.1541 65.5362 26.1541ZM73.9482 26V24.8864L77.3935 21.3168C77.7614 20.929 78.0646 20.5893 78.3033 20.2976C78.5452 20.0026 78.7259 19.7225 78.8452 19.4574C78.9645 19.1922 79.0241 18.9105 79.0241 18.6122C79.0241 18.2741 78.9446 17.9825 78.7855 17.7372C78.6264 17.4886 78.4093 17.2981 78.1342 17.1655C77.8591 17.0296 77.5492 16.9616 77.2045 16.9616C76.84 16.9616 76.5218 17.0362 76.25 17.1854C75.9782 17.3345 75.7694 17.545 75.6236 17.8168C75.4777 18.0885 75.4048 18.4067 75.4048 18.7713H73.9382C73.9382 18.1515 74.0807 17.6096 74.3658 17.1456C74.6508 16.6816 75.0419 16.322 75.5391 16.0668C76.0362 15.8082 76.6013 15.679 77.2344 15.679C77.8741 15.679 78.4375 15.8066 78.9247 16.0618C79.4152 16.3137 79.7981 16.6584 80.0732 17.0959C80.3482 17.5301 80.4858 18.0206 80.4858 18.5675C80.4858 18.9453 80.4145 19.3149 80.272 19.6761C80.1328 20.0374 79.8892 20.4401 79.5412 20.8842C79.1932 21.325 78.7093 21.8603 78.0895 22.4901L76.0661 24.608V24.6825H80.6499V26H73.9482ZM85.9197 15.679C86.3738 15.6823 86.8213 15.7652 87.2621 15.9276C87.7029 16.09 88.1006 16.3551 88.4553 16.723C88.8132 17.0909 89.0982 17.5881 89.3104 18.2145C89.5258 18.8376 89.6352 19.6132 89.6385 20.5412C89.6385 21.4328 89.549 22.2266 89.37 22.9226C89.1911 23.6153 88.9342 24.2003 88.5994 24.6776C88.268 25.1548 87.8653 25.5178 87.3913 25.7663C86.9174 26.0149 86.3838 26.1392 85.7905 26.1392C85.1839 26.1392 84.6454 26.0199 84.1747 25.7812C83.7041 25.5426 83.3213 25.2128 83.0263 24.7919C82.7313 24.3677 82.5473 23.8804 82.4744 23.3303H83.9908C84.0902 23.7678 84.2924 24.1224 84.5973 24.3942C84.9055 24.6626 85.3033 24.7969 85.7905 24.7969C86.5362 24.7969 87.1179 24.4721 87.5355 23.8224C87.9531 23.1695 88.1636 22.258 88.1669 21.0881H88.0874C87.915 21.3731 87.6996 21.6184 87.4411 21.8239C87.1858 22.0294 86.8991 22.1884 86.581 22.3011C86.2628 22.4138 85.9231 22.4702 85.5618 22.4702C84.9751 22.4702 84.4415 22.326 83.9609 22.0376C83.4804 21.7493 83.0975 21.3532 82.8125 20.8494C82.5275 20.3456 82.3849 19.7706 82.3849 19.1243C82.3849 18.4813 82.5308 17.898 82.8224 17.3743C83.1174 16.8506 83.5284 16.4363 84.0554 16.1314C84.5857 15.8232 85.2071 15.6723 85.9197 15.679ZM85.9247 16.9716C85.5369 16.9716 85.1873 17.0677 84.8757 17.2599C84.5675 17.4489 84.3239 17.7057 84.1449 18.0305C83.9659 18.352 83.8764 18.71 83.8764 19.1044C83.8764 19.4988 83.9626 19.8568 84.1349 20.1783C84.3106 20.4964 84.5492 20.75 84.8509 20.9389C85.1558 21.1245 85.5038 21.2173 85.8949 21.2173C86.1866 21.2173 86.4583 21.161 86.7102 21.0483C86.9621 20.9356 87.1825 20.7798 87.3714 20.581C87.5604 20.3788 87.7079 20.1501 87.8139 19.8949C87.92 19.6397 87.973 19.3712 87.973 19.0895C87.973 18.715 87.8835 18.367 87.7045 18.0455C87.5289 17.724 87.2869 17.4654 86.9787 17.2699C86.6705 17.071 86.3191 16.9716 85.9247 16.9716ZM93.0192 24.608L92.9446 25.1499C92.8949 25.5476 92.8104 25.9619 92.6911 26.3928C92.575 26.8269 92.4541 27.2296 92.3281 27.6009C92.2055 27.9721 92.1044 28.267 92.0249 28.4858H90.9709C91.014 28.2803 91.0736 28.0019 91.1499 27.6506C91.2261 27.3026 91.3007 26.9131 91.3736 26.4822C91.4465 26.0514 91.5012 25.6122 91.5376 25.1648L91.5874 24.608H93.0192ZM98.6396 26V24.8864L102.085 21.3168C102.453 20.929 102.756 20.5893 102.995 20.2976C103.237 20.0026 103.417 19.7225 103.537 19.4574C103.656 19.1922 103.716 18.9105 103.716 18.6122C103.716 18.2741 103.636 17.9825 103.477 17.7372C103.318 17.4886 103.101 17.2981 102.826 17.1655C102.551 17.0296 102.241 16.9616 101.896 16.9616C101.531 16.9616 101.213 17.0362 100.941 17.1854C100.67 17.3345 100.461 17.545 100.315 17.8168C100.169 18.0885 100.096 18.4067 100.096 18.7713H98.6296C98.6296 18.1515 98.7721 17.6096 99.0572 17.1456C99.3422 16.6816 99.7333 16.322 100.23 16.0668C100.728 15.8082 101.293 15.679 101.926 15.679C102.565 15.679 103.129 15.8066 103.616 16.0618C104.107 16.3137 104.489 16.6584 104.765 17.0959C105.04 17.5301 105.177 18.0206 105.177 18.5675C105.177 18.9453 105.106 19.3149 104.963 19.6761C104.824 20.0374 104.581 20.4401 104.233 20.8842C103.885 21.325 103.401 21.8603 102.781 22.4901L100.757 24.608V24.6825H105.341V26H98.6396ZM110.77 26.169C109.985 26.1657 109.314 25.9586 108.757 25.5476C108.2 25.1366 107.774 24.5384 107.479 23.7528C107.184 22.9673 107.037 22.0211 107.037 20.9141C107.037 19.8104 107.184 18.8674 107.479 18.0852C107.777 17.303 108.205 16.7064 108.762 16.2955C109.322 15.8845 109.991 15.679 110.77 15.679C111.549 15.679 112.217 15.8861 112.774 16.3004C113.331 16.7114 113.757 17.308 114.051 18.0902C114.35 18.8691 114.499 19.8104 114.499 20.9141C114.499 22.0244 114.351 22.9723 114.056 23.7578C113.761 24.54 113.336 25.1383 112.779 25.5526C112.222 25.9635 111.552 26.169 110.77 26.169ZM110.77 24.8416C111.46 24.8416 111.998 24.5052 112.386 23.8324C112.777 23.1596 112.973 22.1868 112.973 20.9141C112.973 20.0689 112.883 19.3546 112.704 18.7713C112.529 18.1847 112.275 17.7405 111.944 17.4389C111.615 17.134 111.224 16.9815 110.77 16.9815C110.084 16.9815 109.546 17.3196 109.154 17.9957C108.763 18.6719 108.566 19.6446 108.563 20.9141C108.563 21.7625 108.651 22.4801 108.826 23.0668C109.005 23.6501 109.259 24.0926 109.587 24.3942C109.915 24.6925 110.31 24.8416 110.77 24.8416ZM116.263 26V24.8864L119.708 21.3168C120.076 20.929 120.379 20.5893 120.618 20.2976C120.86 20.0026 121.04 19.7225 121.16 19.4574C121.279 19.1922 121.339 18.9105 121.339 18.6122C121.339 18.2741 121.259 17.9825 121.1 17.7372C120.941 17.4886 120.724 17.2981 120.449 17.1655C120.174 17.0296 119.864 16.9616 119.519 16.9616C119.154 16.9616 118.836 17.0362 118.564 17.1854C118.293 17.3345 118.084 17.545 117.938 17.8168C117.792 18.0885 117.719 18.4067 117.719 18.7713H116.253C116.253 18.1515 116.395 17.6096 116.68 17.1456C116.965 16.6816 117.356 16.322 117.854 16.0668C118.351 15.8082 118.916 15.679 119.549 15.679C120.189 15.679 120.752 15.8066 121.239 16.0618C121.73 16.3137 122.113 16.6584 122.388 17.0959C122.663 17.5301 122.8 18.0206 122.8 18.5675C122.8 18.9453 122.729 19.3149 122.586 19.6761C122.447 20.0374 122.204 20.4401 121.856 20.8842C121.508 21.325 121.024 21.8603 120.404 22.4901L118.381 24.608V24.6825H122.964V26H116.263ZM128.393 26.1392C127.711 26.1392 127.101 26.0215 126.564 25.7862C126.03 25.5509 125.608 25.2244 125.296 24.8068C124.988 24.3859 124.822 23.8987 124.799 23.3452H126.36C126.38 23.6468 126.481 23.9086 126.663 24.1307C126.849 24.3494 127.091 24.5185 127.389 24.6378C127.687 24.7571 128.019 24.8168 128.383 24.8168C128.784 24.8168 129.139 24.7472 129.447 24.608C129.759 24.4687 130.002 24.2749 130.178 24.0263C130.354 23.7744 130.442 23.4844 130.442 23.1562C130.442 22.8149 130.354 22.5149 130.178 22.2564C130.006 21.9946 129.752 21.7891 129.417 21.6399C129.086 21.4908 128.685 21.4162 128.214 21.4162H127.354V20.1634H128.214C128.592 20.1634 128.924 20.0954 129.209 19.9595C129.497 19.8236 129.722 19.6347 129.885 19.3928C130.047 19.1475 130.128 18.8608 130.128 18.5327C130.128 18.2178 130.057 17.9444 129.915 17.7124C129.775 17.477 129.577 17.2931 129.318 17.1605C129.063 17.0279 128.761 16.9616 128.413 16.9616C128.082 16.9616 127.772 17.023 127.483 17.1456C127.198 17.2649 126.966 17.4373 126.787 17.6626C126.608 17.8847 126.512 18.1515 126.499 18.4631H125.013C125.029 17.9129 125.192 17.429 125.5 17.0114C125.811 16.5937 126.222 16.2673 126.733 16.032C127.243 15.7966 127.81 15.679 128.433 15.679C129.086 15.679 129.649 15.8066 130.123 16.0618C130.601 16.3137 130.969 16.6501 131.227 17.071C131.489 17.492 131.618 17.9527 131.615 18.4531C131.618 19.0232 131.459 19.5071 131.138 19.9048C130.819 20.3026 130.395 20.5694 129.865 20.7053V20.7848C130.541 20.8875 131.065 21.156 131.436 21.5902C131.81 22.0244 131.996 22.563 131.993 23.206C131.996 23.7661 131.84 24.2682 131.525 24.7124C131.214 25.1565 130.788 25.5062 130.248 25.7614C129.707 26.0133 129.089 26.1392 128.393 26.1392ZM142.096 20.2628V21.5554H137.582V20.2628H142.096ZM151.859 15.8182H153.39V23.0369C153.39 23.6899 153.261 24.2483 153.003 24.7124C152.747 25.1764 152.388 25.531 151.924 25.7763C151.46 26.0182 150.916 26.1392 150.293 26.1392C149.72 26.1392 149.204 26.0348 148.747 25.826C148.293 25.6172 147.933 25.3139 147.668 24.9162C147.406 24.5152 147.275 24.0279 147.275 23.4545H148.802C148.802 23.7363 148.866 23.9799 148.996 24.1854C149.128 24.3909 149.309 24.5516 149.537 24.6676C149.769 24.7803 150.035 24.8366 150.333 24.8366C150.658 24.8366 150.933 24.7687 151.158 24.6328C151.387 24.4936 151.561 24.2898 151.68 24.0213C151.8 23.7528 151.859 23.4247 151.859 23.0369V15.8182ZM157.729 26.169C157.246 26.169 156.808 26.0795 156.417 25.9006C156.026 25.7183 155.716 25.4548 155.487 25.1101C155.262 24.7654 155.149 24.3428 155.149 23.8423C155.149 23.4115 155.232 23.0568 155.398 22.7784C155.563 22.5 155.787 22.2796 156.069 22.1172C156.351 21.9548 156.665 21.8321 157.013 21.7493C157.362 21.6664 157.716 21.6035 158.077 21.5604C158.535 21.5073 158.906 21.4643 159.191 21.4311C159.476 21.3946 159.683 21.3366 159.812 21.2571C159.942 21.1776 160.006 21.0483 160.006 20.8693V20.8345C160.006 20.4003 159.884 20.0639 159.638 19.8253C159.397 19.5866 159.035 19.4673 158.555 19.4673C158.054 19.4673 157.66 19.5784 157.371 19.8004C157.086 20.0192 156.889 20.2628 156.78 20.5312L155.383 20.2131C155.549 19.7491 155.79 19.3745 156.109 19.0895C156.43 18.8011 156.8 18.5923 157.217 18.4631C157.635 18.3305 158.074 18.2642 158.535 18.2642C158.84 18.2642 159.163 18.3007 159.504 18.3736C159.849 18.4432 160.17 18.5724 160.469 18.7614C160.77 18.9503 161.017 19.2204 161.21 19.5717C161.402 19.9197 161.498 20.3722 161.498 20.929V26H160.046V24.956H159.987C159.89 25.1482 159.746 25.3371 159.554 25.5227C159.362 25.7083 159.115 25.8625 158.813 25.9851C158.512 26.1077 158.15 26.169 157.729 26.169ZM158.053 24.9759C158.464 24.9759 158.815 24.8946 159.107 24.7322C159.402 24.5698 159.625 24.3577 159.778 24.0959C159.933 23.8307 160.011 23.5473 160.011 23.2457V22.2614C159.958 22.3144 159.856 22.3641 159.703 22.4105C159.554 22.4536 159.383 22.4917 159.191 22.5249C158.999 22.5547 158.812 22.5829 158.629 22.6094C158.447 22.6326 158.295 22.6525 158.172 22.669C157.884 22.7055 157.62 22.7668 157.381 22.853C157.146 22.9392 156.957 23.0634 156.815 23.2259C156.675 23.3849 156.606 23.5971 156.606 23.8622C156.606 24.2301 156.742 24.5085 157.013 24.6974C157.285 24.883 157.632 24.9759 158.053 24.9759ZM164.964 21.4659V26H163.478V18.3636H164.905V19.6065H164.999C165.175 19.2022 165.45 18.8774 165.824 18.6321C166.202 18.3868 166.678 18.2642 167.251 18.2642C167.772 18.2642 168.227 18.3736 168.618 18.5923C169.01 18.8078 169.313 19.1293 169.528 19.5568C169.744 19.9844 169.851 20.513 169.851 21.1428V26H168.365V21.3217C168.365 20.7682 168.221 20.3357 167.932 20.0241C167.644 19.7093 167.248 19.5518 166.744 19.5518C166.399 19.5518 166.093 19.6264 165.824 19.7756C165.559 19.9247 165.349 20.1435 165.193 20.4318C165.041 20.7169 164.964 21.0616 164.964 21.4659ZM175.316 24.0114V22.7685L179.716 15.8182H180.696V17.6477H180.074L176.927 22.6293V22.7088H182.958V24.0114H175.316ZM180.144 26V23.6335L180.154 23.0668V15.8182H181.61V26H180.144ZM186.261 24.608L186.187 25.1499C186.137 25.5476 186.053 25.9619 185.933 26.3928C185.817 26.8269 185.696 27.2296 185.57 27.6009C185.448 27.9721 185.347 28.267 185.267 28.4858H184.213C184.256 28.2803 184.316 28.0019 184.392 27.6506C184.468 27.3026 184.543 26.9131 184.616 26.4822C184.689 26.0514 184.743 25.6122 184.78 25.1648L184.83 24.608H186.261ZM191.882 26V24.8864L195.327 21.3168C195.695 20.929 195.998 20.5893 196.237 20.2976C196.479 20.0026 196.659 19.7225 196.779 19.4574C196.898 19.1922 196.958 18.9105 196.958 18.6122C196.958 18.2741 196.878 17.9825 196.719 17.7372C196.56 17.4886 196.343 17.2981 196.068 17.1655C195.793 17.0296 195.483 16.9616 195.138 16.9616C194.774 16.9616 194.455 17.0362 194.184 17.1854C193.912 17.3345 193.703 17.545 193.557 17.8168C193.411 18.0885 193.338 18.4067 193.338 18.7713H191.872C191.872 18.1515 192.014 17.6096 192.299 17.1456C192.584 16.6816 192.975 16.322 193.473 16.0668C193.97 15.8082 194.535 15.679 195.168 15.679C195.808 15.679 196.371 15.8066 196.858 16.0618C197.349 16.3137 197.732 16.6584 198.007 17.0959C198.282 17.5301 198.419 18.0206 198.419 18.5675C198.419 18.9453 198.348 19.3149 198.206 19.6761C198.066 20.0374 197.823 20.4401 197.475 20.8842C197.127 21.325 196.643 21.8603 196.023 22.4901L194 24.608V24.6825H198.583V26H191.882ZM204.012 26.169C203.227 26.1657 202.556 25.9586 201.999 25.5476C201.442 25.1366 201.016 24.5384 200.721 23.7528C200.426 22.9673 200.279 22.0211 200.279 20.9141C200.279 19.8104 200.426 18.8674 200.721 18.0852C201.02 17.303 201.447 16.7064 202.004 16.2955C202.564 15.8845 203.234 15.679 204.012 15.679C204.791 15.679 205.459 15.8861 206.016 16.3004C206.573 16.7114 206.999 17.308 207.294 18.0902C207.592 18.8691 207.741 19.8104 207.741 20.9141C207.741 22.0244 207.594 22.9723 207.299 23.7578C207.004 24.54 206.578 25.1383 206.021 25.5526C205.464 25.9635 204.795 26.169 204.012 26.169ZM204.012 24.8416C204.702 24.8416 205.24 24.5052 205.628 23.8324C206.019 23.1596 206.215 22.1868 206.215 20.9141C206.215 20.0689 206.125 19.3546 205.946 18.7713C205.771 18.1847 205.517 17.7405 205.186 17.4389C204.858 17.134 204.467 16.9815 204.012 16.9815C203.326 16.9815 202.788 17.3196 202.397 17.9957C202.006 18.6719 201.808 19.6446 201.805 20.9141C201.805 21.7625 201.893 22.4801 202.069 23.0668C202.248 23.6501 202.501 24.0926 202.829 24.3942C203.157 24.6925 203.552 24.8416 204.012 24.8416ZM209.505 26V24.8864L212.95 21.3168C213.318 20.929 213.621 20.5893 213.86 20.2976C214.102 20.0026 214.282 19.7225 214.402 19.4574C214.521 19.1922 214.581 18.9105 214.581 18.6122C214.581 18.2741 214.501 17.9825 214.342 17.7372C214.183 17.4886 213.966 17.2981 213.691 17.1655C213.416 17.0296 213.106 16.9616 212.761 16.9616C212.397 16.9616 212.078 17.0362 211.807 17.1854C211.535 17.3345 211.326 17.545 211.18 17.8168C211.034 18.0885 210.961 18.4067 210.961 18.7713H209.495C209.495 18.1515 209.637 17.6096 209.922 17.1456C210.207 16.6816 210.599 16.322 211.096 16.0668C211.593 15.8082 212.158 15.679 212.791 15.679C213.431 15.679 213.994 15.8066 214.481 16.0618C214.972 16.3137 215.355 16.6584 215.63 17.0959C215.905 17.5301 216.042 18.0206 216.042 18.5675C216.042 18.9453 215.971 19.3149 215.829 19.6761C215.689 20.0374 215.446 20.4401 215.098 20.8842C214.75 21.325 214.266 21.8603 213.646 22.4901L211.623 24.608V24.6825H216.206V26H209.505ZM217.658 24.0114V22.7685L222.058 15.8182H223.037V17.6477H222.416L219.269 22.6293V22.7088H225.3V24.0114H217.658ZM222.486 26V23.6335L222.496 23.0668V15.8182H223.952V26H222.486Z" fill="#64748B"/>
</g>
<defs>
<filter id="filter0_d_1_10597" x="0" y="0" width="244" height="44" filterUnits="userSpaceOnUse" color-interpolation-filters="sRGB">
<feFlood flood-opacity="0" result="BackgroundImageFix"/>
<feColorMatrix in="SourceAlpha" type="matrix" values="0 0 0 0 0 0 0 0 0 0 0 0 0 0 0 0 0 0 127 0" result="hardAlpha"/>
<feOffset dy="1"/>
<feGaussianBlur stdDeviation="1"/>
<feComposite in2="hardAlpha" operator="out"/>
<feColorMatrix type="matrix" values="0 0 0 0 0 0 0 0 0 0 0 0 0 0 0 0 0 0 0.05 0"/>
<feBlend mode="normal" in2="BackgroundImageFix" result="effect1_dropShadow_1_10597"/>
<feBlend mode="normal" in="SourceGraphic" in2="effect1_dropShadow_1_10597" result="shape"/>
</filter>
</defs>
</svg>
