<svg width="1075" height="397" viewBox="0 0 1075 397" fill="none" xmlns="http://www.w3.org/2000/svg">
<rect x="0.5" y="0.5" width="1074" height="396" rx="1.5" fill="white" stroke="#E2E8F0"/>
<path d="M49.0708 39.6016C49.0083 38.9714 48.7401 38.4818 48.2661 38.1328C47.7922 37.7839 47.1489 37.6094 46.3364 37.6094C45.7843 37.6094 45.3182 37.6875 44.938 37.8437C44.5578 37.9948 44.2661 38.2057 44.063 38.4766C43.8651 38.7474 43.7661 39.0547 43.7661 39.3984C43.7557 39.6849 43.8156 39.9349 43.9458 40.1484C44.0812 40.362 44.2661 40.5469 44.5005 40.7031C44.7349 40.8542 45.0057 40.987 45.313 41.1016C45.6203 41.2109 45.9484 41.3047 46.2974 41.3828L47.7349 41.7266C48.4328 41.8828 49.0734 42.0911 49.6567 42.3516C50.2401 42.612 50.7453 42.9323 51.1724 43.3125C51.5994 43.6927 51.9302 44.1406 52.1646 44.6562C52.4041 45.1719 52.5265 45.763 52.5317 46.4297C52.5265 47.4089 52.2765 48.2578 51.7817 48.9766C51.2922 49.6901 50.5838 50.2448 49.6567 50.6406C48.7349 51.0312 47.6229 51.2266 46.3208 51.2266C45.0291 51.2266 43.9041 51.0286 42.9458 50.6328C41.9927 50.237 41.2479 49.651 40.7114 48.875C40.1802 48.0937 39.9015 47.1276 39.8755 45.9766H43.1489C43.1854 46.513 43.339 46.9609 43.6099 47.3203C43.8859 47.6745 44.2531 47.9427 44.7114 48.125C45.175 48.3021 45.6984 48.3906 46.2817 48.3906C46.8547 48.3906 47.3521 48.3073 47.7739 48.1406C48.201 47.974 48.5317 47.7422 48.7661 47.4453C49.0005 47.1484 49.1177 46.8073 49.1177 46.4219C49.1177 46.0625 49.0109 45.7604 48.7974 45.5156C48.589 45.2708 48.2817 45.0625 47.8755 44.8906C47.4744 44.7187 46.9823 44.5625 46.3989 44.4219L44.6567 43.9844C43.3078 43.6562 42.2427 43.1432 41.4614 42.4453C40.6802 41.7474 40.2922 40.8073 40.2974 39.625C40.2922 38.6562 40.55 37.8099 41.0708 37.0859C41.5968 36.362 42.3182 35.7969 43.2349 35.3906C44.1515 34.9844 45.1932 34.7812 46.3599 34.7812C47.5474 34.7812 48.5838 34.9844 49.4692 35.3906C50.3599 35.7969 51.0526 36.362 51.5474 37.0859C52.0422 37.8099 52.2974 38.6484 52.313 39.6016H49.0708ZM61.1274 39V41.5H53.9009V39H61.1274ZM55.5415 36.125H58.8696V47.3125C58.8696 47.6198 58.9165 47.8594 59.0103 48.0312C59.104 48.1979 59.2342 48.3151 59.4009 48.3828C59.5728 48.4505 59.7707 48.4844 59.9946 48.4844C60.1509 48.4844 60.3071 48.4714 60.4634 48.4453C60.6196 48.4141 60.7394 48.3906 60.8228 48.375L61.3462 50.8516C61.1795 50.9036 60.9452 50.9635 60.6431 51.0313C60.341 51.1042 59.9738 51.1484 59.5415 51.1641C58.7394 51.1953 58.0363 51.0885 57.4321 50.8437C56.8332 50.599 56.367 50.2187 56.0337 49.7031C55.7004 49.1875 55.5363 48.5365 55.5415 47.75V36.125ZM70.9907 45.8906V39H74.3188V51H71.1235V48.8203H70.9985C70.7277 49.5234 70.2772 50.0885 69.647 50.5156C69.022 50.9427 68.259 51.1563 67.3579 51.1563C66.5558 51.1563 65.8501 50.974 65.2407 50.6094C64.6313 50.2448 64.1548 49.7266 63.811 49.0547C63.4725 48.3828 63.3006 47.5781 63.2954 46.6406V39H66.6235V46.0469C66.6287 46.7552 66.8188 47.3151 67.1938 47.7266C67.5688 48.138 68.0715 48.3437 68.7017 48.3437C69.1027 48.3437 69.4777 48.2526 69.8267 48.0703C70.1756 47.8828 70.4569 47.6068 70.6704 47.2422C70.8892 46.8776 70.9959 46.4271 70.9907 45.8906ZM81.4028 51.1953C80.4914 51.1953 79.6659 50.9609 78.9263 50.4922C78.1919 50.0182 77.6086 49.3229 77.1763 48.4062C76.7492 47.4844 76.5356 46.3542 76.5356 45.0156C76.5356 43.6406 76.757 42.4974 77.1997 41.5859C77.6424 40.6693 78.231 39.9844 78.9653 39.5313C79.7049 39.0729 80.5148 38.8438 81.395 38.8438C82.0669 38.8438 82.6268 38.9583 83.0747 39.1875C83.5278 39.4115 83.8924 39.6927 84.1685 40.0312C84.4497 40.3646 84.6632 40.6927 84.8091 41.0156H84.9106V35H88.231V51H84.9497V49.0781H84.8091C84.6528 49.4115 84.4315 49.7422 84.145 50.0703C83.8638 50.3932 83.4966 50.6615 83.0435 50.875C82.5955 51.0885 82.0487 51.1953 81.4028 51.1953ZM82.4575 48.5469C82.994 48.5469 83.4471 48.401 83.8169 48.1094C84.1919 47.8125 84.4784 47.3984 84.6763 46.8672C84.8794 46.3359 84.981 45.7135 84.981 45C84.981 44.2865 84.882 43.6667 84.6841 43.1406C84.4862 42.6146 84.1997 42.2083 83.8247 41.9219C83.4497 41.6354 82.994 41.4922 82.4575 41.4922C81.9106 41.4922 81.4497 41.6406 81.0747 41.9375C80.6997 42.2344 80.4159 42.6458 80.2231 43.1719C80.0304 43.6979 79.9341 44.3073 79.9341 45C79.9341 45.6979 80.0304 46.3151 80.2231 46.8516C80.4211 47.3828 80.7049 47.7995 81.0747 48.1016C81.4497 48.3984 81.9106 48.5469 82.4575 48.5469ZM96.436 51.2344C95.2017 51.2344 94.1392 50.9844 93.2485 50.4844C92.3631 49.9792 91.6808 49.2656 91.2017 48.3437C90.7225 47.4167 90.4829 46.3203 90.4829 45.0547C90.4829 43.8203 90.7225 42.737 91.2017 41.8047C91.6808 40.8724 92.3553 40.1458 93.2251 39.625C94.1001 39.1042 95.1261 38.8438 96.3032 38.8438C97.0949 38.8438 97.8319 38.9714 98.5142 39.2266C99.2017 39.4766 99.8006 39.8542 100.311 40.3594C100.827 40.8646 101.228 41.5 101.514 42.2656C101.801 43.026 101.944 43.9167 101.944 44.9375V45.8516H91.811V43.7891H98.811C98.811 43.3099 98.7069 42.8854 98.4985 42.5156C98.2902 42.1458 98.0011 41.8568 97.6313 41.6484C97.2668 41.4349 96.8423 41.3281 96.3579 41.3281C95.8527 41.3281 95.4048 41.4453 95.0142 41.6797C94.6287 41.9089 94.3267 42.2187 94.1079 42.6094C93.8892 42.9948 93.7772 43.4245 93.772 43.8984V45.8594C93.772 46.4531 93.8813 46.9661 94.1001 47.3984C94.3241 47.8307 94.6392 48.1641 95.0454 48.3984C95.4517 48.6328 95.9334 48.75 96.4907 48.75C96.8605 48.75 97.1991 48.6979 97.5063 48.5938C97.8136 48.4896 98.0767 48.3333 98.2954 48.125C98.5142 47.9167 98.6808 47.6615 98.7954 47.3594L101.874 47.5625C101.717 48.3021 101.397 48.9479 100.913 49.5C100.433 50.0469 99.8136 50.474 99.0532 50.7813C98.298 51.0833 97.4256 51.2344 96.436 51.2344ZM107.444 44.0625V51H104.116V39H107.288V41.1172H107.428C107.694 40.4193 108.139 39.8672 108.764 39.4609C109.389 39.0495 110.147 38.8438 111.038 38.8438C111.871 38.8438 112.597 39.026 113.217 39.3906C113.837 39.7552 114.319 40.276 114.663 40.9531C115.006 41.625 115.178 42.4271 115.178 43.3594V51H111.85V43.9531C111.855 43.2187 111.668 42.6458 111.288 42.2344C110.907 41.8177 110.384 41.6094 109.717 41.6094C109.269 41.6094 108.874 41.7057 108.53 41.8984C108.191 42.0911 107.926 42.3724 107.733 42.7422C107.545 43.1068 107.449 43.5469 107.444 44.0625ZM124.184 39V41.5H116.958V39H124.184ZM118.598 36.125H121.926V47.3125C121.926 47.6198 121.973 47.8594 122.067 48.0312C122.161 48.1979 122.291 48.3151 122.458 48.3828C122.629 48.4505 122.827 48.4844 123.051 48.4844C123.208 48.4844 123.364 48.4714 123.52 48.4453C123.676 48.4141 123.796 48.3906 123.879 48.375L124.403 50.8516C124.236 50.9036 124.002 50.9635 123.7 51.0313C123.398 51.1042 123.03 51.1484 122.598 51.1641C121.796 51.1953 121.093 51.0885 120.489 50.8437C119.89 50.599 119.424 50.2187 119.09 49.7031C118.757 49.1875 118.593 48.5365 118.598 47.75V36.125Z" fill="#212B36"/>
<path d="M43.6604 118.011V116.768L48.0602 109.818H49.0396V111.648H48.4182L45.2712 116.629V116.709H51.3017V118.011H43.6604ZM48.4878 120V117.634L48.4977 117.067V109.818H49.9544V120H48.4878ZM56.579 120.169C55.7935 120.166 55.1224 119.959 54.5655 119.548C54.0087 119.137 53.5828 118.538 53.2878 117.753C52.9929 116.967 52.8454 116.021 52.8454 114.914C52.8454 113.81 52.9929 112.867 53.2878 112.085C53.5861 111.303 54.0137 110.706 54.5705 110.295C55.1306 109.884 55.8002 109.679 56.579 109.679C57.3579 109.679 58.0258 109.886 58.5826 110.3C59.1394 110.711 59.5653 111.308 59.8603 112.09C60.1586 112.869 60.3077 113.81 60.3077 114.914C60.3077 116.024 60.1602 116.972 59.8653 117.758C59.5703 118.54 59.1444 119.138 58.5876 119.553C58.0307 119.964 57.3612 120.169 56.579 120.169ZM56.579 118.842C57.2684 118.842 57.807 118.505 58.1948 117.832C58.5859 117.16 58.7815 116.187 58.7815 114.914C58.7815 114.069 58.692 113.355 58.513 112.771C58.3373 112.185 58.0838 111.741 57.7523 111.439C57.4242 111.134 57.0331 110.982 56.579 110.982C55.893 110.982 55.3544 111.32 54.9633 111.996C54.5722 112.672 54.375 113.645 54.3716 114.914C54.3716 115.763 54.4595 116.48 54.6351 117.067C54.8141 117.65 55.0677 118.093 55.3958 118.394C55.7239 118.692 56.1183 118.842 56.579 118.842ZM65.6161 120.169C64.8306 120.166 64.1595 119.959 63.6027 119.548C63.0458 119.137 62.6199 118.538 62.325 117.753C62.03 116.967 61.8825 116.021 61.8825 114.914C61.8825 113.81 62.03 112.867 62.325 112.085C62.6232 111.303 63.0508 110.706 63.6076 110.295C64.1678 109.884 64.8373 109.679 65.6161 109.679C66.395 109.679 67.0629 109.886 67.6197 110.3C68.1765 110.711 68.6024 111.308 68.8974 112.09C69.1957 112.869 69.3448 113.81 69.3448 114.914C69.3448 116.024 69.1973 116.972 68.9024 117.758C68.6074 118.54 68.1815 119.138 67.6247 119.553C67.0678 119.964 66.3983 120.169 65.6161 120.169ZM65.6161 118.842C66.3055 118.842 66.8441 118.505 67.2319 117.832C67.623 117.16 67.8186 116.187 67.8186 114.914C67.8186 114.069 67.7291 113.355 67.5501 112.771C67.3744 112.185 67.1209 111.741 66.7894 111.439C66.4613 111.134 66.0702 110.982 65.6161 110.982C64.9301 110.982 64.3915 111.32 64.0004 111.996C63.6093 112.672 63.4121 113.645 63.4088 114.914C63.4088 115.763 63.4966 116.48 63.6723 117.067C63.8512 117.65 64.1048 118.093 64.4329 118.394C64.761 118.692 65.1554 118.842 65.6161 118.842Z" fill="#64748B"/>
<line x1="112.243" y1="113.5" x2="1004.9" y2="113.5" stroke="#EAEAEA"/>
<path d="M47.5556 175.139C46.8728 175.139 46.263 175.022 45.7261 174.786C45.1924 174.551 44.7698 174.224 44.4583 173.807C44.1501 173.386 43.9843 172.899 43.9611 172.345H45.5222C45.5421 172.647 45.6432 172.909 45.8255 173.131C46.0111 173.349 46.253 173.518 46.5513 173.638C46.8496 173.757 47.1811 173.817 47.5457 173.817C47.9467 173.817 48.3013 173.747 48.6096 173.608C48.9211 173.469 49.1647 173.275 49.3404 173.026C49.5161 172.774 49.6039 172.484 49.6039 172.156C49.6039 171.815 49.5161 171.515 49.3404 171.256C49.1681 170.995 48.9145 170.789 48.5797 170.64C48.2483 170.491 47.8473 170.416 47.3766 170.416H46.5165V169.163H47.3766C47.7545 169.163 48.0859 169.095 48.3709 168.96C48.6593 168.824 48.8847 168.635 49.0471 168.393C49.2095 168.147 49.2907 167.861 49.2907 167.533C49.2907 167.218 49.2194 166.944 49.0769 166.712C48.9377 166.477 48.7388 166.293 48.4803 166.161C48.2251 166.028 47.9235 165.962 47.5755 165.962C47.244 165.962 46.9341 166.023 46.6458 166.146C46.3608 166.265 46.1288 166.437 45.9498 166.663C45.7708 166.885 45.6747 167.152 45.6614 167.463H44.1749C44.1915 166.913 44.3539 166.429 44.6621 166.011C44.9737 165.594 45.3847 165.267 45.8951 165.032C46.4055 164.797 46.9723 164.679 47.5954 164.679C48.2483 164.679 48.8118 164.807 49.2857 165.062C49.763 165.314 50.1309 165.65 50.3894 166.071C50.6512 166.492 50.7805 166.953 50.7772 167.453C50.7805 168.023 50.6214 168.507 50.2999 168.905C49.9817 169.303 49.5575 169.569 49.0272 169.705V169.785C49.7033 169.888 50.227 170.156 50.5982 170.59C50.9727 171.024 51.1583 171.563 51.155 172.206C51.1583 172.766 51.0026 173.268 50.6877 173.712C50.3761 174.156 49.9502 174.506 49.41 174.761C48.8698 175.013 48.2516 175.139 47.5556 175.139ZM56.579 175.169C55.7935 175.166 55.1224 174.959 54.5655 174.548C54.0087 174.137 53.5828 173.538 53.2878 172.753C52.9929 171.967 52.8454 171.021 52.8454 169.914C52.8454 168.81 52.9929 167.867 53.2878 167.085C53.5861 166.303 54.0137 165.706 54.5705 165.295C55.1306 164.884 55.8002 164.679 56.579 164.679C57.3579 164.679 58.0258 164.886 58.5826 165.3C59.1394 165.711 59.5653 166.308 59.8603 167.09C60.1586 167.869 60.3077 168.81 60.3077 169.914C60.3077 171.024 60.1602 171.972 59.8653 172.758C59.5703 173.54 59.1444 174.138 58.5876 174.553C58.0307 174.964 57.3612 175.169 56.579 175.169ZM56.579 173.842C57.2684 173.842 57.807 173.505 58.1948 172.832C58.5859 172.16 58.7815 171.187 58.7815 169.914C58.7815 169.069 58.692 168.355 58.513 167.771C58.3373 167.185 58.0838 166.741 57.7523 166.439C57.4242 166.134 57.0331 165.982 56.579 165.982C55.893 165.982 55.3544 166.32 54.9633 166.996C54.5722 167.672 54.375 168.645 54.3716 169.914C54.3716 170.763 54.4595 171.48 54.6351 172.067C54.8141 172.65 55.0677 173.093 55.3958 173.394C55.7239 173.692 56.1183 173.842 56.579 173.842ZM65.6161 175.169C64.8306 175.166 64.1595 174.959 63.6027 174.548C63.0458 174.137 62.6199 173.538 62.325 172.753C62.03 171.967 61.8825 171.021 61.8825 169.914C61.8825 168.81 62.03 167.867 62.325 167.085C62.6232 166.303 63.0508 165.706 63.6076 165.295C64.1678 164.884 64.8373 164.679 65.6161 164.679C66.395 164.679 67.0629 164.886 67.6197 165.3C68.1765 165.711 68.6024 166.308 68.8974 167.09C69.1957 167.869 69.3448 168.81 69.3448 169.914C69.3448 171.024 69.1973 171.972 68.9024 172.758C68.6074 173.54 68.1815 174.138 67.6247 174.553C67.0678 174.964 66.3983 175.169 65.6161 175.169ZM65.6161 173.842C66.3055 173.842 66.8441 173.505 67.2319 172.832C67.623 172.16 67.8186 171.187 67.8186 169.914C67.8186 169.069 67.7291 168.355 67.5501 167.771C67.3744 167.185 67.1209 166.741 66.7894 166.439C66.4613 166.134 66.0702 165.982 65.6161 165.982C64.9301 165.982 64.3915 166.32 64.0004 166.996C63.6093 167.672 63.4121 168.645 63.4088 169.914C63.4088 170.763 63.4966 171.48 63.6723 172.067C63.8512 172.65 64.1048 173.093 64.4329 173.394C64.761 173.692 65.1554 173.842 65.6161 173.842Z" fill="#64748B"/>
<line x1="112.243" y1="168.5" x2="1004.9" y2="168.5" stroke="#EAEAEA"/>
<path d="M44.4488 230V228.886L47.8941 225.317C48.262 224.929 48.5653 224.589 48.8039 224.298C49.0459 224.003 49.2265 223.723 49.3458 223.457C49.4652 223.192 49.5248 222.911 49.5248 222.612C49.5248 222.274 49.4453 221.982 49.2862 221.737C49.1271 221.489 48.91 221.298 48.6349 221.165C48.3598 221.03 48.0499 220.962 47.7052 220.962C47.3406 220.962 47.0224 221.036 46.7507 221.185C46.4789 221.335 46.2701 221.545 46.1242 221.817C45.9784 222.089 45.9055 222.407 45.9055 222.771H44.4389C44.4389 222.152 44.5814 221.61 44.8664 221.146C45.1515 220.682 45.5426 220.322 46.0397 220.067C46.5369 219.808 47.102 219.679 47.735 219.679C48.3747 219.679 48.9382 219.807 49.4254 220.062C49.9159 220.314 50.2987 220.658 50.5738 221.096C50.8489 221.53 50.9865 222.021 50.9865 222.567C50.9865 222.945 50.9152 223.315 50.7727 223.676C50.6335 224.037 50.3899 224.44 50.0419 224.884C49.6938 225.325 49.2099 225.86 48.5902 226.49L46.5667 228.608V228.683H51.1505V230H44.4488ZM56.5795 230.169C55.794 230.166 55.1228 229.959 54.566 229.548C54.0092 229.137 53.5833 228.538 53.2883 227.753C52.9933 226.967 52.8458 226.021 52.8458 224.914C52.8458 223.81 52.9933 222.867 53.2883 222.085C53.5866 221.303 54.0142 220.706 54.571 220.295C55.1311 219.884 55.8006 219.679 56.5795 219.679C57.3584 219.679 58.0262 219.886 58.5831 220.3C59.1399 220.711 59.5658 221.308 59.8608 222.09C60.159 222.869 60.3082 223.81 60.3082 224.914C60.3082 226.024 60.1607 226.972 59.8657 227.758C59.5707 228.54 59.1448 229.138 58.588 229.553C58.0312 229.964 57.3617 230.169 56.5795 230.169ZM56.5795 228.842C57.2689 228.842 57.8075 228.505 58.1953 227.832C58.5864 227.16 58.7819 226.187 58.7819 224.914C58.7819 224.069 58.6924 223.355 58.5135 222.771C58.3378 222.185 58.0842 221.741 57.7528 221.439C57.4247 221.134 57.0336 220.982 56.5795 220.982C55.8934 220.982 55.3548 221.32 54.9637 221.996C54.5726 222.672 54.3754 223.645 54.3721 224.914C54.3721 225.763 54.4599 226.48 54.6356 227.067C54.8146 227.65 55.0681 228.093 55.3963 228.394C55.7244 228.692 56.1188 228.842 56.5795 228.842ZM65.6166 230.169C64.8311 230.166 64.1599 229.959 63.6031 229.548C63.0463 229.137 62.6204 228.538 62.3254 227.753C62.0304 226.967 61.8829 226.021 61.8829 224.914C61.8829 223.81 62.0304 222.867 62.3254 222.085C62.6237 221.303 63.0513 220.706 63.6081 220.295C64.1682 219.884 64.8377 219.679 65.6166 219.679C66.3955 219.679 67.0633 219.886 67.6202 220.3C68.177 220.711 68.6029 221.308 68.8979 222.09C69.1962 222.869 69.3453 223.81 69.3453 224.914C69.3453 226.024 69.1978 226.972 68.9028 227.758C68.6079 228.54 68.182 229.138 67.6251 229.553C67.0683 229.964 66.3988 230.169 65.6166 230.169ZM65.6166 228.842C66.306 228.842 66.8446 228.505 67.2324 227.832C67.6235 227.16 67.819 226.187 67.819 224.914C67.819 224.069 67.7295 223.355 67.5506 222.771C67.3749 222.185 67.1213 221.741 66.7899 221.439C66.4618 221.134 66.0707 220.982 65.6166 220.982C64.9305 220.982 64.3919 221.32 64.0008 221.996C63.6097 222.672 63.4125 223.645 63.4092 224.914C63.4092 225.763 63.4971 226.48 63.6727 227.067C63.8517 227.65 64.1052 228.093 64.4334 228.394C64.7615 228.692 65.1559 228.842 65.6166 228.842Z" fill="#64748B"/>
<line x1="112.247" y1="223.5" x2="1004.91" y2="223.5" stroke="#EAEAEA"/>
<path d="M50.2795 274.818V285H48.7383V276.359H48.6786L46.2425 277.95V276.479L48.783 274.818H50.2795ZM56.5785 285.169C55.793 285.166 55.1218 284.959 54.565 284.548C54.0082 284.137 53.5823 283.538 53.2873 282.753C52.9923 281.967 52.8448 281.021 52.8448 279.914C52.8448 278.81 52.9923 277.867 53.2873 277.085C53.5856 276.303 54.0131 275.706 54.57 275.295C55.1301 274.884 55.7996 274.679 56.5785 274.679C57.3574 274.679 58.0252 274.886 58.582 275.3C59.1389 275.711 59.5648 276.308 59.8597 277.09C60.158 277.869 60.3072 278.81 60.3072 279.914C60.3072 281.024 60.1597 281.972 59.8647 282.758C59.5697 283.54 59.1438 284.138 58.587 284.553C58.0302 284.964 57.3607 285.169 56.5785 285.169ZM56.5785 283.842C57.2679 283.842 57.8065 283.505 58.1943 282.832C58.5854 282.16 58.7809 281.187 58.7809 279.914C58.7809 279.069 58.6914 278.355 58.5124 277.771C58.3368 277.185 58.0832 276.741 57.7518 276.439C57.4237 276.134 57.0326 275.982 56.5785 275.982C55.8924 275.982 55.3538 276.32 54.9627 276.996C54.5716 277.672 54.3744 278.645 54.3711 279.914C54.3711 280.763 54.4589 281.48 54.6346 282.067C54.8136 282.65 55.0671 283.093 55.3952 283.394C55.7234 283.692 56.1178 283.842 56.5785 283.842ZM65.6156 285.169C64.8301 285.166 64.1589 284.959 63.6021 284.548C63.0453 284.137 62.6194 283.538 62.3244 282.753C62.0294 281.967 61.8819 281.021 61.8819 279.914C61.8819 278.81 62.0294 277.867 62.3244 277.085C62.6227 276.303 63.0503 275.706 63.6071 275.295C64.1672 274.884 64.8367 274.679 65.6156 274.679C66.3945 274.679 67.0623 274.886 67.6191 275.3C68.176 275.711 68.6019 276.308 68.8968 277.09C69.1951 277.869 69.3443 278.81 69.3443 279.914C69.3443 281.024 69.1968 281.972 68.9018 282.758C68.6068 283.54 68.1809 284.138 67.6241 284.553C67.0673 284.964 66.3978 285.169 65.6156 285.169ZM65.6156 283.842C66.305 283.842 66.8436 283.505 67.2314 282.832C67.6225 282.16 67.818 281.187 67.818 279.914C67.818 279.069 67.7285 278.355 67.5495 277.771C67.3739 277.185 67.1203 276.741 66.7889 276.439C66.4608 276.134 66.0697 275.982 65.6156 275.982C64.9295 275.982 64.3909 276.32 63.9998 276.996C63.6087 277.672 63.4115 278.645 63.4082 279.914C63.4082 280.763 63.496 281.48 63.6717 282.067C63.8507 282.65 64.1042 283.093 64.4324 283.394C64.7605 283.692 65.1549 283.842 65.6156 283.842Z" fill="#64748B"/>
<line x1="112.243" y1="278.5" x2="1004.9" y2="278.5" stroke="#EAEAEA"/>
<path d="M56.5437 340.169C55.7582 340.166 55.0871 339.959 54.5303 339.548C53.9734 339.137 53.5475 338.538 53.2526 337.753C52.9576 336.967 52.8101 336.021 52.8101 334.914C52.8101 333.81 52.9576 332.867 53.2526 332.085C53.5509 331.303 53.9784 330.706 54.5352 330.295C55.0954 329.884 55.7649 329.679 56.5437 329.679C57.3226 329.679 57.9905 329.886 58.5473 330.3C59.1041 330.711 59.53 331.308 59.825 332.09C60.1233 332.869 60.2724 333.81 60.2724 334.914C60.2724 336.024 60.125 336.972 59.83 337.758C59.535 338.54 59.1091 339.138 58.5523 339.553C57.9955 339.964 57.3259 340.169 56.5437 340.169ZM56.5437 338.842C57.2331 338.842 57.7717 338.505 58.1595 337.832C58.5506 337.16 58.7462 336.187 58.7462 334.914C58.7462 334.069 58.6567 333.355 58.4777 332.771C58.302 332.185 58.0485 331.741 57.717 331.439C57.3889 331.134 56.9978 330.982 56.5437 330.982C55.8577 330.982 55.3191 331.32 54.928 331.996C54.5369 332.672 54.3397 333.645 54.3364 334.914C54.3364 335.763 54.4242 336.48 54.5999 337.067C54.7788 337.65 55.0324 338.093 55.3605 338.394C55.6886 338.692 56.083 338.842 56.5437 338.842Z" fill="#64748B"/>
<line x1="112.241" y1="333.5" x2="1004.9" y2="333.5" stroke="#EAEAEA"/>
<path d="M205.607 196C205.607 194.343 206.95 193 208.607 193H262.671C264.328 193 265.671 194.343 265.671 196V334H205.607V196Z" fill="#A51535"/>
<path d="M205.688 362V351.818H209.417C210.14 351.818 210.738 351.937 211.212 352.176C211.686 352.411 212.04 352.731 212.276 353.136C212.511 353.537 212.629 353.989 212.629 354.493C212.629 354.917 212.551 355.275 212.395 355.567C212.239 355.855 212.031 356.087 211.769 356.263C211.51 356.435 211.225 356.561 210.914 356.641V356.74C211.252 356.757 211.581 356.866 211.903 357.068C212.228 357.267 212.496 357.55 212.708 357.918C212.92 358.286 213.027 358.734 213.027 359.261C213.027 359.781 212.904 360.248 212.659 360.663C212.417 361.074 212.042 361.4 211.535 361.642C211.028 361.881 210.38 362 209.591 362H205.688ZM207.225 360.683H209.442C210.178 360.683 210.705 360.54 211.023 360.255C211.341 359.97 211.5 359.614 211.5 359.186C211.5 358.865 211.419 358.57 211.257 358.301C211.094 358.033 210.862 357.819 210.561 357.66C210.262 357.501 209.908 357.421 209.497 357.421H207.225V360.683ZM207.225 356.223H209.283C209.628 356.223 209.937 356.157 210.213 356.024C210.491 355.892 210.711 355.706 210.874 355.467C211.04 355.225 211.122 354.94 211.122 354.612C211.122 354.191 210.975 353.838 210.68 353.553C210.385 353.268 209.933 353.126 209.323 353.126H207.225V356.223ZM216.952 362.169C216.468 362.169 216.03 362.08 215.639 361.901C215.248 361.718 214.938 361.455 214.709 361.11C214.484 360.765 214.371 360.343 214.371 359.842C214.371 359.411 214.454 359.057 214.62 358.778C214.786 358.5 215.009 358.28 215.291 358.117C215.573 357.955 215.888 357.832 216.236 357.749C216.584 357.666 216.938 357.603 217.3 357.56C217.757 357.507 218.128 357.464 218.413 357.431C218.698 357.395 218.905 357.337 219.035 357.257C219.164 357.178 219.229 357.048 219.229 356.869V356.835C219.229 356.4 219.106 356.064 218.861 355.825C218.619 355.587 218.257 355.467 217.777 355.467C217.276 355.467 216.882 355.578 216.594 355.8C216.309 356.019 216.111 356.263 216.002 356.531L214.605 356.213C214.771 355.749 215.013 355.375 215.331 355.089C215.652 354.801 216.022 354.592 216.439 354.463C216.857 354.33 217.296 354.264 217.757 354.264C218.062 354.264 218.385 354.301 218.726 354.374C219.071 354.443 219.393 354.572 219.691 354.761C219.993 354.95 220.239 355.22 220.432 355.572C220.624 355.92 220.72 356.372 220.72 356.929V362H219.268V360.956H219.209C219.113 361.148 218.968 361.337 218.776 361.523C218.584 361.708 218.337 361.862 218.035 361.985C217.734 362.108 217.372 362.169 216.952 362.169ZM217.275 360.976C217.686 360.976 218.037 360.895 218.329 360.732C218.624 360.57 218.847 360.358 219 360.096C219.156 359.831 219.234 359.547 219.234 359.246V358.261C219.181 358.314 219.078 358.364 218.925 358.411C218.776 358.454 218.605 358.492 218.413 358.525C218.221 358.555 218.034 358.583 217.851 358.609C217.669 358.633 217.517 358.652 217.394 358.669C217.106 358.705 216.842 358.767 216.604 358.853C216.368 358.939 216.179 359.063 216.037 359.226C215.898 359.385 215.828 359.597 215.828 359.862C215.828 360.23 215.964 360.509 216.236 360.697C216.507 360.883 216.854 360.976 217.275 360.976ZM225.917 362.154C225.177 362.154 224.541 361.987 224.008 361.652C223.477 361.314 223.07 360.848 222.784 360.255C222.499 359.662 222.357 358.982 222.357 358.217C222.357 357.441 222.503 356.757 222.794 356.163C223.086 355.567 223.497 355.101 224.027 354.766C224.558 354.432 225.182 354.264 225.902 354.264C226.482 354.264 226.999 354.372 227.453 354.587C227.907 354.799 228.273 355.098 228.552 355.482C228.833 355.867 229.001 356.316 229.054 356.83H227.607C227.527 356.472 227.345 356.163 227.06 355.905C226.778 355.646 226.4 355.517 225.927 355.517C225.512 355.517 225.149 355.626 224.838 355.845C224.53 356.061 224.289 356.369 224.117 356.77C223.945 357.168 223.858 357.638 223.858 358.182C223.858 358.739 223.943 359.219 224.112 359.624C224.281 360.028 224.52 360.341 224.828 360.563C225.139 360.785 225.506 360.896 225.927 360.896C226.208 360.896 226.463 360.845 226.692 360.742C226.924 360.636 227.118 360.485 227.274 360.29C227.433 360.094 227.544 359.859 227.607 359.584H229.054C229.001 360.078 228.84 360.518 228.571 360.906C228.303 361.294 227.943 361.599 227.493 361.821C227.045 362.043 226.52 362.154 225.917 362.154ZM232.011 359.41L232.001 357.595H232.259L235.302 354.364H237.082L233.611 358.043H233.378L232.011 359.41ZM230.643 362V351.818H232.13V362H230.643ZM235.466 362L232.731 358.371L233.756 357.332L237.29 362H235.466ZM242.261 362V351.818H248.644V353.141H243.797V356.243H248.311V357.56H243.797V360.678H248.704V362H242.261ZM252.063 357.466V362H250.577V354.364H252.004V355.607H252.098C252.274 355.202 252.549 354.877 252.924 354.632C253.301 354.387 253.777 354.264 254.35 354.264C254.871 354.264 255.326 354.374 255.718 354.592C256.109 354.808 256.412 355.129 256.627 355.557C256.843 355.984 256.951 356.513 256.951 357.143V362H255.464V357.322C255.464 356.768 255.32 356.336 255.031 356.024C254.743 355.709 254.347 355.552 253.843 355.552C253.499 355.552 253.192 355.626 252.924 355.776C252.658 355.925 252.448 356.143 252.292 356.432C252.14 356.717 252.063 357.062 252.063 357.466ZM261.803 362.149C261.186 362.149 260.636 361.992 260.152 361.677C259.672 361.359 259.294 360.906 259.019 360.32C258.747 359.73 258.611 359.022 258.611 358.197C258.611 357.371 258.749 356.665 259.024 356.079C259.302 355.492 259.683 355.043 260.167 354.732C260.651 354.42 261.2 354.264 261.813 354.264C262.287 354.264 262.668 354.344 262.956 354.503C263.248 354.659 263.473 354.841 263.632 355.05C263.795 355.259 263.921 355.442 264.01 355.602H264.1V351.818H265.586V362H264.134V360.812H264.01C263.921 360.974 263.791 361.16 263.622 361.369C263.457 361.577 263.228 361.76 262.936 361.915C262.645 362.071 262.267 362.149 261.803 362.149ZM262.131 360.881C262.558 360.881 262.92 360.769 263.215 360.543C263.513 360.315 263.738 359.998 263.891 359.594C264.047 359.189 264.125 358.719 264.125 358.182C264.125 357.652 264.048 357.187 263.896 356.79C263.743 356.392 263.52 356.082 263.225 355.86C262.93 355.638 262.565 355.527 262.131 355.527C261.683 355.527 261.311 355.643 261.012 355.875C260.714 356.107 260.489 356.424 260.336 356.825C260.187 357.226 260.112 357.678 260.112 358.182C260.112 358.692 260.189 359.151 260.341 359.559C260.494 359.967 260.719 360.29 261.017 360.528C261.319 360.764 261.69 360.881 262.131 360.881Z" fill="#64748B"/>
<path d="M364.607 227C364.607 225.343 365.95 224 367.607 224H421.671C423.328 224 424.671 225.343 424.671 227V334H364.607V227Z" fill="#A51535"/>
<path d="M363.513 362V351.818H369.827V353.141H365.049V356.243H369.374V357.56H365.049V362H363.513ZM371.501 362V354.364H372.938V355.577H373.017C373.156 355.166 373.402 354.843 373.753 354.607C374.108 354.369 374.509 354.249 374.956 354.249C375.049 354.249 375.158 354.253 375.284 354.259C375.413 354.266 375.514 354.274 375.587 354.284V355.706C375.528 355.689 375.422 355.671 375.269 355.651C375.117 355.628 374.964 355.616 374.812 355.616C374.461 355.616 374.147 355.691 373.872 355.84C373.6 355.986 373.385 356.19 373.226 356.452C373.067 356.71 372.987 357.005 372.987 357.337V362H371.501ZM379.817 362.154C379.101 362.154 378.476 361.99 377.943 361.662C377.409 361.334 376.995 360.875 376.7 360.285C376.405 359.695 376.257 359.005 376.257 358.217C376.257 357.424 376.405 356.732 376.7 356.138C376.995 355.545 377.409 355.085 377.943 354.756C378.476 354.428 379.101 354.264 379.817 354.264C380.533 354.264 381.158 354.428 381.691 354.756C382.225 355.085 382.639 355.545 382.934 356.138C383.229 356.732 383.377 357.424 383.377 358.217C383.377 359.005 383.229 359.695 382.934 360.285C382.639 360.875 382.225 361.334 381.691 361.662C381.158 361.99 380.533 362.154 379.817 362.154ZM379.822 360.906C380.286 360.906 380.67 360.784 380.975 360.538C381.28 360.293 381.506 359.967 381.652 359.559C381.801 359.151 381.875 358.702 381.875 358.212C381.875 357.724 381.801 357.277 381.652 356.869C381.506 356.458 381.28 356.129 380.975 355.88C380.67 355.631 380.286 355.507 379.822 355.507C379.355 355.507 378.967 355.631 378.659 355.88C378.354 356.129 378.127 356.458 377.977 356.869C377.832 357.277 377.759 357.724 377.759 358.212C377.759 358.702 377.832 359.151 377.977 359.559C378.127 359.967 378.354 360.293 378.659 360.538C378.967 360.784 379.355 360.906 379.822 360.906ZM386.522 357.466V362H385.036V354.364H386.463V355.607H386.557C386.733 355.202 387.008 354.877 387.383 354.632C387.76 354.387 388.236 354.264 388.809 354.264C389.33 354.264 389.785 354.374 390.177 354.592C390.568 354.808 390.871 355.129 391.086 355.557C391.302 355.984 391.409 356.513 391.409 357.143V362H389.923V357.322C389.923 356.768 389.779 356.336 389.49 356.024C389.202 355.709 388.806 355.552 388.302 355.552C387.958 355.552 387.651 355.626 387.383 355.776C387.117 355.925 386.907 356.143 386.751 356.432C386.599 356.717 386.522 357.062 386.522 357.466ZM396.968 354.364V355.557H392.797V354.364H396.968ZM393.915 352.534H395.402V359.758C395.402 360.046 395.445 360.263 395.531 360.409C395.617 360.552 395.728 360.649 395.864 360.702C396.003 360.752 396.154 360.777 396.316 360.777C396.436 360.777 396.54 360.769 396.63 360.752C396.719 360.736 396.789 360.722 396.838 360.712L397.107 361.94C397.021 361.973 396.898 362.007 396.739 362.04C396.58 362.076 396.381 362.096 396.142 362.099C395.751 362.106 395.387 362.036 395.049 361.891C394.711 361.745 394.437 361.519 394.228 361.214C394.02 360.91 393.915 360.527 393.915 360.066V352.534ZM402.436 362V351.818H408.82V353.141H403.973V356.243H408.487V357.56H403.973V360.678H408.88V362H402.436ZM412.239 357.466V362H410.753V354.364H412.18V355.607H412.274C412.45 355.202 412.725 354.877 413.099 354.632C413.477 354.387 413.953 354.264 414.526 354.264C415.047 354.264 415.502 354.374 415.893 354.592C416.284 354.808 416.588 355.129 416.803 355.557C417.019 355.984 417.126 356.513 417.126 357.143V362H415.64V357.322C415.64 356.768 415.496 356.336 415.207 356.024C414.919 355.709 414.523 355.552 414.019 355.552C413.674 355.552 413.368 355.626 413.099 355.776C412.834 355.925 412.624 356.143 412.468 356.432C412.315 356.717 412.239 357.062 412.239 357.466ZM421.979 362.149C421.362 362.149 420.812 361.992 420.328 361.677C419.847 361.359 419.47 360.906 419.194 360.32C418.923 359.73 418.787 359.022 418.787 358.197C418.787 357.371 418.924 356.665 419.199 356.079C419.478 355.492 419.859 355.043 420.343 354.732C420.827 354.42 421.375 354.264 421.989 354.264C422.462 354.264 422.844 354.344 423.132 354.503C423.424 354.659 423.649 354.841 423.808 355.05C423.971 355.259 424.096 355.442 424.186 355.602H424.275V351.818H425.762V362H424.31V360.812H424.186C424.096 360.974 423.967 361.16 423.798 361.369C423.632 361.577 423.404 361.76 423.112 361.915C422.82 362.071 422.443 362.149 421.979 362.149ZM422.307 360.881C422.734 360.881 423.096 360.769 423.39 360.543C423.689 360.315 423.914 359.998 424.067 359.594C424.222 359.189 424.3 358.719 424.3 358.182C424.3 357.652 424.224 357.187 424.072 356.79C423.919 356.392 423.695 356.082 423.4 355.86C423.105 355.638 422.741 355.527 422.307 355.527C421.859 355.527 421.486 355.643 421.188 355.875C420.89 356.107 420.664 356.424 420.512 356.825C420.363 357.226 420.288 357.678 420.288 358.182C420.288 358.692 420.364 359.151 420.517 359.559C420.669 359.967 420.895 360.29 421.193 360.528C421.495 360.764 421.866 360.881 422.307 360.881Z" fill="#64748B"/>
<path d="M523.607 167C523.607 165.343 524.95 164 526.607 164H580.671C582.328 164 583.671 165.343 583.671 167V334H523.607V167Z" fill="#A51535"/>
<path d="M497.621 358.699H499.132L500.196 360.086L500.698 360.702L502.393 362.915H500.822L499.689 361.438L499.301 360.901L497.621 358.699ZM502.721 356.909C502.721 357.996 502.523 358.931 502.125 359.713C501.727 360.492 501.182 361.092 500.489 361.513C499.8 361.93 499.016 362.139 498.138 362.139C497.256 362.139 496.469 361.93 495.776 361.513C495.087 361.092 494.543 360.49 494.145 359.708C493.748 358.926 493.549 357.993 493.549 356.909C493.549 355.822 493.748 354.889 494.145 354.11C494.543 353.328 495.087 352.728 495.776 352.31C496.469 351.889 497.256 351.679 498.138 351.679C499.016 351.679 499.8 351.889 500.489 352.31C501.182 352.728 501.727 353.328 502.125 354.11C502.523 354.889 502.721 355.822 502.721 356.909ZM501.2 356.909C501.2 356.08 501.066 355.383 500.797 354.816C500.532 354.246 500.168 353.815 499.704 353.523C499.243 353.228 498.721 353.081 498.138 353.081C497.551 353.081 497.027 353.228 496.567 353.523C496.106 353.815 495.741 354.246 495.473 354.816C495.208 355.383 495.075 356.08 495.075 356.909C495.075 357.738 495.208 358.437 495.473 359.007C495.741 359.574 496.106 360.005 496.567 360.3C497.027 360.591 497.551 360.737 498.138 360.737C498.721 360.737 499.243 360.591 499.704 360.3C500.168 360.005 500.532 359.574 500.797 359.007C501.066 358.437 501.2 357.738 501.2 356.909ZM509.355 358.833V354.364H510.846V362H509.385V360.678H509.305C509.129 361.085 508.848 361.425 508.46 361.697C508.075 361.965 507.596 362.099 507.023 362.099C506.533 362.099 506.098 361.992 505.72 361.776C505.346 361.558 505.051 361.234 504.836 360.807C504.623 360.379 504.517 359.851 504.517 359.221V354.364H506.004V359.042C506.004 359.562 506.148 359.977 506.436 360.285C506.725 360.593 507.099 360.747 507.56 360.747C507.838 360.747 508.115 360.678 508.39 360.538C508.669 360.399 508.899 360.189 509.081 359.907C509.267 359.625 509.358 359.267 509.355 358.833ZM515.066 362.169C514.582 362.169 514.144 362.08 513.753 361.901C513.362 361.718 513.052 361.455 512.824 361.11C512.598 360.765 512.486 360.343 512.486 359.842C512.486 359.411 512.568 359.057 512.734 358.778C512.9 358.5 513.124 358.28 513.405 358.117C513.687 357.955 514.002 357.832 514.35 357.749C514.698 357.666 515.053 357.603 515.414 357.56C515.871 357.507 516.242 357.464 516.527 357.431C516.813 357.395 517.02 357.337 517.149 357.257C517.278 357.178 517.343 357.048 517.343 356.869V356.835C517.343 356.4 517.22 356.064 516.975 355.825C516.733 355.587 516.372 355.467 515.891 355.467C515.391 355.467 514.996 355.578 514.708 355.8C514.423 356.019 514.226 356.263 514.116 356.531L512.719 356.213C512.885 355.749 513.127 355.375 513.445 355.089C513.767 354.801 514.136 354.592 514.554 354.463C514.971 354.33 515.411 354.264 515.871 354.264C516.176 354.264 516.499 354.301 516.841 354.374C517.185 354.443 517.507 354.572 517.805 354.761C518.107 354.95 518.354 355.22 518.546 355.572C518.738 355.92 518.834 356.372 518.834 356.929V362H517.383V360.956H517.323C517.227 361.148 517.083 361.337 516.89 361.523C516.698 361.708 516.451 361.862 516.15 361.985C515.848 362.108 515.487 362.169 515.066 362.169ZM515.389 360.976C515.8 360.976 516.151 360.895 516.443 360.732C516.738 360.57 516.962 360.358 517.114 360.096C517.27 359.831 517.348 359.547 517.348 359.246V358.261C517.295 358.314 517.192 358.364 517.04 358.411C516.89 358.454 516.72 358.492 516.527 358.525C516.335 358.555 516.148 358.583 515.966 358.609C515.783 358.633 515.631 358.652 515.508 358.669C515.22 358.705 514.956 358.767 514.718 358.853C514.482 358.939 514.294 359.063 514.151 359.226C514.012 359.385 513.942 359.597 513.942 359.862C513.942 360.23 514.078 360.509 514.35 360.697C514.622 360.883 514.968 360.976 515.389 360.976ZM522.301 351.818V362H520.814V351.818H522.301ZM524.301 362V354.364H525.787V362H524.301ZM525.051 353.185C524.793 353.185 524.571 353.099 524.385 352.927C524.203 352.751 524.112 352.542 524.112 352.3C524.112 352.055 524.203 351.846 524.385 351.674C524.571 351.498 524.793 351.411 525.051 351.411C525.31 351.411 525.53 351.498 525.712 351.674C525.898 351.846 525.991 352.055 525.991 352.3C525.991 352.542 525.898 352.751 525.712 352.927C525.53 353.099 525.31 353.185 525.051 353.185ZM531.352 354.364V355.557H527.18V354.364H531.352ZM528.299 352.534H529.785V359.758C529.785 360.046 529.829 360.263 529.915 360.409C530.001 360.552 530.112 360.649 530.248 360.702C530.387 360.752 530.538 360.777 530.7 360.777C530.82 360.777 530.924 360.769 531.013 360.752C531.103 360.736 531.173 360.722 531.222 360.712L531.491 361.94C531.405 361.973 531.282 362.007 531.123 362.04C530.964 362.076 530.765 362.096 530.526 362.099C530.135 362.106 529.771 362.036 529.432 361.891C529.094 361.745 528.821 361.519 528.612 361.214C528.403 360.91 528.299 360.527 528.299 360.066V352.534ZM533.936 364.864C533.713 364.864 533.511 364.845 533.329 364.809C533.147 364.776 533.011 364.739 532.921 364.7L533.279 363.482C533.551 363.554 533.793 363.586 534.005 363.576C534.217 363.566 534.404 363.487 534.567 363.337C534.733 363.188 534.878 362.945 535.004 362.607L535.188 362.099L532.394 354.364H533.985L535.919 360.29H535.999L537.933 354.364H539.529L536.382 363.019C536.236 363.417 536.05 363.753 535.825 364.028C535.599 364.307 535.331 364.516 535.019 364.655C534.708 364.794 534.346 364.864 533.936 364.864ZM545.61 362H543.979L547.643 351.818H549.418L553.082 362H551.452L548.573 353.668H548.494L545.61 362ZM545.883 358.013H551.173V359.305H545.883V358.013ZM560.101 356.228L558.754 356.467C558.697 356.294 558.608 356.13 558.485 355.974C558.366 355.819 558.203 355.691 557.998 355.592C557.793 355.492 557.536 355.442 557.227 355.442C556.806 355.442 556.455 355.537 556.173 355.726C555.892 355.911 555.751 356.152 555.751 356.447C555.751 356.702 555.845 356.907 556.034 357.063C556.223 357.219 556.528 357.347 556.949 357.446L558.162 357.724C558.865 357.887 559.388 358.137 559.733 358.475C560.078 358.813 560.25 359.252 560.25 359.793C560.25 360.25 560.118 360.658 559.852 361.016C559.591 361.37 559.224 361.649 558.754 361.851C558.286 362.053 557.744 362.154 557.128 362.154C556.273 362.154 555.575 361.972 555.035 361.607C554.495 361.239 554.163 360.717 554.041 360.041L555.477 359.822C555.567 360.197 555.751 360.48 556.029 360.673C556.308 360.862 556.671 360.956 557.118 360.956C557.605 360.956 557.995 360.855 558.286 360.653C558.578 360.447 558.724 360.197 558.724 359.902C558.724 359.663 558.634 359.463 558.455 359.3C558.28 359.138 558.01 359.015 557.645 358.933L556.352 358.649C555.64 358.487 555.113 358.228 554.771 357.874C554.433 357.519 554.264 357.07 554.264 356.526C554.264 356.076 554.39 355.681 554.642 355.343C554.894 355.005 555.242 354.741 555.686 354.553C556.13 354.36 556.639 354.264 557.212 354.264C558.038 354.264 558.687 354.443 559.161 354.801C559.635 355.156 559.949 355.631 560.101 356.228ZM567.607 356.228L566.26 356.467C566.203 356.294 566.114 356.13 565.991 355.974C565.872 355.819 565.709 355.691 565.504 355.592C565.298 355.492 565.042 355.442 564.733 355.442C564.312 355.442 563.961 355.537 563.679 355.726C563.398 355.911 563.257 356.152 563.257 356.447C563.257 356.702 563.351 356.907 563.54 357.063C563.729 357.219 564.034 357.347 564.455 357.446L565.668 357.724C566.371 357.887 566.894 358.137 567.239 358.475C567.584 358.813 567.756 359.252 567.756 359.793C567.756 360.25 567.623 360.658 567.358 361.016C567.096 361.37 566.73 361.649 566.26 361.851C565.792 362.053 565.25 362.154 564.634 362.154C563.779 362.154 563.081 361.972 562.541 361.607C562.001 361.239 561.669 360.717 561.546 360.041L562.983 359.822C563.073 360.197 563.257 360.48 563.535 360.673C563.814 360.862 564.176 360.956 564.624 360.956C565.111 360.956 565.501 360.855 565.792 360.653C566.084 360.447 566.23 360.197 566.23 359.902C566.23 359.663 566.14 359.463 565.961 359.3C565.786 359.138 565.515 359.015 565.151 358.933L563.858 358.649C563.146 358.487 562.619 358.228 562.277 357.874C561.939 357.519 561.77 357.07 561.77 356.526C561.77 356.076 561.896 355.681 562.148 355.343C562.4 355.005 562.748 354.741 563.192 354.553C563.636 354.36 564.145 354.264 564.718 354.264C565.544 354.264 566.193 354.443 566.667 354.801C567.141 355.156 567.454 355.631 567.607 356.228ZM574.228 358.833V354.364H575.719V362H574.258V360.678H574.178C574.002 361.085 573.721 361.425 573.333 361.697C572.948 361.965 572.469 362.099 571.896 362.099C571.406 362.099 570.971 361.992 570.594 361.776C570.219 361.558 569.924 361.234 569.709 360.807C569.496 360.379 569.39 359.851 569.39 359.221V354.364H570.877V359.042C570.877 359.562 571.021 359.977 571.309 360.285C571.598 360.593 571.972 360.747 572.433 360.747C572.711 360.747 572.988 360.678 573.263 360.538C573.542 360.399 573.772 360.189 573.954 359.907C574.14 359.625 574.231 359.267 574.228 358.833ZM577.717 362V354.364H579.153V355.577H579.233C579.372 355.166 579.617 354.843 579.969 354.607C580.323 354.369 580.724 354.249 581.172 354.249C581.265 354.249 581.374 354.253 581.5 354.259C581.629 354.266 581.73 354.274 581.803 354.284V355.706C581.744 355.689 581.638 355.671 581.485 355.651C581.333 355.628 581.18 355.616 581.028 355.616C580.676 355.616 580.363 355.691 580.088 355.84C579.816 355.986 579.601 356.19 579.442 356.452C579.283 356.71 579.203 357.005 579.203 357.337V362H577.717ZM585.244 362.169C584.76 362.169 584.322 362.08 583.931 361.901C583.54 361.718 583.23 361.455 583.001 361.11C582.776 360.765 582.663 360.343 582.663 359.842C582.663 359.411 582.746 359.057 582.912 358.778C583.078 358.5 583.301 358.28 583.583 358.117C583.865 357.955 584.18 357.832 584.528 357.749C584.876 357.666 585.23 357.603 585.592 357.56C586.049 357.507 586.42 357.464 586.705 357.431C586.99 357.395 587.197 357.337 587.327 357.257C587.456 357.178 587.521 357.048 587.521 356.869V356.835C587.521 356.4 587.398 356.064 587.153 355.825C586.911 355.587 586.549 355.467 586.069 355.467C585.568 355.467 585.174 355.578 584.886 355.8C584.601 356.019 584.403 356.263 584.294 356.531L582.897 356.213C583.063 355.749 583.305 355.375 583.623 355.089C583.944 354.801 584.314 354.592 584.731 354.463C585.149 354.33 585.588 354.264 586.049 354.264C586.354 354.264 586.677 354.301 587.018 354.374C587.363 354.443 587.685 354.572 587.983 354.761C588.285 354.95 588.531 355.22 588.724 355.572C588.916 355.92 589.012 356.372 589.012 356.929V362H587.56V360.956H587.501C587.405 361.148 587.26 361.337 587.068 361.523C586.876 361.708 586.629 361.862 586.327 361.985C586.026 362.108 585.664 362.169 585.244 362.169ZM585.567 360.976C585.978 360.976 586.329 360.895 586.621 360.732C586.916 360.57 587.139 360.358 587.292 360.096C587.448 359.831 587.526 359.547 587.526 359.246V358.261C587.472 358.314 587.37 358.364 587.217 358.411C587.068 358.454 586.897 358.492 586.705 358.525C586.513 358.555 586.326 358.583 586.143 358.609C585.961 358.633 585.809 358.652 585.686 358.669C585.398 358.705 585.134 358.767 584.896 358.853C584.66 358.939 584.471 359.063 584.329 359.226C584.19 359.385 584.12 359.597 584.12 359.862C584.12 360.23 584.256 360.509 584.528 360.697C584.799 360.883 585.146 360.976 585.567 360.976ZM592.478 357.466V362H590.992V354.364H592.419V355.607H592.513C592.689 355.202 592.964 354.877 593.339 354.632C593.716 354.387 594.192 354.264 594.765 354.264C595.286 354.264 595.741 354.374 596.133 354.592C596.524 354.808 596.827 355.129 597.042 355.557C597.258 355.984 597.366 356.513 597.366 357.143V362H595.879V357.322C595.879 356.768 595.735 356.336 595.447 356.024C595.158 355.709 594.762 355.552 594.258 355.552C593.914 355.552 593.607 355.626 593.339 355.776C593.073 355.925 592.863 356.143 592.707 356.432C592.555 356.717 592.478 357.062 592.478 357.466ZM602.576 362.154C601.837 362.154 601.2 361.987 600.667 361.652C600.136 361.314 599.729 360.848 599.444 360.255C599.159 359.662 599.016 358.982 599.016 358.217C599.016 357.441 599.162 356.757 599.454 356.163C599.745 355.567 600.156 355.101 600.687 354.766C601.217 354.432 601.842 354.264 602.561 354.264C603.141 354.264 603.658 354.372 604.112 354.587C604.566 354.799 604.932 355.098 605.211 355.482C605.492 355.867 605.66 356.316 605.713 356.83H604.266C604.187 356.472 604.004 356.163 603.719 355.905C603.438 355.646 603.06 355.517 602.586 355.517C602.171 355.517 601.808 355.626 601.497 355.845C601.189 356.061 600.948 356.369 600.776 356.77C600.604 357.168 600.518 357.638 600.518 358.182C600.518 358.739 600.602 359.219 600.771 359.624C600.94 360.028 601.179 360.341 601.487 360.563C601.799 360.785 602.165 360.896 602.586 360.896C602.867 360.896 603.123 360.845 603.351 360.742C603.583 360.636 603.777 360.485 603.933 360.29C604.092 360.094 604.203 359.859 604.266 359.584H605.713C605.66 360.078 605.499 360.518 605.231 360.906C604.962 361.294 604.603 361.599 604.152 361.821C603.704 362.043 603.179 362.154 602.576 362.154ZM610.594 362.154C609.841 362.154 609.193 361.993 608.65 361.672C608.11 361.347 607.692 360.891 607.397 360.305C607.105 359.715 606.959 359.024 606.959 358.232C606.959 357.449 607.105 356.76 607.397 356.163C607.692 355.567 608.103 355.101 608.63 354.766C609.16 354.432 609.78 354.264 610.489 354.264C610.92 354.264 611.338 354.335 611.742 354.478C612.146 354.621 612.509 354.844 612.831 355.149C613.152 355.454 613.406 355.85 613.592 356.337C613.777 356.821 613.87 357.41 613.87 358.102V358.629H607.8V357.516H612.413C612.413 357.125 612.334 356.778 612.175 356.477C612.016 356.172 611.792 355.931 611.504 355.756C611.218 355.58 610.884 355.492 610.499 355.492C610.082 355.492 609.717 355.595 609.405 355.8C609.097 356.003 608.859 356.268 608.69 356.596C608.524 356.921 608.441 357.274 608.441 357.655V358.525C608.441 359.035 608.53 359.469 608.709 359.827C608.892 360.185 609.145 360.459 609.47 360.648C609.795 360.833 610.174 360.926 610.609 360.926C610.89 360.926 611.147 360.886 611.379 360.807C611.611 360.724 611.812 360.601 611.981 360.439C612.15 360.277 612.279 360.076 612.369 359.837L613.776 360.091C613.663 360.505 613.461 360.868 613.169 361.18C612.881 361.488 612.518 361.728 612.08 361.901C611.646 362.07 611.151 362.154 610.594 362.154Z" fill="#64748B"/>
<path d="M682.607 267C682.607 265.343 683.95 264 685.607 264H739.671C741.328 264 742.671 265.343 742.671 267V334H682.607V267Z" fill="#A51535"/>
<path d="M700.864 351.818H702.405V358.515C702.405 359.228 702.238 359.859 701.903 360.409C701.568 360.956 701.098 361.387 700.491 361.702C699.885 362.013 699.174 362.169 698.358 362.169C697.546 362.169 696.837 362.013 696.23 361.702C695.624 361.387 695.153 360.956 694.818 360.409C694.484 359.859 694.316 359.228 694.316 358.515V351.818H695.853V358.391C695.853 358.851 695.954 359.261 696.156 359.619C696.361 359.977 696.651 360.258 697.026 360.464C697.4 360.666 697.845 360.767 698.358 360.767C698.875 360.767 699.321 360.666 699.696 360.464C700.073 360.258 700.362 359.977 700.561 359.619C700.763 359.261 700.864 358.851 700.864 358.391V351.818ZM706.175 351.818V362H704.639V351.818H706.175ZM712.171 351.341L708.889 363.531H707.562L710.843 351.341H712.171ZM720.1 351.818H721.641V358.515C721.641 359.228 721.474 359.859 721.139 360.409C720.805 360.956 720.334 361.387 719.727 361.702C719.121 362.013 718.41 362.169 717.595 362.169C716.783 362.169 716.073 362.013 715.467 361.702C714.86 361.387 714.39 360.956 714.055 360.409C713.72 359.859 713.553 359.228 713.553 358.515V351.818H715.089V358.391C715.089 358.851 715.19 359.261 715.392 359.619C715.598 359.977 715.888 360.258 716.262 360.464C716.637 360.666 717.081 360.767 717.595 360.767C718.112 360.767 718.557 360.666 718.932 360.464C719.31 360.258 719.598 359.977 719.797 359.619C719.999 359.261 720.1 358.851 720.1 358.391V351.818ZM724.944 351.818L727.38 355.8H727.459L729.896 351.818H731.675L728.504 356.909L731.695 362H729.905L727.459 358.072H727.38L724.934 362H723.144L726.391 356.909L723.164 351.818H724.944Z" fill="#64748B"/>
<rect x="196" y="139" width="80" height="35" rx="12" fill="black"/>
<path d="M235.5 189L228.139 179.25H242.861L235.5 189Z" fill="black"/>
<path d="M221.943 163V161.227L226.085 157.392C226.438 157.051 226.733 156.744 226.972 156.472C227.214 156.199 227.398 155.932 227.523 155.67C227.648 155.405 227.71 155.119 227.71 154.812C227.71 154.472 227.633 154.178 227.477 153.932C227.322 153.682 227.11 153.491 226.841 153.358C226.572 153.222 226.267 153.153 225.926 153.153C225.57 153.153 225.259 153.225 224.994 153.369C224.729 153.513 224.525 153.72 224.381 153.989C224.237 154.258 224.165 154.578 224.165 154.949H221.83C221.83 154.187 222.002 153.527 222.347 152.966C222.691 152.405 223.174 151.972 223.795 151.665C224.417 151.358 225.133 151.205 225.943 151.205C226.777 151.205 227.502 151.352 228.119 151.648C228.741 151.939 229.223 152.345 229.568 152.864C229.913 153.383 230.085 153.977 230.085 154.648C230.085 155.087 229.998 155.521 229.824 155.949C229.653 156.377 229.348 156.852 228.909 157.375C228.47 157.894 227.85 158.517 227.051 159.244L225.352 160.909V160.989H230.239V163H221.943ZM237.362 163.159C236.487 163.159 235.709 163.017 235.027 162.733C234.349 162.445 233.817 162.053 233.43 161.557C233.044 161.061 232.851 160.498 232.851 159.869C232.851 159.384 232.961 158.939 233.18 158.534C233.404 158.125 233.707 157.786 234.089 157.517C234.472 157.244 234.9 157.07 235.374 156.994V156.915C234.752 156.79 234.249 156.489 233.862 156.011C233.476 155.53 233.283 154.972 233.283 154.335C233.283 153.733 233.459 153.197 233.811 152.727C234.163 152.254 234.646 151.883 235.26 151.614C235.877 151.341 236.578 151.205 237.362 151.205C238.146 151.205 238.845 151.341 239.459 151.614C240.076 151.886 240.561 152.259 240.913 152.733C241.266 153.203 241.444 153.737 241.447 154.335C241.444 154.975 241.247 155.534 240.857 156.011C240.466 156.489 239.966 156.79 239.357 156.915V156.994C239.822 157.07 240.245 157.244 240.624 157.517C241.006 157.786 241.309 158.125 241.533 158.534C241.76 158.939 241.875 159.384 241.879 159.869C241.875 160.498 241.68 161.061 241.294 161.557C240.908 162.053 240.374 162.445 239.692 162.733C239.014 163.017 238.237 163.159 237.362 163.159ZM237.362 161.352C237.752 161.352 238.093 161.282 238.385 161.142C238.677 160.998 238.904 160.801 239.067 160.551C239.233 160.297 239.317 160.006 239.317 159.676C239.317 159.339 239.232 159.042 239.061 158.784C238.891 158.523 238.66 158.318 238.368 158.17C238.076 158.019 237.741 157.943 237.362 157.943C236.987 157.943 236.652 158.019 236.357 158.17C236.061 158.318 235.828 158.523 235.658 158.784C235.491 159.042 235.408 159.339 235.408 159.676C235.408 160.006 235.489 160.297 235.652 160.551C235.815 160.801 236.044 160.998 236.339 161.142C236.635 161.282 236.976 161.352 237.362 161.352ZM237.362 156.153C237.688 156.153 237.978 156.087 238.232 155.955C238.485 155.822 238.684 155.638 238.828 155.403C238.972 155.169 239.044 154.898 239.044 154.591C239.044 154.288 238.972 154.023 238.828 153.795C238.684 153.564 238.487 153.384 238.237 153.256C237.987 153.123 237.696 153.057 237.362 153.057C237.033 153.057 236.741 153.123 236.487 153.256C236.233 153.384 236.035 153.564 235.891 153.795C235.75 154.023 235.68 154.288 235.68 154.591C235.68 154.898 235.752 155.169 235.896 155.403C236.04 155.638 236.239 155.822 236.493 155.955C236.747 156.087 237.036 156.153 237.362 156.153ZM248.81 151.205C249.408 151.205 249.984 151.305 250.537 151.506C251.094 151.706 251.59 152.027 252.026 152.466C252.465 152.905 252.812 153.489 253.065 154.216C253.323 154.939 253.454 155.828 253.457 156.881C253.457 157.869 253.346 158.752 253.122 159.528C252.902 160.301 252.586 160.958 252.173 161.5C251.76 162.042 251.262 162.455 250.679 162.739C250.096 163.019 249.444 163.159 248.724 163.159C247.948 163.159 247.262 163.009 246.668 162.71C246.073 162.407 245.594 161.996 245.23 161.477C244.87 160.955 244.652 160.367 244.577 159.716H247.003C247.098 160.14 247.296 160.47 247.599 160.705C247.902 160.936 248.277 161.051 248.724 161.051C249.482 161.051 250.058 160.722 250.452 160.062C250.846 159.4 251.045 158.492 251.048 157.341H250.969C250.795 157.682 250.56 157.975 250.264 158.222C249.969 158.464 249.63 158.652 249.247 158.784C248.868 158.917 248.465 158.983 248.037 158.983C247.351 158.983 246.74 158.822 246.202 158.5C245.664 158.178 245.24 157.735 244.929 157.17C244.618 156.606 244.463 155.962 244.463 155.239C244.459 154.458 244.639 153.763 245.003 153.153C245.366 152.544 245.874 152.066 246.526 151.722C247.181 151.373 247.942 151.201 248.81 151.205ZM248.827 153.136C248.444 153.136 248.103 153.227 247.804 153.409C247.509 153.591 247.274 153.835 247.099 154.142C246.929 154.449 246.846 154.792 246.849 155.17C246.849 155.553 246.933 155.898 247.099 156.205C247.27 156.508 247.501 156.75 247.793 156.932C248.088 157.11 248.425 157.199 248.804 157.199C249.088 157.199 249.351 157.146 249.594 157.04C249.836 156.934 250.046 156.788 250.224 156.602C250.406 156.413 250.548 156.195 250.651 155.949C250.753 155.703 250.804 155.441 250.804 155.165C250.8 154.797 250.713 154.46 250.543 154.153C250.372 153.847 250.137 153.6 249.838 153.415C249.539 153.229 249.202 153.136 248.827 153.136Z" fill="white"/>
</svg>
