<svg width="93" height="44" viewBox="0 0 93 44" fill="none" xmlns="http://www.w3.org/2000/svg">
<g filter="url(#filter0_d_1_10601)">
<rect x="2" y="1" width="89" height="40" rx="4" fill="white" shape-rendering="crispEdges"/>
<rect x="2.5" y="1.5" width="88" height="39" rx="3.5" stroke="#E2E8F0" shape-rendering="crispEdges"/>
<path d="M21.4148 26H18.1186V15.8182H21.5192C22.5168 15.8182 23.3736 16.022 24.0895 16.4297C24.8054 16.834 25.3539 17.4157 25.7351 18.1747C26.1196 18.9304 26.3118 19.8369 26.3118 20.8942C26.3118 21.9548 26.1179 22.8662 25.7301 23.6286C25.3456 24.3909 24.7888 24.9775 24.0597 25.3885C23.3305 25.7962 22.4489 26 21.4148 26ZM19.6548 24.6577H21.3303C22.1058 24.6577 22.7505 24.5118 23.2642 24.2202C23.7779 23.9252 24.1624 23.4993 24.4176 22.9425C24.6728 22.3823 24.8004 21.6996 24.8004 20.8942C24.8004 20.0954 24.6728 19.4176 24.4176 18.8608C24.1657 18.304 23.7895 17.8814 23.2891 17.593C22.7886 17.3047 22.1671 17.1605 21.4247 17.1605H19.6548V24.6577ZM30.3251 26.169C29.8412 26.169 29.4037 26.0795 29.0126 25.9006C28.6215 25.7183 28.3116 25.4548 28.0829 25.1101C27.8575 24.7654 27.7449 24.3428 27.7449 23.8423C27.7449 23.4115 27.8277 23.0568 27.9934 22.7784C28.1592 22.5 28.3829 22.2796 28.6646 22.1172C28.9463 21.9548 29.2612 21.8321 29.6092 21.7493C29.9572 21.6664 30.3118 21.6035 30.6731 21.5604C31.1305 21.5073 31.5017 21.4643 31.7868 21.4311C32.0718 21.3946 32.2789 21.3366 32.4082 21.2571C32.5375 21.1776 32.6021 21.0483 32.6021 20.8693V20.8345C32.6021 20.4003 32.4795 20.0639 32.2342 19.8253C31.9922 19.5866 31.631 19.4673 31.1504 19.4673C30.6499 19.4673 30.2555 19.5784 29.9672 19.8004C29.6821 20.0192 29.4849 20.2628 29.3755 20.5312L27.9785 20.2131C28.1442 19.7491 28.3862 19.3745 28.7044 19.0895C29.0259 18.8011 29.3954 18.5923 29.813 18.4631C30.2306 18.3305 30.6698 18.2642 31.1305 18.2642C31.4354 18.2642 31.7586 18.3007 32.1 18.3736C32.4447 18.4432 32.7662 18.5724 33.0645 18.7614C33.3661 18.9503 33.613 19.2204 33.8052 19.5717C33.9975 19.9197 34.0936 20.3722 34.0936 20.929V26H32.6419V24.956H32.5822C32.4861 25.1482 32.3419 25.3371 32.1497 25.5227C31.9574 25.7083 31.7105 25.8625 31.4089 25.9851C31.1073 26.1077 30.746 26.169 30.3251 26.169ZM30.6483 24.9759C31.0592 24.9759 31.4106 24.8946 31.7022 24.7322C31.9972 24.5698 32.2209 24.3577 32.3734 24.0959C32.5292 23.8307 32.6071 23.5473 32.6071 23.2457V22.2614C32.554 22.3144 32.4513 22.3641 32.2988 22.4105C32.1497 22.4536 31.979 22.4917 31.7868 22.5249C31.5945 22.5547 31.4073 22.5829 31.225 22.6094C31.0427 22.6326 30.8902 22.6525 30.7676 22.669C30.4792 22.7055 30.2157 22.7668 29.9771 22.853C29.7418 22.9392 29.5529 23.0634 29.4103 23.2259C29.2711 23.3849 29.2015 23.5971 29.2015 23.8622C29.2015 24.2301 29.3374 24.5085 29.6092 24.6974C29.881 24.883 30.2273 24.9759 30.6483 24.9759ZM36.0735 26V18.3636H37.56V26H36.0735ZM36.8242 17.1854C36.5657 17.1854 36.3436 17.0992 36.158 16.9268C35.9757 16.7512 35.8846 16.5424 35.8846 16.3004C35.8846 16.0552 35.9757 15.8464 36.158 15.674C36.3436 15.4983 36.5657 15.4105 36.8242 15.4105C37.0827 15.4105 37.3031 15.4983 37.4854 15.674C37.671 15.8464 37.7638 16.0552 37.7638 16.3004C37.7638 16.5424 37.671 16.7512 37.4854 16.9268C37.3031 17.0992 37.0827 17.1854 36.8242 17.1854ZM41.0463 15.8182V26H39.5598V15.8182H41.0463ZM43.9858 28.8636C43.7637 28.8636 43.5616 28.8454 43.3793 28.8089C43.197 28.7758 43.0611 28.7393 42.9716 28.6996L43.3295 27.4815C43.6013 27.5545 43.8433 27.5859 44.0554 27.576C44.2675 27.5661 44.4548 27.4865 44.6172 27.3374C44.7829 27.1882 44.9287 26.9446 45.0547 26.6065L45.2386 26.0994L42.4446 18.3636H44.0355L45.9695 24.2898H46.049L47.983 18.3636H49.5788L46.4318 27.0192C46.286 27.4169 46.1004 27.7533 45.875 28.0284C45.6496 28.3068 45.3812 28.5156 45.0696 28.6548C44.758 28.794 44.3968 28.8636 43.9858 28.8636Z" fill="#64748B"/>
<path fill-rule="evenodd" clip-rule="evenodd" d="M61.9697 18.2197C62.2626 17.9268 62.7374 17.9268 63.0303 18.2197L67 22.1893L70.9697 18.2197C71.2626 17.9268 71.7374 17.9268 72.0303 18.2197C72.3232 18.5126 72.3232 18.9874 72.0303 19.2803L67.5303 23.7803C67.2374 24.0732 66.7626 24.0732 66.4697 23.7803L61.9697 19.2803C61.6768 18.9874 61.6768 18.5126 61.9697 18.2197Z" fill="#64748B"/>
</g>
<defs>
<filter id="filter0_d_1_10601" x="0" y="0" width="93" height="44" filterUnits="userSpaceOnUse" color-interpolation-filters="sRGB">
<feFlood flood-opacity="0" result="BackgroundImageFix"/>
<feColorMatrix in="SourceAlpha" type="matrix" values="0 0 0 0 0 0 0 0 0 0 0 0 0 0 0 0 0 0 127 0" result="hardAlpha"/>
<feOffset dy="1"/>
<feGaussianBlur stdDeviation="1"/>
<feComposite in2="hardAlpha" operator="out"/>
<feColorMatrix type="matrix" values="0 0 0 0 0 0 0 0 0 0 0 0 0 0 0 0 0 0 0.05 0"/>
<feBlend mode="normal" in2="BackgroundImageFix" result="effect1_dropShadow_1_10601"/>
<feBlend mode="normal" in="SourceGraphic" in2="effect1_dropShadow_1_10601" result="shape"/>
</filter>
</defs>
</svg>
