<svg width="335" height="161" viewBox="0 0 335 161" fill="none" xmlns="http://www.w3.org/2000/svg">
<rect width="335" height="161" rx="5" fill="white"/>
<path opacity="0.7" d="M19.5682 24.392V22.3636H29.125V24.392H25.5625V34H23.1307V24.392H19.5682ZM33.331 34.1705C32.4484 34.1705 31.6851 33.983 31.0412 33.608C30.401 33.2292 29.9067 32.7027 29.5582 32.0284C29.2098 31.3504 29.0355 30.5644 29.0355 29.6705C29.0355 28.7689 29.2098 27.9811 29.5582 27.3068C29.9067 26.6288 30.401 26.1023 31.0412 25.7273C31.6851 25.3485 32.4484 25.1591 33.331 25.1591C34.2135 25.1591 34.9749 25.3485 35.6151 25.7273C36.259 26.1023 36.7552 26.6288 37.1037 27.3068C37.4522 27.9811 37.6264 28.7689 37.6264 29.6705C37.6264 30.5644 37.4522 31.3504 37.1037 32.0284C36.7552 32.7027 36.259 33.2292 35.6151 33.608C34.9749 33.983 34.2135 34.1705 33.331 34.1705ZM33.3423 32.2955C33.7438 32.2955 34.0791 32.1818 34.348 31.9545C34.617 31.7235 34.8196 31.4091 34.956 31.0114C35.0961 30.6136 35.1662 30.161 35.1662 29.6534C35.1662 29.1458 35.0961 28.6932 34.956 28.2955C34.8196 27.8977 34.617 27.5833 34.348 27.3523C34.0791 27.1212 33.7438 27.0057 33.3423 27.0057C32.937 27.0057 32.5961 27.1212 32.3196 27.3523C32.0469 27.5833 31.8404 27.8977 31.7003 28.2955C31.5639 28.6932 31.4957 29.1458 31.4957 29.6534C31.4957 30.161 31.5639 30.6136 31.7003 31.0114C31.8404 31.4091 32.0469 31.7235 32.3196 31.9545C32.5961 32.1818 32.937 32.2955 33.3423 32.2955ZM43.8423 25.2727V27.0909H38.5866V25.2727H43.8423ZM39.7798 23.1818H42.2003V31.3182C42.2003 31.5417 42.2344 31.7159 42.3026 31.8409C42.3707 31.9621 42.4654 32.0473 42.5866 32.0966C42.7116 32.1458 42.8556 32.1705 43.0185 32.1705C43.1321 32.1705 43.2457 32.161 43.3594 32.142C43.473 32.1193 43.5601 32.1023 43.6207 32.0909L44.0014 33.892C43.8802 33.9299 43.7098 33.9735 43.4901 34.0227C43.2704 34.0758 43.0033 34.108 42.6889 34.1193C42.1056 34.142 41.5942 34.0644 41.1548 33.8864C40.7192 33.7083 40.3802 33.4318 40.1378 33.0568C39.8954 32.6818 39.776 32.2083 39.7798 31.6364V23.1818ZM47.9077 34.1648C47.3509 34.1648 46.8546 34.0682 46.419 33.875C45.9834 33.678 45.6387 33.3883 45.3849 33.0057C45.1349 32.6193 45.0099 32.1383 45.0099 31.5625C45.0099 31.0777 45.099 30.6705 45.277 30.3409C45.455 30.0114 45.6974 29.7462 46.0043 29.5455C46.3111 29.3447 46.6596 29.1932 47.0497 29.0909C47.4437 28.9886 47.8565 28.9167 48.2884 28.875C48.7959 28.822 49.205 28.7727 49.5156 28.7273C49.8262 28.678 50.0516 28.6061 50.1918 28.5114C50.3319 28.4167 50.402 28.2765 50.402 28.0909V28.0568C50.402 27.697 50.2884 27.4186 50.0611 27.2216C49.8376 27.0246 49.5194 26.9261 49.1065 26.9261C48.6709 26.9261 48.3243 27.0227 48.0668 27.2159C47.8092 27.4053 47.6387 27.6439 47.5554 27.9318L45.3168 27.75C45.4304 27.2197 45.6539 26.7614 45.9872 26.375C46.3205 25.9848 46.7505 25.6856 47.277 25.4773C47.8073 25.2652 48.4209 25.1591 49.1179 25.1591C49.6027 25.1591 50.0668 25.2159 50.5099 25.3295C50.9569 25.4432 51.3527 25.6193 51.6974 25.858C52.0459 26.0966 52.3205 26.4034 52.5213 26.7784C52.7221 27.1496 52.8224 27.5947 52.8224 28.1136V34H50.527V32.7898H50.4588C50.3187 33.0625 50.1312 33.303 49.8963 33.5114C49.6615 33.7159 49.3793 33.8769 49.0497 33.9943C48.7202 34.108 48.3395 34.1648 47.9077 34.1648ZM48.6009 32.4943C48.9569 32.4943 49.2713 32.4242 49.544 32.2841C49.8168 32.1402 50.0308 31.947 50.1861 31.7045C50.3414 31.4621 50.419 31.1875 50.419 30.8807V29.9545C50.3433 30.0038 50.2391 30.0492 50.1065 30.0909C49.9777 30.1288 49.8319 30.1648 49.669 30.1989C49.5062 30.2292 49.3433 30.2576 49.1804 30.2841C49.0175 30.3068 48.8698 30.3277 48.7372 30.3466C48.4531 30.3883 48.205 30.4545 47.9929 30.5455C47.7808 30.6364 47.616 30.7595 47.4986 30.9148C47.3812 31.0663 47.3224 31.2557 47.3224 31.483C47.3224 31.8125 47.4418 32.0644 47.6804 32.2386C47.9228 32.4091 48.2296 32.4943 48.6009 32.4943ZM57.1207 22.3636V34H54.7003V22.3636H57.1207ZM69.1207 25.7102C69.0753 25.2519 68.8802 24.8958 68.5355 24.642C68.1908 24.3883 67.723 24.2614 67.1321 24.2614C66.7306 24.2614 66.3916 24.3182 66.1151 24.4318C65.8385 24.5417 65.6264 24.6951 65.4787 24.892C65.3348 25.089 65.2628 25.3125 65.2628 25.5625C65.2552 25.7708 65.2988 25.9527 65.3935 26.108C65.492 26.2633 65.6264 26.3977 65.7969 26.5114C65.9673 26.6212 66.1643 26.7178 66.3878 26.8011C66.6113 26.8807 66.8499 26.9489 67.1037 27.0057L68.1491 27.2557C68.6567 27.3693 69.1226 27.5208 69.5469 27.7102C69.9711 27.8996 70.3385 28.1326 70.6491 28.4091C70.9598 28.6856 71.2003 29.0114 71.3707 29.3864C71.545 29.7614 71.634 30.1913 71.6378 30.6761C71.634 31.3883 71.4522 32.0057 71.0923 32.5284C70.7363 33.0473 70.2211 33.4508 69.5469 33.7386C68.8764 34.0227 68.0677 34.1648 67.1207 34.1648C66.1813 34.1648 65.3632 34.0208 64.6662 33.733C63.973 33.4451 63.4313 33.0189 63.0412 32.4545C62.6548 31.8864 62.4522 31.1837 62.4332 30.3466H64.8139C64.8404 30.7367 64.9522 31.0625 65.1491 31.3239C65.3499 31.5814 65.617 31.7765 65.9503 31.9091C66.2874 32.0379 66.6681 32.1023 67.0923 32.1023C67.509 32.1023 67.8707 32.0417 68.1776 31.9205C68.4882 31.7992 68.7287 31.6307 68.8991 31.4148C69.0696 31.1989 69.1548 30.9508 69.1548 30.6705C69.1548 30.4091 69.0772 30.1894 68.9219 30.0114C68.7704 29.8333 68.5469 29.6818 68.2514 29.5568C67.9598 29.4318 67.6018 29.3182 67.1776 29.2159L65.9105 28.8977C64.9295 28.6591 64.1548 28.286 63.5866 27.7784C63.0185 27.2708 62.7363 26.5871 62.7401 25.7273C62.7363 25.0227 62.9238 24.4072 63.3026 23.8807C63.6851 23.3542 64.2098 22.9432 64.8764 22.6477C65.5431 22.3523 66.3007 22.2045 67.1491 22.2045C68.0128 22.2045 68.7666 22.3523 69.4105 22.6477C70.0582 22.9432 70.562 23.3542 70.9219 23.8807C71.2817 24.4072 71.4673 25.017 71.4787 25.7102H69.1207ZM77.8892 25.2727V27.0909H72.6335V25.2727H77.8892ZM73.8267 23.1818H76.2472V31.3182C76.2472 31.5417 76.2813 31.7159 76.3494 31.8409C76.4176 31.9621 76.5123 32.0473 76.6335 32.0966C76.7585 32.1458 76.9025 32.1705 77.0653 32.1705C77.179 32.1705 77.2926 32.161 77.4062 32.142C77.5199 32.1193 77.607 32.1023 77.6676 32.0909L78.0483 33.892C77.9271 33.9299 77.7566 33.9735 77.5369 34.0227C77.3172 34.0758 77.0502 34.108 76.7358 34.1193C76.1525 34.142 75.6411 34.0644 75.2017 33.8864C74.7661 33.7083 74.4271 33.4318 74.1847 33.0568C73.9422 32.6818 73.8229 32.2083 73.8267 31.6364V23.1818ZM85.0625 30.2841V25.2727H87.483V34H85.1591V32.4148H85.0682C84.8712 32.9261 84.5436 33.3371 84.0852 33.6477C83.6307 33.9583 83.0758 34.1136 82.4205 34.1136C81.8371 34.1136 81.3239 33.9811 80.8807 33.7159C80.4375 33.4508 80.0909 33.0739 79.8409 32.5852C79.5947 32.0966 79.4697 31.5114 79.4659 30.8295V25.2727H81.8864V30.3977C81.8902 30.9129 82.0284 31.3201 82.3011 31.6193C82.5739 31.9186 82.9394 32.0682 83.3977 32.0682C83.6894 32.0682 83.9621 32.0019 84.2159 31.8693C84.4697 31.733 84.6742 31.5322 84.8295 31.267C84.9886 31.0019 85.0663 30.6742 85.0625 30.2841ZM92.6349 34.142C91.9721 34.142 91.3717 33.9716 90.8338 33.6307C90.2997 33.286 89.8755 32.7803 89.5611 32.1136C89.2505 31.4432 89.0952 30.6212 89.0952 29.6477C89.0952 28.6477 89.2562 27.8163 89.5781 27.1534C89.9001 26.4867 90.3281 25.9886 90.8622 25.6591C91.4001 25.3258 91.9891 25.1591 92.6293 25.1591C93.1179 25.1591 93.5251 25.2424 93.8509 25.4091C94.1804 25.572 94.4455 25.7765 94.6463 26.0227C94.8509 26.2652 95.0062 26.5038 95.1122 26.7386H95.1861V22.3636H97.6009V34H95.2145V32.6023H95.1122C94.9986 32.8447 94.8376 33.0852 94.6293 33.3239C94.4247 33.5587 94.1577 33.7538 93.8281 33.9091C93.5024 34.0644 93.1046 34.142 92.6349 34.142ZM93.402 32.2159C93.7921 32.2159 94.1217 32.1098 94.3906 31.8977C94.6634 31.6818 94.8717 31.3807 95.0156 30.9943C95.1634 30.608 95.2372 30.1553 95.2372 29.6364C95.2372 29.1174 95.1652 28.6667 95.0213 28.2841C94.8774 27.9015 94.669 27.6061 94.3963 27.3977C94.1236 27.1894 93.7921 27.0852 93.402 27.0852C93.0043 27.0852 92.669 27.1932 92.3963 27.4091C92.1236 27.625 91.9171 27.9242 91.777 28.3068C91.6368 28.6894 91.5668 29.1326 91.5668 29.6364C91.5668 30.1439 91.6368 30.5928 91.777 30.983C91.9209 31.3693 92.1274 31.6723 92.3963 31.892C92.669 32.108 93.0043 32.2159 93.402 32.2159ZM103.568 34.1705C102.67 34.1705 101.898 33.9886 101.25 33.625C100.606 33.2576 100.11 32.7386 99.7614 32.0682C99.4129 31.3939 99.2386 30.5966 99.2386 29.6761C99.2386 28.7784 99.4129 27.9905 99.7614 27.3125C100.11 26.6345 100.6 26.1061 101.233 25.7273C101.869 25.3485 102.616 25.1591 103.472 25.1591C104.047 25.1591 104.583 25.2519 105.08 25.4375C105.58 25.6193 106.015 25.8939 106.386 26.2614C106.761 26.6288 107.053 27.0909 107.261 27.6477C107.47 28.2008 107.574 28.8485 107.574 29.5909V30.2557H100.205V28.7557H105.295C105.295 28.4072 105.22 28.0985 105.068 27.8295C104.917 27.5606 104.706 27.3504 104.438 27.1989C104.172 27.0436 103.864 26.9659 103.511 26.9659C103.144 26.9659 102.818 27.0511 102.534 27.2216C102.254 27.3883 102.034 27.6136 101.875 27.8977C101.716 28.178 101.634 28.4905 101.631 28.8352V30.2614C101.631 30.6932 101.71 31.0663 101.869 31.3807C102.032 31.6951 102.261 31.9375 102.557 32.108C102.852 32.2784 103.203 32.3636 103.608 32.3636C103.877 32.3636 104.123 32.3258 104.347 32.25C104.57 32.1742 104.761 32.0606 104.92 31.9091C105.08 31.7576 105.201 31.572 105.284 31.3523L107.523 31.5C107.409 32.0379 107.176 32.5076 106.824 32.9091C106.475 33.3068 106.025 33.6174 105.472 33.8409C104.922 34.0606 104.288 34.1705 103.568 34.1705ZM111.574 28.9545V34H109.153V25.2727H111.46V26.8125H111.562C111.756 26.3049 112.08 25.9034 112.534 25.608C112.989 25.3087 113.54 25.1591 114.188 25.1591C114.794 25.1591 115.322 25.2917 115.773 25.5568C116.223 25.822 116.574 26.2008 116.824 26.6932C117.074 27.1818 117.199 27.7652 117.199 28.4432V34H114.778V28.875C114.782 28.3409 114.646 27.9242 114.369 27.625C114.093 27.322 113.712 27.1705 113.227 27.1705C112.902 27.1705 112.614 27.2405 112.364 27.3807C112.117 27.5208 111.924 27.7254 111.784 27.9943C111.648 28.2595 111.578 28.5795 111.574 28.9545ZM123.749 25.2727V27.0909H118.493V25.2727H123.749ZM119.686 23.1818H122.107V31.3182C122.107 31.5417 122.141 31.7159 122.209 31.8409C122.277 31.9621 122.372 32.0473 122.493 32.0966C122.618 32.1458 122.762 32.1705 122.925 32.1705C123.038 32.1705 123.152 32.161 123.266 32.142C123.379 32.1193 123.466 32.1023 123.527 32.0909L123.908 33.892C123.786 33.9299 123.616 33.9735 123.396 34.0227C123.177 34.0758 122.91 34.108 122.595 34.1193C122.012 34.142 121.5 34.0644 121.061 33.8864C120.625 33.7083 120.286 33.4318 120.044 33.0568C119.802 32.6818 119.682 32.2083 119.686 31.6364V23.1818ZM132.477 27.7614L130.261 27.8977C130.223 27.7083 130.142 27.5379 130.017 27.3864C129.892 27.2311 129.727 27.108 129.523 27.017C129.322 26.9223 129.081 26.875 128.801 26.875C128.426 26.875 128.11 26.9545 127.852 27.1136C127.595 27.2689 127.466 27.4773 127.466 27.7386C127.466 27.947 127.549 28.1231 127.716 28.267C127.883 28.411 128.169 28.5265 128.574 28.6136L130.153 28.9318C131.002 29.1061 131.634 29.3864 132.051 29.7727C132.468 30.1591 132.676 30.6667 132.676 31.2955C132.676 31.8674 132.508 32.3693 132.17 32.8011C131.837 33.233 131.379 33.5701 130.795 33.8125C130.216 34.0511 129.547 34.1705 128.79 34.1705C127.634 34.1705 126.714 33.9299 126.028 33.4489C125.347 32.964 124.947 32.3049 124.83 31.4716L127.21 31.3466C127.282 31.6989 127.456 31.9678 127.733 32.1534C128.009 32.3352 128.364 32.4261 128.795 32.4261C129.22 32.4261 129.561 32.3447 129.818 32.1818C130.08 32.0152 130.212 31.8011 130.216 31.5398C130.212 31.3201 130.119 31.1402 129.938 31C129.756 30.8561 129.475 30.7462 129.097 30.6705L127.585 30.3693C126.733 30.1989 126.098 29.9034 125.682 29.483C125.269 29.0625 125.062 28.5265 125.062 27.875C125.062 27.3144 125.214 26.8314 125.517 26.4261C125.824 26.0208 126.254 25.7083 126.807 25.4886C127.364 25.2689 128.015 25.1591 128.761 25.1591C129.864 25.1591 130.731 25.392 131.364 25.858C132 26.3239 132.371 26.9583 132.477 27.7614Z" fill="#202224"/>
<path d="M26.7898 87.2386C25.5852 87.2386 24.5114 87.017 23.5682 86.5739C22.6307 86.1307 21.8864 85.5199 21.3352 84.7415C20.7841 83.9631 20.4972 83.071 20.4744 82.0653H24.054C24.0938 82.7415 24.3778 83.2898 24.9062 83.7102C25.4347 84.1307 26.0625 84.3409 26.7898 84.3409C27.3693 84.3409 27.8807 84.2131 28.3239 83.9574C28.7727 83.696 29.1222 83.3352 29.3722 82.875C29.6278 82.4091 29.7557 81.875 29.7557 81.2727C29.7557 80.6591 29.625 80.1193 29.3636 79.6534C29.108 79.1875 28.7528 78.8239 28.2983 78.5625C27.8438 78.3011 27.3239 78.1676 26.7386 78.1619C26.2273 78.1619 25.7301 78.267 25.2472 78.4773C24.7699 78.6875 24.3977 78.9744 24.1307 79.3381L20.8494 78.75L21.6761 69.5455H32.3466V72.5625H24.7188L24.267 76.9347H24.3693C24.6761 76.5028 25.1392 76.1449 25.7585 75.8608C26.3778 75.5767 27.071 75.4347 27.8381 75.4347C28.8892 75.4347 29.8267 75.6818 30.6506 76.1761C31.4744 76.6705 32.125 77.3494 32.6023 78.2131C33.0795 79.071 33.3153 80.0597 33.3097 81.179C33.3153 82.3551 33.0426 83.4006 32.4915 84.3153C31.946 85.2244 31.1818 85.9403 30.1989 86.4631C29.2216 86.9801 28.0852 87.2386 26.7898 87.2386ZM44.4773 69.5455V87H40.7869V73.0483H40.6847L36.6875 75.554V72.2812L41.0085 69.5455H44.4773ZM56.0774 87.2386C54.8047 87.2386 53.6712 87.0199 52.6768 86.5824C51.6882 86.1392 50.907 85.5312 50.3331 84.7585C49.7649 83.9801 49.4723 83.0824 49.4553 82.0653H53.1712C53.1939 82.4915 53.3331 82.8665 53.5888 83.1903C53.8501 83.5085 54.1967 83.7557 54.6286 83.9318C55.0604 84.108 55.5462 84.196 56.0859 84.196C56.6484 84.196 57.1456 84.0966 57.5774 83.8977C58.0092 83.6989 58.3473 83.4233 58.5916 83.071C58.8359 82.7187 58.9581 82.3125 58.9581 81.8523C58.9581 81.3864 58.8274 80.9744 58.5661 80.6165C58.3104 80.2528 57.9411 79.9687 57.4581 79.7642C56.9808 79.5597 56.4126 79.4574 55.7536 79.4574H54.1257V76.7472H55.7536C56.3104 76.7472 56.8018 76.6506 57.228 76.4574C57.6598 76.2642 57.995 75.9972 58.2337 75.6562C58.4723 75.3097 58.5916 74.9062 58.5916 74.446C58.5916 74.0085 58.4865 73.625 58.2763 73.2955C58.0717 72.9602 57.782 72.6989 57.407 72.5114C57.0376 72.3239 56.6058 72.2301 56.1115 72.2301C55.6115 72.2301 55.1541 72.321 54.7393 72.5028C54.3246 72.679 53.9922 72.9318 53.7422 73.2614C53.4922 73.5909 53.3587 73.9773 53.3416 74.4205H49.8047C49.8217 73.4148 50.1087 72.5284 50.6655 71.7614C51.2223 70.9943 51.9723 70.3949 52.9155 69.9631C53.8643 69.5256 54.9354 69.3068 56.1286 69.3068C57.3331 69.3068 58.3871 69.5256 59.2905 69.9631C60.1939 70.4006 60.8956 70.9915 61.3956 71.7358C61.9013 72.4744 62.1513 73.304 62.1456 74.2244C62.1513 75.2017 61.8473 76.017 61.2337 76.6705C60.6257 77.3239 59.8331 77.7386 58.8558 77.9148V78.0511C60.1399 78.2159 61.1172 78.6619 61.7876 79.3892C62.4638 80.1108 62.799 81.0142 62.7933 82.0994C62.799 83.0938 62.5121 83.9773 61.9325 84.75C61.3587 85.5227 60.5661 86.1307 59.5547 86.5739C58.5433 87.017 57.3842 87.2386 56.0774 87.2386Z" fill="#202224"/>
<path d="M35 125L37.29 127.29L32.41 132.17L28.41 128.17L21 135.59L22.41 137L28.41 131L32.41 135L38.71 128.71L41 131V125H35Z" fill="#00B69B"/>
<path d="M56.0511 135.159C55.2367 135.159 54.517 135.019 53.892 134.739C53.2708 134.458 52.7841 134.072 52.4318 133.58C52.0795 133.087 51.9053 132.527 51.9091 131.898C51.9053 131.405 52.0057 130.953 52.2102 130.54C52.4186 130.123 52.7008 129.777 53.0568 129.5C53.4129 129.22 53.8106 129.042 54.25 128.966V128.898C53.6705 128.758 53.2064 128.447 52.858 127.966C52.5095 127.485 52.3371 126.932 52.3409 126.307C52.3371 125.712 52.4943 125.182 52.8125 124.716C53.1345 124.246 53.5758 123.877 54.1364 123.608C54.697 123.339 55.3352 123.205 56.0511 123.205C56.7595 123.205 57.392 123.341 57.9489 123.614C58.5095 123.883 58.9508 124.252 59.2727 124.722C59.5947 125.187 59.7576 125.716 59.7614 126.307C59.7576 126.932 59.5795 127.485 59.2273 127.966C58.875 128.447 58.4167 128.758 57.8523 128.898V128.966C58.2879 129.042 58.6799 129.22 59.0284 129.5C59.3807 129.777 59.661 130.123 59.8693 130.54C60.0814 130.953 60.1894 131.405 60.1932 131.898C60.1894 132.527 60.0114 133.087 59.6591 133.58C59.3068 134.072 58.8182 134.458 58.1932 134.739C57.572 135.019 56.858 135.159 56.0511 135.159ZM56.0511 133.722C56.5322 133.722 56.9489 133.642 57.3011 133.483C57.6534 133.32 57.9261 133.095 58.1193 132.807C58.3125 132.515 58.411 132.174 58.4148 131.784C58.411 131.379 58.3049 131.021 58.0966 130.71C57.892 130.4 57.6136 130.155 57.2614 129.977C56.9091 129.799 56.5057 129.71 56.0511 129.71C55.5928 129.71 55.1856 129.799 54.8295 129.977C54.4735 130.155 54.1932 130.4 53.9886 130.71C53.7841 131.021 53.6837 131.379 53.6875 131.784C53.6837 132.174 53.7765 132.515 53.9659 132.807C54.1591 133.095 54.4337 133.32 54.7898 133.483C55.1458 133.642 55.5663 133.722 56.0511 133.722ZM56.0511 128.307C56.4375 128.307 56.7803 128.229 57.0795 128.074C57.3788 127.919 57.6136 127.703 57.7841 127.426C57.9583 127.15 58.0473 126.826 58.0511 126.455C58.0473 126.091 57.9602 125.773 57.7898 125.5C57.6231 125.227 57.3902 125.017 57.0909 124.869C56.7917 124.718 56.4451 124.642 56.0511 124.642C55.6496 124.642 55.2973 124.718 54.9943 124.869C54.6951 125.017 54.4621 125.227 54.2955 125.5C54.1288 125.773 54.0473 126.091 54.0511 126.455C54.0473 126.826 54.1307 127.15 54.3011 127.426C54.4716 127.703 54.7064 127.919 55.0057 128.074C55.3087 128.229 55.6572 128.307 56.0511 128.307ZM63.027 135.108C62.7164 135.108 62.4493 134.998 62.2259 134.778C62.0024 134.555 61.8906 134.286 61.8906 133.972C61.8906 133.661 62.0024 133.396 62.2259 133.176C62.4493 132.953 62.7164 132.841 63.027 132.841C63.3376 132.841 63.6046 132.953 63.8281 133.176C64.0516 133.396 64.1634 133.661 64.1634 133.972C64.1634 134.18 64.1103 134.371 64.0043 134.545C63.902 134.716 63.7656 134.852 63.5952 134.955C63.4247 135.057 63.2353 135.108 63.027 135.108ZM70.0696 135.159C69.3575 135.159 68.7173 135.023 68.1491 134.75C67.5848 134.473 67.134 134.095 66.7969 133.614C66.4598 133.133 66.2798 132.583 66.2571 131.966H67.9616C68.0033 132.466 68.2249 132.877 68.6264 133.199C69.0279 133.521 69.509 133.682 70.0696 133.682C70.5166 133.682 70.9124 133.58 71.2571 133.375C71.6056 133.167 71.8783 132.881 72.0753 132.517C72.276 132.153 72.3764 131.739 72.3764 131.273C72.3764 130.799 72.2741 130.377 72.0696 130.006C71.8651 129.634 71.5829 129.343 71.223 129.131C70.867 128.919 70.4579 128.811 69.9957 128.807C69.6435 128.807 69.2893 128.867 68.9332 128.989C68.5772 129.11 68.2893 129.269 68.0696 129.466L66.4616 129.227L67.1151 123.364H73.5128V124.869H68.5753L68.206 128.125H68.2741C68.5014 127.905 68.8026 127.722 69.1776 127.574C69.5563 127.426 69.9616 127.352 70.3935 127.352C71.1018 127.352 71.7325 127.521 72.2855 127.858C72.8423 128.195 73.2798 128.655 73.598 129.239C73.92 129.818 74.0791 130.485 74.0753 131.239C74.0791 131.992 73.9086 132.665 73.5639 133.256C73.223 133.847 72.7495 134.312 72.1435 134.653C71.5412 134.991 70.8499 135.159 70.0696 135.159ZM82.2244 132.818V132.205C82.2244 131.765 82.3153 131.364 82.4972 131C82.6828 130.633 82.9517 130.339 83.304 130.119C83.66 129.896 84.09 129.784 84.5938 129.784C85.1089 129.784 85.5407 129.894 85.8892 130.114C86.2377 130.333 86.5009 130.627 86.679 130.994C86.8608 131.362 86.9517 131.765 86.9517 132.205V132.818C86.9517 133.258 86.8608 133.661 86.679 134.028C86.4972 134.392 86.2301 134.686 85.8778 134.909C85.5294 135.129 85.1013 135.239 84.5938 135.239C84.0824 135.239 83.6506 135.129 83.2983 134.909C82.946 134.686 82.679 134.392 82.4972 134.028C82.3153 133.661 82.2244 133.258 82.2244 132.818ZM83.5483 132.205V132.818C83.5483 133.144 83.6259 133.439 83.7812 133.705C83.9366 133.97 84.2074 134.102 84.5938 134.102C84.9763 134.102 85.2434 133.97 85.3949 133.705C85.5464 133.439 85.6222 133.144 85.6222 132.818V132.205C85.6222 131.879 85.5483 131.583 85.4006 131.318C85.2566 131.053 84.9877 130.92 84.5938 130.92C84.215 130.92 83.946 131.053 83.7869 131.318C83.6278 131.583 83.5483 131.879 83.5483 132.205ZM76.3722 126.159V125.545C76.3722 125.106 76.4631 124.703 76.6449 124.335C76.8305 123.968 77.0994 123.674 77.4517 123.455C77.8078 123.235 78.2377 123.125 78.7415 123.125C79.2566 123.125 79.6884 123.235 80.0369 123.455C80.3854 123.674 80.6487 123.968 80.8267 124.335C81.0047 124.703 81.0938 125.106 81.0938 125.545V126.159C81.0938 126.598 81.0028 127.002 80.821 127.369C80.643 127.733 80.3778 128.027 80.0256 128.25C79.6771 128.47 79.2491 128.58 78.7415 128.58C78.2263 128.58 77.7926 128.47 77.4403 128.25C77.0919 128.027 76.8267 127.733 76.6449 127.369C76.4631 127.002 76.3722 126.598 76.3722 126.159ZM77.7017 125.545V126.159C77.7017 126.485 77.7775 126.78 77.929 127.045C78.0843 127.311 78.3551 127.443 78.7415 127.443C79.1203 127.443 79.3854 127.311 79.5369 127.045C79.6922 126.78 79.7699 126.485 79.7699 126.159V125.545C79.7699 125.22 79.696 124.924 79.5483 124.659C79.4006 124.394 79.1316 124.261 78.7415 124.261C78.3627 124.261 78.0938 124.394 77.9347 124.659C77.7794 124.924 77.7017 125.22 77.7017 125.545ZM76.9119 135L84.9119 123.364H86.2699L78.2699 135H76.9119Z" fill="#00B69B"/>
<path d="M101.277 123.364H103.038V131.017C103.038 131.831 102.847 132.553 102.464 133.182C102.082 133.807 101.544 134.299 100.851 134.659C100.158 135.015 99.3452 135.193 98.4134 135.193C97.4853 135.193 96.6747 135.015 95.9815 134.659C95.2884 134.299 94.7505 133.807 94.3679 133.182C93.9853 132.553 93.794 131.831 93.794 131.017V123.364H95.5497V130.875C95.5497 131.402 95.6652 131.869 95.8963 132.278C96.1312 132.688 96.4626 133.009 96.8906 133.244C97.3187 133.475 97.8262 133.591 98.4134 133.591C99.0043 133.591 99.5137 133.475 99.9418 133.244C100.374 133.009 100.703 132.688 100.93 132.278C101.161 131.869 101.277 131.402 101.277 130.875V123.364ZM105.455 138.273V126.273H107.114V127.688H107.256C107.354 127.506 107.496 127.295 107.682 127.057C107.867 126.818 108.125 126.61 108.455 126.432C108.784 126.25 109.22 126.159 109.761 126.159C110.466 126.159 111.095 126.337 111.648 126.693C112.201 127.049 112.634 127.562 112.949 128.233C113.267 128.903 113.426 129.71 113.426 130.653C113.426 131.597 113.269 132.405 112.955 133.08C112.64 133.75 112.208 134.267 111.659 134.631C111.11 134.991 110.483 135.17 109.778 135.17C109.248 135.17 108.814 135.081 108.477 134.903C108.144 134.725 107.883 134.517 107.693 134.278C107.504 134.04 107.358 133.828 107.256 133.642H107.153V138.273H105.455ZM107.119 130.636C107.119 131.25 107.208 131.788 107.386 132.25C107.564 132.712 107.822 133.074 108.159 133.335C108.496 133.593 108.909 133.722 109.398 133.722C109.905 133.722 110.33 133.587 110.67 133.318C111.011 133.045 111.269 132.676 111.443 132.21C111.621 131.744 111.71 131.22 111.71 130.636C111.71 130.061 111.623 129.544 111.449 129.085C111.278 128.627 111.021 128.265 110.676 128C110.335 127.735 109.909 127.602 109.398 127.602C108.905 127.602 108.489 127.729 108.148 127.983C107.811 128.237 107.555 128.591 107.381 129.045C107.206 129.5 107.119 130.03 107.119 130.636ZM123.717 126.273V127.636H118.786V126.273H123.717ZM120.138 135V125.261C120.138 124.716 120.257 124.263 120.496 123.903C120.734 123.54 121.051 123.269 121.445 123.091C121.839 122.909 122.267 122.818 122.729 122.818C123.07 122.818 123.361 122.847 123.604 122.903C123.846 122.956 124.026 123.006 124.143 123.051L123.746 124.426C123.666 124.403 123.564 124.377 123.439 124.347C123.314 124.312 123.162 124.295 122.984 124.295C122.571 124.295 122.276 124.398 122.098 124.602C121.924 124.807 121.837 125.102 121.837 125.489V135H120.138ZM125.47 135V126.273H127.112V127.659H127.203C127.362 127.189 127.643 126.82 128.044 126.551C128.449 126.278 128.908 126.142 129.419 126.142C129.525 126.142 129.65 126.146 129.794 126.153C129.942 126.161 130.057 126.17 130.141 126.182V127.807C130.072 127.788 129.951 127.767 129.777 127.744C129.603 127.718 129.429 127.705 129.254 127.705C128.853 127.705 128.495 127.79 128.18 127.96C127.87 128.127 127.624 128.36 127.442 128.659C127.26 128.955 127.169 129.292 127.169 129.67V135H125.47ZM134.974 135.176C134.156 135.176 133.442 134.989 132.832 134.614C132.223 134.239 131.749 133.714 131.412 133.04C131.075 132.366 130.906 131.578 130.906 130.676C130.906 129.771 131.075 128.979 131.412 128.301C131.749 127.623 132.223 127.097 132.832 126.722C133.442 126.347 134.156 126.159 134.974 126.159C135.793 126.159 136.507 126.347 137.116 126.722C137.726 127.097 138.2 127.623 138.537 128.301C138.874 128.979 139.043 129.771 139.043 130.676C139.043 131.578 138.874 132.366 138.537 133.04C138.2 133.714 137.726 134.239 137.116 134.614C136.507 134.989 135.793 135.176 134.974 135.176ZM134.98 133.75C135.51 133.75 135.95 133.61 136.298 133.33C136.647 133.049 136.904 132.676 137.071 132.21C137.241 131.744 137.327 131.231 137.327 130.67C137.327 130.114 137.241 129.602 137.071 129.136C136.904 128.667 136.647 128.29 136.298 128.006C135.95 127.722 135.51 127.58 134.98 127.58C134.446 127.58 134.003 127.722 133.651 128.006C133.302 128.29 133.043 128.667 132.872 129.136C132.705 129.602 132.622 130.114 132.622 130.67C132.622 131.231 132.705 131.744 132.872 132.21C133.043 132.676 133.302 133.049 133.651 133.33C134.003 133.61 134.446 133.75 134.98 133.75ZM140.939 135V126.273H142.57V127.693H142.678C142.859 127.212 143.157 126.837 143.57 126.568C143.982 126.295 144.477 126.159 145.053 126.159C145.636 126.159 146.125 126.295 146.518 126.568C146.916 126.841 147.21 127.216 147.399 127.693H147.49C147.698 127.227 148.03 126.856 148.484 126.58C148.939 126.299 149.481 126.159 150.109 126.159C150.901 126.159 151.547 126.407 152.047 126.903C152.551 127.4 152.803 128.148 152.803 129.148V135H151.104V129.307C151.104 128.716 150.943 128.288 150.621 128.023C150.299 127.758 149.914 127.625 149.467 127.625C148.914 127.625 148.484 127.795 148.178 128.136C147.871 128.473 147.717 128.907 147.717 129.438V135H146.024V129.199C146.024 128.725 145.876 128.345 145.581 128.057C145.286 127.769 144.901 127.625 144.428 127.625C144.106 127.625 143.808 127.71 143.536 127.881C143.267 128.047 143.049 128.28 142.882 128.58C142.719 128.879 142.638 129.225 142.638 129.619V135H140.939ZM160.388 138.273C160.134 138.273 159.903 138.252 159.695 138.21C159.486 138.172 159.331 138.131 159.229 138.085L159.638 136.693C159.948 136.777 160.225 136.813 160.467 136.801C160.71 136.79 160.924 136.699 161.109 136.528C161.299 136.358 161.465 136.08 161.609 135.693L161.82 135.114L158.626 126.273H160.445L162.655 133.045H162.746L164.956 126.273H166.78L163.183 136.165C163.017 136.619 162.804 137.004 162.547 137.318C162.289 137.636 161.982 137.875 161.626 138.034C161.27 138.193 160.857 138.273 160.388 138.273ZM171.841 135.176C170.981 135.176 170.241 134.992 169.619 134.625C169.002 134.254 168.525 133.733 168.188 133.062C167.854 132.388 167.688 131.598 167.688 130.693C167.688 129.799 167.854 129.011 168.188 128.33C168.525 127.648 168.994 127.116 169.597 126.733C170.203 126.35 170.911 126.159 171.722 126.159C172.214 126.159 172.691 126.241 173.153 126.403C173.616 126.566 174.03 126.822 174.398 127.17C174.765 127.519 175.055 127.972 175.267 128.528C175.479 129.081 175.585 129.754 175.585 130.545V131.148H168.648V129.875H173.92C173.92 129.428 173.83 129.032 173.648 128.688C173.466 128.339 173.21 128.064 172.881 127.864C172.555 127.663 172.172 127.562 171.733 127.562C171.256 127.562 170.839 127.68 170.483 127.915C170.131 128.146 169.858 128.449 169.665 128.824C169.475 129.195 169.381 129.598 169.381 130.034V131.028C169.381 131.612 169.483 132.108 169.688 132.517C169.896 132.926 170.186 133.239 170.557 133.455C170.928 133.667 171.362 133.773 171.858 133.773C172.18 133.773 172.473 133.727 172.739 133.636C173.004 133.542 173.233 133.402 173.426 133.216C173.619 133.03 173.767 132.801 173.869 132.528L175.477 132.818C175.348 133.292 175.117 133.706 174.784 134.062C174.455 134.415 174.04 134.689 173.54 134.886C173.044 135.08 172.477 135.176 171.841 135.176ZM184.01 128.403L182.47 128.676C182.406 128.479 182.304 128.292 182.163 128.114C182.027 127.936 181.841 127.79 181.607 127.676C181.372 127.562 181.078 127.506 180.726 127.506C180.245 127.506 179.843 127.614 179.521 127.83C179.199 128.042 179.038 128.316 179.038 128.653C179.038 128.945 179.146 129.18 179.362 129.358C179.578 129.536 179.927 129.682 180.408 129.795L181.794 130.114C182.597 130.299 183.196 130.585 183.589 130.972C183.983 131.358 184.18 131.86 184.18 132.477C184.18 133 184.029 133.466 183.726 133.875C183.427 134.28 183.008 134.598 182.47 134.83C181.936 135.061 181.317 135.176 180.612 135.176C179.635 135.176 178.838 134.968 178.22 134.551C177.603 134.131 177.224 133.534 177.084 132.761L178.726 132.511C178.828 132.939 179.038 133.263 179.357 133.483C179.675 133.699 180.089 133.807 180.601 133.807C181.158 133.807 181.603 133.691 181.936 133.46C182.269 133.225 182.436 132.939 182.436 132.602C182.436 132.33 182.334 132.1 182.129 131.915C181.929 131.729 181.62 131.589 181.203 131.494L179.726 131.17C178.911 130.985 178.309 130.689 177.919 130.284C177.533 129.879 177.339 129.366 177.339 128.744C177.339 128.229 177.483 127.778 177.771 127.392C178.059 127.006 178.457 126.705 178.964 126.489C179.472 126.269 180.054 126.159 180.709 126.159C181.652 126.159 182.394 126.364 182.936 126.773C183.478 127.178 183.836 127.722 184.01 128.403ZM190.122 126.273V127.636H185.355V126.273H190.122ZM186.634 124.182H188.332V132.438C188.332 132.767 188.382 133.015 188.48 133.182C188.579 133.345 188.705 133.456 188.861 133.517C189.02 133.574 189.192 133.602 189.378 133.602C189.514 133.602 189.634 133.593 189.736 133.574C189.838 133.555 189.918 133.54 189.974 133.528L190.281 134.932C190.183 134.97 190.043 135.008 189.861 135.045C189.679 135.087 189.452 135.11 189.179 135.114C188.732 135.121 188.315 135.042 187.929 134.875C187.543 134.708 187.23 134.451 186.991 134.102C186.753 133.754 186.634 133.316 186.634 132.79V124.182ZM195.669 135.176C194.809 135.176 194.069 134.992 193.447 134.625C192.83 134.254 192.353 133.733 192.016 133.062C191.682 132.388 191.516 131.598 191.516 130.693C191.516 129.799 191.682 129.011 192.016 128.33C192.353 127.648 192.822 127.116 193.425 126.733C194.031 126.35 194.739 126.159 195.55 126.159C196.042 126.159 196.519 126.241 196.982 126.403C197.444 126.566 197.858 126.822 198.226 127.17C198.593 127.519 198.883 127.972 199.095 128.528C199.307 129.081 199.413 129.754 199.413 130.545V131.148H192.476V129.875H197.749C197.749 129.428 197.658 129.032 197.476 128.688C197.294 128.339 197.038 128.064 196.709 127.864C196.383 127.663 196 127.562 195.561 127.562C195.084 127.562 194.667 127.68 194.311 127.915C193.959 128.146 193.686 128.449 193.493 128.824C193.304 129.195 193.209 129.598 193.209 130.034V131.028C193.209 131.612 193.311 132.108 193.516 132.517C193.724 132.926 194.014 133.239 194.385 133.455C194.756 133.667 195.19 133.773 195.686 133.773C196.008 133.773 196.302 133.727 196.567 133.636C196.832 133.542 197.061 133.402 197.254 133.216C197.447 133.03 197.595 132.801 197.697 132.528L199.305 132.818C199.177 133.292 198.946 133.706 198.612 134.062C198.283 134.415 197.868 134.689 197.368 134.886C196.872 135.08 196.305 135.176 195.669 135.176ZM201.298 135V126.273H202.94V127.659H203.031C203.19 127.189 203.471 126.82 203.872 126.551C204.277 126.278 204.736 126.142 205.247 126.142C205.353 126.142 205.478 126.146 205.622 126.153C205.77 126.161 205.885 126.17 205.969 126.182V127.807C205.901 127.788 205.779 127.767 205.605 127.744C205.431 127.718 205.257 127.705 205.082 127.705C204.681 127.705 204.323 127.79 204.009 127.96C203.698 128.127 203.452 128.36 203.27 128.659C203.088 128.955 202.997 129.292 202.997 129.67V135H201.298ZM210.393 135.17C209.689 135.17 209.06 134.991 208.507 134.631C207.958 134.267 207.526 133.75 207.212 133.08C206.901 132.405 206.746 131.597 206.746 130.653C206.746 129.71 206.903 128.903 207.217 128.233C207.536 127.562 207.971 127.049 208.524 126.693C209.077 126.337 209.704 126.159 210.405 126.159C210.946 126.159 211.382 126.25 211.712 126.432C212.045 126.61 212.303 126.818 212.484 127.057C212.67 127.295 212.814 127.506 212.916 127.688H213.018V123.364H214.717V135H213.058V133.642H212.916C212.814 133.828 212.666 134.04 212.473 134.278C212.284 134.517 212.022 134.725 211.689 134.903C211.356 135.081 210.924 135.17 210.393 135.17ZM210.768 133.722C211.257 133.722 211.67 133.593 212.007 133.335C212.348 133.074 212.606 132.712 212.78 132.25C212.958 131.788 213.047 131.25 213.047 130.636C213.047 130.03 212.96 129.5 212.786 129.045C212.611 128.591 212.356 128.237 212.018 127.983C211.681 127.729 211.265 127.602 210.768 127.602C210.257 127.602 209.831 127.735 209.49 128C209.149 128.265 208.892 128.627 208.717 129.085C208.547 129.544 208.462 130.061 208.462 130.636C208.462 131.22 208.549 131.744 208.723 132.21C208.897 132.676 209.155 133.045 209.496 133.318C209.84 133.587 210.265 133.722 210.768 133.722ZM219.682 135.193C219.129 135.193 218.629 135.091 218.182 134.886C217.735 134.678 217.381 134.377 217.119 133.983C216.862 133.589 216.733 133.106 216.733 132.534C216.733 132.042 216.828 131.636 217.017 131.318C217.206 131 217.462 130.748 217.784 130.562C218.106 130.377 218.466 130.237 218.864 130.142C219.261 130.047 219.667 129.975 220.08 129.926C220.602 129.866 221.027 129.816 221.352 129.778C221.678 129.737 221.915 129.67 222.062 129.58C222.21 129.489 222.284 129.341 222.284 129.136V129.097C222.284 128.6 222.144 128.216 221.864 127.943C221.587 127.67 221.174 127.534 220.625 127.534C220.053 127.534 219.602 127.661 219.273 127.915C218.947 128.165 218.722 128.443 218.597 128.75L217 128.386C217.189 127.856 217.466 127.428 217.83 127.102C218.197 126.773 218.619 126.534 219.097 126.386C219.574 126.235 220.076 126.159 220.602 126.159C220.951 126.159 221.32 126.201 221.71 126.284C222.104 126.364 222.472 126.511 222.812 126.727C223.157 126.943 223.439 127.252 223.659 127.653C223.879 128.051 223.989 128.568 223.989 129.205V135H222.33V133.807H222.261C222.152 134.027 221.987 134.242 221.767 134.455C221.547 134.667 221.265 134.843 220.92 134.983C220.576 135.123 220.163 135.193 219.682 135.193ZM220.051 133.83C220.521 133.83 220.922 133.737 221.256 133.551C221.593 133.366 221.848 133.123 222.023 132.824C222.201 132.521 222.29 132.197 222.29 131.852V130.727C222.229 130.788 222.112 130.845 221.938 130.898C221.767 130.947 221.572 130.991 221.352 131.028C221.133 131.062 220.919 131.095 220.71 131.125C220.502 131.152 220.328 131.174 220.188 131.193C219.858 131.235 219.557 131.305 219.284 131.403C219.015 131.502 218.799 131.644 218.636 131.83C218.477 132.011 218.398 132.254 218.398 132.557C218.398 132.977 218.553 133.295 218.864 133.511C219.174 133.723 219.57 133.83 220.051 133.83ZM227.013 138.273C226.759 138.273 226.528 138.252 226.32 138.21C226.111 138.172 225.956 138.131 225.854 138.085L226.263 136.693C226.573 136.777 226.85 136.813 227.092 136.801C227.335 136.79 227.549 136.699 227.734 136.528C227.924 136.358 228.09 136.08 228.234 135.693L228.445 135.114L225.251 126.273H227.07L229.28 133.045H229.371L231.581 126.273H233.405L229.808 136.165C229.642 136.619 229.429 137.004 229.172 137.318C228.914 137.636 228.607 137.875 228.251 138.034C227.895 138.193 227.482 138.273 227.013 138.273Z" fill="#606060"/>
<path opacity="0.21" fill-rule="evenodd" clip-rule="evenodd" d="M270.232 39V54C270.232 56.7614 272.471 59 275.232 59H290.232H305.232C307.994 59 310.232 56.7614 310.232 54V39V24C310.232 21.2386 307.994 19 305.232 19H290.232H275.232C272.471 19 270.232 21.2386 270.232 24V39Z" fill="#2758C1"/>
<path opacity="0.587821" fill-rule="evenodd" clip-rule="evenodd" d="M282.543 33.4445C282.543 35.8991 284.445 37.8889 286.791 37.8889C289.137 37.8889 291.038 35.8991 291.038 33.4445C291.038 30.9899 289.137 29 286.791 29C284.445 29 282.543 30.9899 282.543 33.4445ZM293.162 37.89C293.162 39.7309 294.588 41.2233 296.348 41.2233C298.107 41.2233 299.533 39.7309 299.533 37.89C299.533 36.049 298.107 34.5566 296.348 34.5566C294.588 34.5566 293.162 36.049 293.162 37.89Z" fill="#2758C1"/>
<path fill-rule="evenodd" clip-rule="evenodd" d="M286.772 40.1111C281.758 40.1111 277.645 42.8072 277.233 48.1102C277.211 48.3991 277.739 49 278.005 49H295.546C296.344 49 296.356 48.3283 296.344 48.1111C296.033 42.6591 291.856 40.1111 286.772 40.1111ZM295.92 42.3334C297.253 44.1903 298.043 46.4983 298.044 48.9994H302.138C302.714 48.9994 302.723 48.4957 302.714 48.3328C302.492 44.2882 299.538 42.3745 295.92 42.3334Z" fill="#2758C1"/>
</svg>
