<svg width="335" height="160" viewBox="0 0 335 160" fill="none" xmlns="http://www.w3.org/2000/svg">
<rect width="335" height="160" rx="5" fill="white"/>
<path opacity="0.7" d="M31.5682 23.392V21.3636H41.125V23.392H37.5625V33H35.1307V23.392H31.5682ZM45.331 33.1705C44.4484 33.1705 43.6851 32.983 43.0412 32.608C42.401 32.2292 41.9067 31.7027 41.5582 31.0284C41.2098 30.3504 41.0355 29.5644 41.0355 28.6705C41.0355 27.7689 41.2098 26.9811 41.5582 26.3068C41.9067 25.6288 42.401 25.1023 43.0412 24.7273C43.6851 24.3485 44.4484 24.1591 45.331 24.1591C46.2135 24.1591 46.9749 24.3485 47.6151 24.7273C48.259 25.1023 48.7552 25.6288 49.1037 26.3068C49.4522 26.9811 49.6264 27.7689 49.6264 28.6705C49.6264 29.5644 49.4522 30.3504 49.1037 31.0284C48.7552 31.7027 48.259 32.2292 47.6151 32.608C46.9749 32.983 46.2135 33.1705 45.331 33.1705ZM45.3423 31.2955C45.7438 31.2955 46.0791 31.1818 46.348 30.9545C46.617 30.7235 46.8196 30.4091 46.956 30.0114C47.0961 29.6136 47.1662 29.161 47.1662 28.6534C47.1662 28.1458 47.0961 27.6932 46.956 27.2955C46.8196 26.8977 46.617 26.5833 46.348 26.3523C46.0791 26.1212 45.7438 26.0057 45.3423 26.0057C44.937 26.0057 44.5961 26.1212 44.3196 26.3523C44.0469 26.5833 43.8404 26.8977 43.7003 27.2955C43.5639 27.6932 43.4957 28.1458 43.4957 28.6534C43.4957 29.161 43.5639 29.6136 43.7003 30.0114C43.8404 30.4091 44.0469 30.7235 44.3196 30.9545C44.5961 31.1818 44.937 31.2955 45.3423 31.2955ZM55.8423 24.2727V26.0909H50.5866V24.2727H55.8423ZM51.7798 22.1818H54.2003V30.3182C54.2003 30.5417 54.2344 30.7159 54.3026 30.8409C54.3707 30.9621 54.4654 31.0473 54.5866 31.0966C54.7116 31.1458 54.8556 31.1705 55.0185 31.1705C55.1321 31.1705 55.2457 31.161 55.3594 31.142C55.473 31.1193 55.5601 31.1023 55.6207 31.0909L56.0014 32.892C55.8802 32.9299 55.7098 32.9735 55.4901 33.0227C55.2704 33.0758 55.0033 33.108 54.6889 33.1193C54.1056 33.142 53.5942 33.0644 53.1548 32.8864C52.7192 32.7083 52.3802 32.4318 52.1378 32.0568C51.8954 31.6818 51.776 31.2083 51.7798 30.6364V22.1818ZM59.9077 33.1648C59.3509 33.1648 58.8546 33.0682 58.419 32.875C57.9834 32.678 57.6387 32.3883 57.3849 32.0057C57.1349 31.6193 57.0099 31.1383 57.0099 30.5625C57.0099 30.0777 57.099 29.6705 57.277 29.3409C57.455 29.0114 57.6974 28.7462 58.0043 28.5455C58.3111 28.3447 58.6596 28.1932 59.0497 28.0909C59.4437 27.9886 59.8565 27.9167 60.2884 27.875C60.7959 27.822 61.205 27.7727 61.5156 27.7273C61.8262 27.678 62.0516 27.6061 62.1918 27.5114C62.3319 27.4167 62.402 27.2765 62.402 27.0909V27.0568C62.402 26.697 62.2884 26.4186 62.0611 26.2216C61.8376 26.0246 61.5194 25.9261 61.1065 25.9261C60.6709 25.9261 60.3243 26.0227 60.0668 26.2159C59.8092 26.4053 59.6387 26.6439 59.5554 26.9318L57.3168 26.75C57.4304 26.2197 57.6539 25.7614 57.9872 25.375C58.3205 24.9848 58.7505 24.6856 59.277 24.4773C59.8073 24.2652 60.4209 24.1591 61.1179 24.1591C61.6027 24.1591 62.0668 24.2159 62.5099 24.3295C62.9569 24.4432 63.3527 24.6193 63.6974 24.858C64.0459 25.0966 64.3205 25.4034 64.5213 25.7784C64.7221 26.1496 64.8224 26.5947 64.8224 27.1136V33H62.527V31.7898H62.4588C62.3187 32.0625 62.1312 32.303 61.8963 32.5114C61.6615 32.7159 61.3793 32.8769 61.0497 32.9943C60.7202 33.108 60.3395 33.1648 59.9077 33.1648ZM60.6009 31.4943C60.9569 31.4943 61.2713 31.4242 61.544 31.2841C61.8168 31.1402 62.0308 30.947 62.1861 30.7045C62.3414 30.4621 62.419 30.1875 62.419 29.8807V28.9545C62.3433 29.0038 62.2391 29.0492 62.1065 29.0909C61.9777 29.1288 61.8319 29.1648 61.669 29.1989C61.5062 29.2292 61.3433 29.2576 61.1804 29.2841C61.0175 29.3068 60.8698 29.3277 60.7372 29.3466C60.4531 29.3883 60.205 29.4545 59.9929 29.5455C59.7808 29.6364 59.616 29.7595 59.4986 29.9148C59.3812 30.0663 59.3224 30.2557 59.3224 30.483C59.3224 30.8125 59.4418 31.0644 59.6804 31.2386C59.9228 31.4091 60.2296 31.4943 60.6009 31.4943ZM69.1207 21.3636V33H66.7003V21.3636H69.1207ZM85.0753 25.4375H82.5866C82.5412 25.1155 82.4484 24.8295 82.3082 24.5795C82.1681 24.3258 81.9882 24.1098 81.7685 23.9318C81.5488 23.7538 81.295 23.6174 81.0071 23.5227C80.723 23.428 80.4143 23.3807 80.081 23.3807C79.4787 23.3807 78.9541 23.5303 78.5071 23.8295C78.0601 24.125 77.7135 24.5568 77.4673 25.125C77.2211 25.6894 77.098 26.375 77.098 27.1818C77.098 28.0114 77.2211 28.7083 77.4673 29.2727C77.7173 29.8371 78.0658 30.2633 78.5128 30.5511C78.9598 30.839 79.4768 30.983 80.0639 30.983C80.3935 30.983 80.6984 30.9394 80.9787 30.8523C81.2628 30.7652 81.5147 30.6383 81.7344 30.4716C81.9541 30.3011 82.1359 30.0947 82.2798 29.8523C82.4276 29.6098 82.5298 29.3333 82.5866 29.0227L85.0753 29.0341C85.0109 29.5682 84.8499 30.0833 84.5923 30.5795C84.3385 31.072 83.9957 31.5133 83.5639 31.9034C83.1359 32.2898 82.6245 32.5966 82.0298 32.8239C81.4389 33.0473 80.7704 33.1591 80.0241 33.1591C78.9863 33.1591 78.0582 32.9242 77.2401 32.4545C76.4257 31.9848 75.7817 31.3049 75.3082 30.4148C74.8385 29.5246 74.6037 28.447 74.6037 27.1818C74.6037 25.9129 74.8423 24.8333 75.3196 23.9432C75.7969 23.053 76.4446 22.375 77.2628 21.9091C78.081 21.4394 79.0014 21.2045 80.0241 21.2045C80.6984 21.2045 81.3234 21.2992 81.8991 21.4886C82.4787 21.678 82.992 21.9545 83.4389 22.3182C83.8859 22.678 84.2495 23.1193 84.5298 23.642C84.8139 24.1648 84.9957 24.7633 85.0753 25.4375ZM90.7713 33.1705C89.8736 33.1705 89.1009 32.9886 88.4531 32.625C87.8092 32.2576 87.313 31.7386 86.9645 31.0682C86.616 30.3939 86.4418 29.5966 86.4418 28.6761C86.4418 27.7784 86.616 26.9905 86.9645 26.3125C87.313 25.6345 87.8035 25.1061 88.4361 24.7273C89.0724 24.3485 89.8187 24.1591 90.6747 24.1591C91.2505 24.1591 91.7865 24.2519 92.2827 24.4375C92.7827 24.6193 93.2183 24.8939 93.5895 25.2614C93.9645 25.6288 94.2562 26.0909 94.4645 26.6477C94.6728 27.2008 94.777 27.8485 94.777 28.5909V29.2557H87.4077V27.7557H92.4986C92.4986 27.4072 92.4228 27.0985 92.2713 26.8295C92.1198 26.5606 91.9096 26.3504 91.6406 26.1989C91.3755 26.0436 91.0668 25.9659 90.7145 25.9659C90.3471 25.9659 90.0213 26.0511 89.7372 26.2216C89.4569 26.3883 89.2372 26.6136 89.0781 26.8977C88.919 27.178 88.8376 27.4905 88.8338 27.8352V29.2614C88.8338 29.6932 88.9134 30.0663 89.0724 30.3807C89.2353 30.6951 89.4645 30.9375 89.7599 31.108C90.0554 31.2784 90.4058 31.3636 90.8111 31.3636C91.08 31.3636 91.3262 31.3258 91.5497 31.25C91.7732 31.1742 91.9645 31.0606 92.1236 30.9091C92.2827 30.7576 92.4039 30.572 92.4872 30.3523L94.7259 30.5C94.6122 31.0379 94.3793 31.5076 94.027 31.9091C93.6785 32.3068 93.2277 32.6174 92.6747 32.8409C92.1255 33.0606 91.491 33.1705 90.7713 33.1705ZM96.3565 33V24.2727H98.7031V25.7955H98.794C98.9531 25.2538 99.2202 24.8447 99.5952 24.5682C99.9702 24.2879 100.402 24.1477 100.891 24.1477C101.012 24.1477 101.143 24.1553 101.283 24.1705C101.423 24.1856 101.546 24.2064 101.652 24.233V26.3807C101.538 26.3466 101.381 26.3163 101.18 26.2898C100.98 26.2633 100.796 26.25 100.629 26.25C100.273 26.25 99.955 26.3277 99.6747 26.483C99.3982 26.6345 99.1785 26.8466 99.0156 27.1193C98.8565 27.392 98.777 27.7064 98.777 28.0625V33H96.3565ZM107.983 24.2727V26.0909H102.727V24.2727H107.983ZM103.92 22.1818H106.341V30.3182C106.341 30.5417 106.375 30.7159 106.443 30.8409C106.511 30.9621 106.606 31.0473 106.727 31.0966C106.852 31.1458 106.996 31.1705 107.159 31.1705C107.273 31.1705 107.386 31.161 107.5 31.142C107.614 31.1193 107.701 31.1023 107.761 31.0909L108.142 32.892C108.021 32.9299 107.85 32.9735 107.631 33.0227C107.411 33.0758 107.144 33.108 106.83 33.1193C106.246 33.142 105.735 33.0644 105.295 32.8864C104.86 32.7083 104.521 32.4318 104.278 32.0568C104.036 31.6818 103.917 31.2083 103.92 30.6364V22.1818ZM109.56 33V24.2727H111.98V33H109.56ZM110.776 23.1477C110.416 23.1477 110.107 23.0284 109.849 22.7898C109.596 22.5473 109.469 22.2576 109.469 21.9205C109.469 21.5871 109.596 21.3011 109.849 21.0625C110.107 20.8201 110.416 20.6989 110.776 20.6989C111.135 20.6989 111.442 20.8201 111.696 21.0625C111.954 21.3011 112.082 21.5871 112.082 21.9205C112.082 22.2576 111.954 22.5473 111.696 22.7898C111.442 23.0284 111.135 23.1477 110.776 23.1477ZM118.612 24.2727V26.0909H113.226V24.2727H118.612ZM114.459 33V23.642C114.459 23.0095 114.582 22.4848 114.828 22.0682C115.078 21.6515 115.419 21.339 115.851 21.1307C116.283 20.9223 116.773 20.8182 117.322 20.8182C117.694 20.8182 118.033 20.8466 118.339 20.9034C118.65 20.9602 118.881 21.0114 119.033 21.0568L118.601 22.875C118.506 22.8447 118.389 22.8163 118.249 22.7898C118.112 22.7633 117.972 22.75 117.828 22.75C117.472 22.75 117.224 22.8333 117.084 23C116.944 23.1629 116.874 23.392 116.874 23.6875V33H114.459ZM120.091 33V24.2727H122.511V33H120.091ZM121.307 23.1477C120.947 23.1477 120.638 23.0284 120.381 22.7898C120.127 22.5473 120 22.2576 120 21.9205C120 21.5871 120.127 21.3011 120.381 21.0625C120.638 20.8201 120.947 20.6989 121.307 20.6989C121.667 20.6989 121.973 20.8201 122.227 21.0625C122.485 21.3011 122.614 21.5871 122.614 21.9205C122.614 22.2576 122.485 22.5473 122.227 22.7898C121.973 23.0284 121.667 23.1477 121.307 23.1477ZM128.428 33.1705C127.53 33.1705 126.757 32.9886 126.109 32.625C125.465 32.2576 124.969 31.7386 124.621 31.0682C124.272 30.3939 124.098 29.5966 124.098 28.6761C124.098 27.7784 124.272 26.9905 124.621 26.3125C124.969 25.6345 125.46 25.1061 126.092 24.7273C126.729 24.3485 127.475 24.1591 128.331 24.1591C128.907 24.1591 129.443 24.2519 129.939 24.4375C130.439 24.6193 130.875 24.8939 131.246 25.2614C131.621 25.6288 131.912 26.0909 132.121 26.6477C132.329 27.2008 132.433 27.8485 132.433 28.5909V29.2557H125.064V27.7557H130.155C130.155 27.4072 130.079 27.0985 129.928 26.8295C129.776 26.5606 129.566 26.3504 129.297 26.1989C129.032 26.0436 128.723 25.9659 128.371 25.9659C128.003 25.9659 127.678 26.0511 127.393 26.2216C127.113 26.3883 126.893 26.6136 126.734 26.8977C126.575 27.178 126.494 27.4905 126.49 27.8352V29.2614C126.49 29.6932 126.57 30.0663 126.729 30.3807C126.892 30.6951 127.121 30.9375 127.416 31.108C127.712 31.2784 128.062 31.3636 128.467 31.3636C128.736 31.3636 128.982 31.3258 129.206 31.25C129.429 31.1742 129.621 31.0606 129.78 30.9091C129.939 30.7576 130.06 30.572 130.143 30.3523L132.382 30.5C132.268 31.0379 132.036 31.5076 131.683 31.9091C131.335 32.3068 130.884 32.6174 130.331 32.8409C129.782 33.0606 129.147 33.1705 128.428 33.1705ZM137.229 33.142C136.566 33.142 135.965 32.9716 135.428 32.6307C134.893 32.286 134.469 31.7803 134.155 31.1136C133.844 30.4432 133.689 29.6212 133.689 28.6477C133.689 27.6477 133.85 26.8163 134.172 26.1534C134.494 25.4867 134.922 24.9886 135.456 24.6591C135.994 24.3258 136.583 24.1591 137.223 24.1591C137.712 24.1591 138.119 24.2424 138.445 24.4091C138.774 24.572 139.039 24.7765 139.24 25.0227C139.445 25.2652 139.6 25.5038 139.706 25.7386H139.78V21.3636H142.195V33H139.808V31.6023H139.706C139.592 31.8447 139.431 32.0852 139.223 32.3239C139.018 32.5587 138.751 32.7538 138.422 32.9091C138.096 33.0644 137.698 33.142 137.229 33.142ZM137.996 31.2159C138.386 31.2159 138.715 31.1098 138.984 30.8977C139.257 30.6818 139.465 30.3807 139.609 29.9943C139.757 29.608 139.831 29.1553 139.831 28.6364C139.831 28.1174 139.759 27.6667 139.615 27.2841C139.471 26.9015 139.263 26.6061 138.99 26.3977C138.717 26.1894 138.386 26.0852 137.996 26.0852C137.598 26.0852 137.263 26.1932 136.99 26.4091C136.717 26.625 136.511 26.9242 136.371 27.3068C136.231 27.6894 136.161 28.1326 136.161 28.6364C136.161 29.1439 136.231 29.5928 136.371 29.983C136.515 30.3693 136.721 30.6723 136.99 30.892C137.263 31.108 137.598 31.2159 137.996 31.2159ZM154.246 24.7102C154.2 24.2519 154.005 23.8958 153.661 23.642C153.316 23.3883 152.848 23.2614 152.257 23.2614C151.856 23.2614 151.517 23.3182 151.24 23.4318C150.964 23.5417 150.751 23.6951 150.604 23.892C150.46 24.089 150.388 24.3125 150.388 24.5625C150.38 24.7708 150.424 24.9527 150.518 25.108C150.617 25.2633 150.751 25.3977 150.922 25.5114C151.092 25.6212 151.289 25.7178 151.513 25.8011C151.736 25.8807 151.975 25.9489 152.229 26.0057L153.274 26.2557C153.782 26.3693 154.248 26.5208 154.672 26.7102C155.096 26.8996 155.464 27.1326 155.774 27.4091C156.085 27.6856 156.325 28.0114 156.496 28.3864C156.67 28.7614 156.759 29.1913 156.763 29.6761C156.759 30.3883 156.577 31.0057 156.217 31.5284C155.861 32.0473 155.346 32.4508 154.672 32.7386C154.001 33.0227 153.193 33.1648 152.246 33.1648C151.306 33.1648 150.488 33.0208 149.791 32.733C149.098 32.4451 148.556 32.0189 148.166 31.4545C147.78 30.8864 147.577 30.1837 147.558 29.3466H149.939C149.965 29.7367 150.077 30.0625 150.274 30.3239C150.475 30.5814 150.742 30.7765 151.075 30.9091C151.412 31.0379 151.793 31.1023 152.217 31.1023C152.634 31.1023 152.996 31.0417 153.303 30.9205C153.613 30.7992 153.854 30.6307 154.024 30.4148C154.195 30.1989 154.28 29.9508 154.28 29.6705C154.28 29.4091 154.202 29.1894 154.047 29.0114C153.895 28.8333 153.672 28.6818 153.376 28.5568C153.085 28.4318 152.727 28.3182 152.303 28.2159L151.036 27.8977C150.054 27.6591 149.28 27.286 148.712 26.7784C148.143 26.2708 147.861 25.5871 147.865 24.7273C147.861 24.0227 148.049 23.4072 148.428 22.8807C148.81 22.3542 149.335 21.9432 150.001 21.6477C150.668 21.3523 151.426 21.2045 152.274 21.2045C153.138 21.2045 153.892 21.3523 154.536 21.6477C155.183 21.9432 155.687 22.3542 156.047 22.8807C156.407 23.4072 156.592 24.017 156.604 24.7102H154.246ZM163.014 24.2727V26.0909H157.759V24.2727H163.014ZM158.952 22.1818H161.372V30.3182C161.372 30.5417 161.406 30.7159 161.474 30.8409C161.543 30.9621 161.637 31.0473 161.759 31.0966C161.884 31.1458 162.027 31.1705 162.19 31.1705C162.304 31.1705 162.418 31.161 162.531 31.142C162.645 31.1193 162.732 31.1023 162.793 31.0909L163.173 32.892C163.052 32.9299 162.882 32.9735 162.662 33.0227C162.442 33.0758 162.175 33.108 161.861 33.1193C161.277 33.142 160.766 33.0644 160.327 32.8864C159.891 32.7083 159.552 32.4318 159.31 32.0568C159.067 31.6818 158.948 31.2083 158.952 30.6364V22.1818ZM170.188 29.2841V24.2727H172.608V33H170.284V31.4148H170.193C169.996 31.9261 169.669 32.3371 169.21 32.6477C168.756 32.9583 168.201 33.1136 167.545 33.1136C166.962 33.1136 166.449 32.9811 166.006 32.7159C165.563 32.4508 165.216 32.0739 164.966 31.5852C164.72 31.0966 164.595 30.5114 164.591 29.8295V24.2727H167.011V29.3977C167.015 29.9129 167.153 30.3201 167.426 30.6193C167.699 30.9186 168.064 31.0682 168.523 31.0682C168.814 31.0682 169.087 31.0019 169.341 30.8693C169.595 30.733 169.799 30.5322 169.955 30.267C170.114 30.0019 170.191 29.6742 170.188 29.2841ZM177.76 33.142C177.097 33.142 176.497 32.9716 175.959 32.6307C175.425 32.286 175 31.7803 174.686 31.1136C174.375 30.4432 174.22 29.6212 174.22 28.6477C174.22 27.6477 174.381 26.8163 174.703 26.1534C175.025 25.4867 175.453 24.9886 175.987 24.6591C176.525 24.3258 177.114 24.1591 177.754 24.1591C178.243 24.1591 178.65 24.2424 178.976 24.4091C179.305 24.572 179.571 24.7765 179.771 25.0227C179.976 25.2652 180.131 25.5038 180.237 25.7386H180.311V21.3636H182.726V33H180.339V31.6023H180.237C180.124 31.8447 179.963 32.0852 179.754 32.3239C179.55 32.5587 179.283 32.7538 178.953 32.9091C178.627 33.0644 178.23 33.142 177.76 33.142ZM178.527 31.2159C178.917 31.2159 179.247 31.1098 179.516 30.8977C179.788 30.6818 179.997 30.3807 180.141 29.9943C180.288 29.608 180.362 29.1553 180.362 28.6364C180.362 28.1174 180.29 27.6667 180.146 27.2841C180.002 26.9015 179.794 26.6061 179.521 26.3977C179.249 26.1894 178.917 26.0852 178.527 26.0852C178.129 26.0852 177.794 26.1932 177.521 26.4091C177.249 26.625 177.042 26.9242 176.902 27.3068C176.762 27.6894 176.692 28.1326 176.692 28.6364C176.692 29.1439 176.762 29.5928 176.902 29.983C177.046 30.3693 177.252 30.6723 177.521 30.892C177.794 31.108 178.129 31.2159 178.527 31.2159ZM188.693 33.1705C187.795 33.1705 187.023 32.9886 186.375 32.625C185.731 32.2576 185.235 31.7386 184.886 31.0682C184.538 30.3939 184.364 29.5966 184.364 28.6761C184.364 27.7784 184.538 26.9905 184.886 26.3125C185.235 25.6345 185.725 25.1061 186.358 24.7273C186.994 24.3485 187.741 24.1591 188.597 24.1591C189.172 24.1591 189.708 24.2519 190.205 24.4375C190.705 24.6193 191.14 24.8939 191.511 25.2614C191.886 25.6288 192.178 26.0909 192.386 26.6477C192.595 27.2008 192.699 27.8485 192.699 28.5909V29.2557H185.33V27.7557H190.42C190.42 27.4072 190.345 27.0985 190.193 26.8295C190.042 26.5606 189.831 26.3504 189.562 26.1989C189.297 26.0436 188.989 25.9659 188.636 25.9659C188.269 25.9659 187.943 26.0511 187.659 26.2216C187.379 26.3883 187.159 26.6136 187 26.8977C186.841 27.178 186.759 27.4905 186.756 27.8352V29.2614C186.756 29.6932 186.835 30.0663 186.994 30.3807C187.157 30.6951 187.386 30.9375 187.682 31.108C187.977 31.2784 188.328 31.3636 188.733 31.3636C189.002 31.3636 189.248 31.3258 189.472 31.25C189.695 31.1742 189.886 31.0606 190.045 30.9091C190.205 30.7576 190.326 30.572 190.409 30.3523L192.648 30.5C192.534 31.0379 192.301 31.5076 191.949 31.9091C191.6 32.3068 191.15 32.6174 190.597 32.8409C190.047 33.0606 189.413 33.1705 188.693 33.1705ZM196.699 27.9545V33H194.278V24.2727H196.585V25.8125H196.688C196.881 25.3049 197.205 24.9034 197.659 24.608C198.114 24.3087 198.665 24.1591 199.312 24.1591C199.919 24.1591 200.447 24.2917 200.898 24.5568C201.348 24.822 201.699 25.2008 201.949 25.6932C202.199 26.1818 202.324 26.7652 202.324 27.4432V33H199.903V27.875C199.907 27.3409 199.771 26.9242 199.494 26.625C199.218 26.322 198.837 26.1705 198.352 26.1705C198.027 26.1705 197.739 26.2405 197.489 26.3807C197.242 26.5208 197.049 26.7254 196.909 26.9943C196.773 27.2595 196.703 27.5795 196.699 27.9545ZM208.874 24.2727V26.0909H203.618V24.2727H208.874ZM204.811 22.1818H207.232V30.3182C207.232 30.5417 207.266 30.7159 207.334 30.8409C207.402 30.9621 207.497 31.0473 207.618 31.0966C207.743 31.1458 207.887 31.1705 208.05 31.1705C208.163 31.1705 208.277 31.161 208.391 31.142C208.504 31.1193 208.591 31.1023 208.652 31.0909L209.033 32.892C208.911 32.9299 208.741 32.9735 208.521 33.0227C208.302 33.0758 208.035 33.108 207.72 33.1193C207.137 33.142 206.625 33.0644 206.186 32.8864C205.75 32.7083 205.411 32.4318 205.169 32.0568C204.927 31.6818 204.807 31.2083 204.811 30.6364V22.1818ZM217.602 26.7614L215.386 26.8977C215.348 26.7083 215.267 26.5379 215.142 26.3864C215.017 26.2311 214.852 26.108 214.648 26.017C214.447 25.9223 214.206 25.875 213.926 25.875C213.551 25.875 213.235 25.9545 212.977 26.1136C212.72 26.2689 212.591 26.4773 212.591 26.7386C212.591 26.947 212.674 27.1231 212.841 27.267C213.008 27.411 213.294 27.5265 213.699 27.6136L215.278 27.9318C216.127 28.1061 216.759 28.3864 217.176 28.7727C217.593 29.1591 217.801 29.6667 217.801 30.2955C217.801 30.8674 217.633 31.3693 217.295 31.8011C216.962 32.233 216.504 32.5701 215.92 32.8125C215.341 33.0511 214.672 33.1705 213.915 33.1705C212.759 33.1705 211.839 32.9299 211.153 32.4489C210.472 31.964 210.072 31.3049 209.955 30.4716L212.335 30.3466C212.407 30.6989 212.581 30.9678 212.858 31.1534C213.134 31.3352 213.489 31.4261 213.92 31.4261C214.345 31.4261 214.686 31.3447 214.943 31.1818C215.205 31.0152 215.337 30.8011 215.341 30.5398C215.337 30.3201 215.244 30.1402 215.062 30C214.881 29.8561 214.6 29.7462 214.222 29.6705L212.71 29.3693C211.858 29.1989 211.223 28.9034 210.807 28.483C210.394 28.0625 210.188 27.5265 210.188 26.875C210.188 26.3144 210.339 25.8314 210.642 25.4261C210.949 25.0208 211.379 24.7083 211.932 24.4886C212.489 24.2689 213.14 24.1591 213.886 24.1591C214.989 24.1591 215.856 24.392 216.489 24.858C217.125 25.3239 217.496 25.9583 217.602 26.7614Z" fill="#202224"/>
<path d="M32.1506 82.9318V80.0256L39.4375 68.5455H41.9432V72.5682H40.4602L35.8665 79.8381V79.9744H46.2216V82.9318H32.1506ZM40.5284 86V82.0455L40.5966 80.7585V68.5455H44.0568V86H40.5284ZM56.1918 86.2386C54.8793 86.2386 53.7116 86.0256 52.6889 85.5994C51.6719 85.1676 50.8736 84.5795 50.294 83.8352C49.7145 83.0909 49.4247 82.2472 49.4247 81.304C49.4247 80.5767 49.5895 79.9091 49.919 79.3011C50.2543 78.6875 50.7088 78.179 51.2827 77.7756C51.8565 77.3665 52.4986 77.1051 53.2088 76.9915V76.8722C52.277 76.6847 51.5213 76.233 50.9418 75.517C50.3622 74.7955 50.0724 73.9574 50.0724 73.0028C50.0724 72.0994 50.3366 71.2955 50.8651 70.5909C51.3935 69.8807 52.1179 69.3239 53.0384 68.9205C53.9645 68.5114 55.0156 68.3068 56.1918 68.3068C57.3679 68.3068 58.4162 68.5114 59.3366 68.9205C60.2628 69.3295 60.9901 69.8892 61.5185 70.5994C62.0469 71.304 62.3139 72.1051 62.3196 73.0028C62.3139 73.9631 62.0185 74.8011 61.4332 75.517C60.848 76.233 60.098 76.6847 59.1832 76.8722V76.9915C59.8821 77.1051 60.5156 77.3665 61.0838 77.7756C61.6577 78.179 62.1122 78.6875 62.4474 79.3011C62.7884 79.9091 62.9616 80.5767 62.9673 81.304C62.9616 82.2472 62.669 83.0909 62.0895 83.8352C61.5099 84.5795 60.7088 85.1676 59.6861 85.5994C58.669 86.0256 57.5043 86.2386 56.1918 86.2386ZM56.1918 83.5284C56.777 83.5284 57.2884 83.4233 57.7259 83.2131C58.1634 82.9972 58.5043 82.7017 58.7486 82.3267C58.9986 81.946 59.1236 81.5085 59.1236 81.0142C59.1236 80.5085 58.9957 80.0625 58.7401 79.6761C58.4844 79.2841 58.1378 78.9773 57.7003 78.7557C57.2628 78.5284 56.7599 78.4148 56.1918 78.4148C55.6293 78.4148 55.1264 78.5284 54.6832 78.7557C54.2401 78.9773 53.8906 79.2841 53.6349 79.6761C53.3849 80.0625 53.2599 80.5085 53.2599 81.0142C53.2599 81.5085 53.3821 81.946 53.6264 82.3267C53.8707 82.7017 54.2145 82.9972 54.6577 83.2131C55.1009 83.4233 55.6122 83.5284 56.1918 83.5284ZM56.1918 75.7301C56.6804 75.7301 57.1151 75.6307 57.4957 75.4318C57.8764 75.233 58.1747 74.9574 58.3906 74.6051C58.6065 74.2528 58.7145 73.8466 58.7145 73.3864C58.7145 72.9318 58.6065 72.5341 58.3906 72.1932C58.1747 71.8466 57.8793 71.5767 57.5043 71.3835C57.1293 71.1847 56.6918 71.0852 56.1918 71.0852C55.6974 71.0852 55.2599 71.1847 54.8793 71.3835C54.4986 71.5767 54.2003 71.8466 53.9844 72.1932C53.7741 72.5341 53.669 72.9318 53.669 73.3864C53.669 73.8466 53.777 74.2528 53.9929 74.6051C54.2088 74.9574 54.5071 75.233 54.8878 75.4318C55.2685 75.6307 55.7031 75.7301 56.1918 75.7301ZM72.8629 68.3068C73.7607 68.3068 74.6243 68.4574 75.4538 68.7585C76.2891 69.0597 77.0334 69.5398 77.6868 70.1989C78.3459 70.858 78.8658 71.733 79.2464 72.8239C79.6328 73.9091 79.8288 75.2415 79.8345 76.821C79.8345 78.304 79.6669 79.6278 79.3317 80.7926C79.0021 81.9517 78.5277 82.9375 77.9084 83.75C77.2891 84.5625 76.5419 85.1818 75.6669 85.608C74.7919 86.0284 73.8146 86.2386 72.7351 86.2386C71.5703 86.2386 70.5419 86.0142 69.6499 85.5653C68.7578 85.1108 68.0391 84.4943 67.4936 83.7159C66.9538 82.9318 66.6271 82.0511 66.5135 81.0739H70.1527C70.2947 81.7102 70.593 82.2045 71.0476 82.5568C71.5021 82.9034 72.0646 83.0767 72.7351 83.0767C73.8714 83.0767 74.7351 82.5824 75.326 81.5938C75.9169 80.5994 76.2152 79.2386 76.2209 77.5114H76.1016C75.8402 78.0227 75.4879 78.4631 75.0447 78.8324C74.6016 79.196 74.093 79.4773 73.5192 79.6761C72.951 79.875 72.3459 79.9744 71.7038 79.9744C70.6754 79.9744 69.7578 79.733 68.951 79.25C68.1442 78.767 67.5078 78.1023 67.0419 77.2557C66.576 76.4091 66.343 75.4432 66.343 74.358C66.3374 73.1875 66.6072 72.1449 67.1527 71.2301C67.6982 70.3153 68.4595 69.5994 69.4368 69.0824C70.4197 68.5597 71.5618 68.3011 72.8629 68.3068ZM72.8885 71.2045C72.3146 71.2045 71.8033 71.3409 71.3544 71.6136C70.9112 71.8864 70.5589 72.2528 70.2976 72.7131C70.0419 73.1733 69.9169 73.6875 69.9226 74.2557C69.9226 74.8295 70.0476 75.3466 70.2976 75.8068C70.5533 76.2614 70.8999 76.625 71.3374 76.8977C71.7805 77.1648 72.2862 77.2983 72.8544 77.2983C73.2805 77.2983 73.6754 77.2187 74.0391 77.0597C74.4027 76.9006 74.718 76.6818 74.9851 76.4034C75.2578 76.1193 75.4709 75.7926 75.6243 75.4233C75.7777 75.054 75.8544 74.6619 75.8544 74.2472C75.8487 73.696 75.718 73.1903 75.4624 72.7301C75.2067 72.2699 74.8544 71.9006 74.4055 71.6222C73.9567 71.3437 73.451 71.2045 72.8885 71.2045Z" fill="#202224"/>
<path d="M47 124L49.29 126.29L44.41 131.17L40.41 127.17L33 134.59L34.41 136L40.41 130L44.41 134L50.71 127.71L53 130V124H47Z" fill="#00B69B"/>
<path d="M68.0511 134.159C67.2367 134.159 66.517 134.019 65.892 133.739C65.2708 133.458 64.7841 133.072 64.4318 132.58C64.0795 132.087 63.9053 131.527 63.9091 130.898C63.9053 130.405 64.0057 129.953 64.2102 129.54C64.4186 129.123 64.7008 128.777 65.0568 128.5C65.4129 128.22 65.8106 128.042 66.25 127.966V127.898C65.6705 127.758 65.2064 127.447 64.858 126.966C64.5095 126.485 64.3371 125.932 64.3409 125.307C64.3371 124.712 64.4943 124.182 64.8125 123.716C65.1345 123.246 65.5758 122.877 66.1364 122.608C66.697 122.339 67.3352 122.205 68.0511 122.205C68.7595 122.205 69.392 122.341 69.9489 122.614C70.5095 122.883 70.9508 123.252 71.2727 123.722C71.5947 124.187 71.7576 124.716 71.7614 125.307C71.7576 125.932 71.5795 126.485 71.2273 126.966C70.875 127.447 70.4167 127.758 69.8523 127.898V127.966C70.2879 128.042 70.6799 128.22 71.0284 128.5C71.3807 128.777 71.661 129.123 71.8693 129.54C72.0814 129.953 72.1894 130.405 72.1932 130.898C72.1894 131.527 72.0114 132.087 71.6591 132.58C71.3068 133.072 70.8182 133.458 70.1932 133.739C69.572 134.019 68.858 134.159 68.0511 134.159ZM68.0511 132.722C68.5322 132.722 68.9489 132.642 69.3011 132.483C69.6534 132.32 69.9261 132.095 70.1193 131.807C70.3125 131.515 70.411 131.174 70.4148 130.784C70.411 130.379 70.3049 130.021 70.0966 129.71C69.892 129.4 69.6136 129.155 69.2614 128.977C68.9091 128.799 68.5057 128.71 68.0511 128.71C67.5928 128.71 67.1856 128.799 66.8295 128.977C66.4735 129.155 66.1932 129.4 65.9886 129.71C65.7841 130.021 65.6837 130.379 65.6875 130.784C65.6837 131.174 65.7765 131.515 65.9659 131.807C66.1591 132.095 66.4337 132.32 66.7898 132.483C67.1458 132.642 67.5663 132.722 68.0511 132.722ZM68.0511 127.307C68.4375 127.307 68.7803 127.229 69.0795 127.074C69.3788 126.919 69.6136 126.703 69.7841 126.426C69.9583 126.15 70.0473 125.826 70.0511 125.455C70.0473 125.091 69.9602 124.773 69.7898 124.5C69.6231 124.227 69.3902 124.017 69.0909 123.869C68.7917 123.718 68.4451 123.642 68.0511 123.642C67.6496 123.642 67.2973 123.718 66.9943 123.869C66.6951 124.017 66.4621 124.227 66.2955 124.5C66.1288 124.773 66.0473 125.091 66.0511 125.455C66.0473 125.826 66.1307 126.15 66.3011 126.426C66.4716 126.703 66.7064 126.919 67.0057 127.074C67.3087 127.229 67.6572 127.307 68.0511 127.307ZM75.027 134.108C74.7164 134.108 74.4493 133.998 74.2259 133.778C74.0024 133.555 73.8906 133.286 73.8906 132.972C73.8906 132.661 74.0024 132.396 74.2259 132.176C74.4493 131.953 74.7164 131.841 75.027 131.841C75.3376 131.841 75.6046 131.953 75.8281 132.176C76.0516 132.396 76.1634 132.661 76.1634 132.972C76.1634 133.18 76.1103 133.371 76.0043 133.545C75.902 133.716 75.7656 133.852 75.5952 133.955C75.4247 134.057 75.2353 134.108 75.027 134.108ZM82.0696 134.159C81.3575 134.159 80.7173 134.023 80.1491 133.75C79.5848 133.473 79.134 133.095 78.7969 132.614C78.4598 132.133 78.2798 131.583 78.2571 130.966H79.9616C80.0033 131.466 80.2249 131.877 80.6264 132.199C81.0279 132.521 81.509 132.682 82.0696 132.682C82.5166 132.682 82.9124 132.58 83.2571 132.375C83.6056 132.167 83.8783 131.881 84.0753 131.517C84.276 131.153 84.3764 130.739 84.3764 130.273C84.3764 129.799 84.2741 129.377 84.0696 129.006C83.8651 128.634 83.5829 128.343 83.223 128.131C82.867 127.919 82.4579 127.811 81.9957 127.807C81.6435 127.807 81.2893 127.867 80.9332 127.989C80.5772 128.11 80.2893 128.269 80.0696 128.466L78.4616 128.227L79.1151 122.364H85.5128V123.869H80.5753L80.206 127.125H80.2741C80.5014 126.905 80.8026 126.722 81.1776 126.574C81.5563 126.426 81.9616 126.352 82.3935 126.352C83.1018 126.352 83.7325 126.521 84.2855 126.858C84.8423 127.195 85.2798 127.655 85.598 128.239C85.92 128.818 86.0791 129.485 86.0753 130.239C86.0791 130.992 85.9086 131.665 85.5639 132.256C85.223 132.847 84.7495 133.312 84.1435 133.653C83.5412 133.991 82.8499 134.159 82.0696 134.159ZM94.2244 131.818V131.205C94.2244 130.765 94.3153 130.364 94.4972 130C94.6828 129.633 94.9517 129.339 95.304 129.119C95.66 128.896 96.09 128.784 96.5938 128.784C97.1089 128.784 97.5407 128.894 97.8892 129.114C98.2377 129.333 98.5009 129.627 98.679 129.994C98.8608 130.362 98.9517 130.765 98.9517 131.205V131.818C98.9517 132.258 98.8608 132.661 98.679 133.028C98.4972 133.392 98.2301 133.686 97.8778 133.909C97.5294 134.129 97.1013 134.239 96.5938 134.239C96.0824 134.239 95.6506 134.129 95.2983 133.909C94.946 133.686 94.679 133.392 94.4972 133.028C94.3153 132.661 94.2244 132.258 94.2244 131.818ZM95.5483 131.205V131.818C95.5483 132.144 95.6259 132.439 95.7812 132.705C95.9366 132.97 96.2074 133.102 96.5938 133.102C96.9763 133.102 97.2434 132.97 97.3949 132.705C97.5464 132.439 97.6222 132.144 97.6222 131.818V131.205C97.6222 130.879 97.5483 130.583 97.4006 130.318C97.2566 130.053 96.9877 129.92 96.5938 129.92C96.215 129.92 95.946 130.053 95.7869 130.318C95.6278 130.583 95.5483 130.879 95.5483 131.205ZM88.3722 125.159V124.545C88.3722 124.106 88.4631 123.703 88.6449 123.335C88.8305 122.968 89.0994 122.674 89.4517 122.455C89.8078 122.235 90.2377 122.125 90.7415 122.125C91.2566 122.125 91.6884 122.235 92.0369 122.455C92.3854 122.674 92.6487 122.968 92.8267 123.335C93.0047 123.703 93.0938 124.106 93.0938 124.545V125.159C93.0938 125.598 93.0028 126.002 92.821 126.369C92.643 126.733 92.3778 127.027 92.0256 127.25C91.6771 127.47 91.2491 127.58 90.7415 127.58C90.2263 127.58 89.7926 127.47 89.4403 127.25C89.0919 127.027 88.8267 126.733 88.6449 126.369C88.4631 126.002 88.3722 125.598 88.3722 125.159ZM89.7017 124.545V125.159C89.7017 125.485 89.7775 125.78 89.929 126.045C90.0843 126.311 90.3551 126.443 90.7415 126.443C91.1203 126.443 91.3854 126.311 91.5369 126.045C91.6922 125.78 91.7699 125.485 91.7699 125.159V124.545C91.7699 124.22 91.696 123.924 91.5483 123.659C91.4006 123.394 91.1316 123.261 90.7415 123.261C90.3627 123.261 90.0938 123.394 89.9347 123.659C89.7794 123.924 89.7017 124.22 89.7017 124.545ZM88.9119 134L96.9119 122.364H98.2699L90.2699 134H88.9119Z" fill="#00B69B"/>
<path d="M113.277 122.364H115.038V130.017C115.038 130.831 114.847 131.553 114.464 132.182C114.082 132.807 113.544 133.299 112.851 133.659C112.158 134.015 111.345 134.193 110.413 134.193C109.485 134.193 108.675 134.015 107.982 133.659C107.288 133.299 106.75 132.807 106.368 132.182C105.985 131.553 105.794 130.831 105.794 130.017V122.364H107.55V129.875C107.55 130.402 107.665 130.869 107.896 131.278C108.131 131.688 108.463 132.009 108.891 132.244C109.319 132.475 109.826 132.591 110.413 132.591C111.004 132.591 111.514 132.475 111.942 132.244C112.374 132.009 112.703 131.688 112.93 131.278C113.161 130.869 113.277 130.402 113.277 129.875V122.364ZM117.455 137.273V125.273H119.114V126.688H119.256C119.354 126.506 119.496 126.295 119.682 126.057C119.867 125.818 120.125 125.61 120.455 125.432C120.784 125.25 121.22 125.159 121.761 125.159C122.466 125.159 123.095 125.337 123.648 125.693C124.201 126.049 124.634 126.562 124.949 127.233C125.267 127.903 125.426 128.71 125.426 129.653C125.426 130.597 125.269 131.405 124.955 132.08C124.64 132.75 124.208 133.267 123.659 133.631C123.11 133.991 122.483 134.17 121.778 134.17C121.248 134.17 120.814 134.081 120.477 133.903C120.144 133.725 119.883 133.517 119.693 133.278C119.504 133.04 119.358 132.828 119.256 132.642H119.153V137.273H117.455ZM119.119 129.636C119.119 130.25 119.208 130.788 119.386 131.25C119.564 131.712 119.822 132.074 120.159 132.335C120.496 132.593 120.909 132.722 121.398 132.722C121.905 132.722 122.33 132.587 122.67 132.318C123.011 132.045 123.269 131.676 123.443 131.21C123.621 130.744 123.71 130.22 123.71 129.636C123.71 129.061 123.623 128.544 123.449 128.085C123.278 127.627 123.021 127.265 122.676 127C122.335 126.735 121.909 126.602 121.398 126.602C120.905 126.602 120.489 126.729 120.148 126.983C119.811 127.237 119.555 127.591 119.381 128.045C119.206 128.5 119.119 129.03 119.119 129.636ZM135.717 125.273V126.636H130.786V125.273H135.717ZM132.138 134V124.261C132.138 123.716 132.257 123.263 132.496 122.903C132.734 122.54 133.051 122.269 133.445 122.091C133.839 121.909 134.267 121.818 134.729 121.818C135.07 121.818 135.361 121.847 135.604 121.903C135.846 121.956 136.026 122.006 136.143 122.051L135.746 123.426C135.666 123.403 135.564 123.377 135.439 123.347C135.314 123.312 135.162 123.295 134.984 123.295C134.571 123.295 134.276 123.398 134.098 123.602C133.924 123.807 133.837 124.102 133.837 124.489V134H132.138ZM137.47 134V125.273H139.112V126.659H139.203C139.362 126.189 139.643 125.82 140.044 125.551C140.449 125.278 140.908 125.142 141.419 125.142C141.525 125.142 141.65 125.146 141.794 125.153C141.942 125.161 142.057 125.17 142.141 125.182V126.807C142.072 126.788 141.951 126.767 141.777 126.744C141.603 126.718 141.429 126.705 141.254 126.705C140.853 126.705 140.495 126.79 140.18 126.96C139.87 127.127 139.624 127.36 139.442 127.659C139.26 127.955 139.169 128.292 139.169 128.67V134H137.47ZM146.974 134.176C146.156 134.176 145.442 133.989 144.832 133.614C144.223 133.239 143.749 132.714 143.412 132.04C143.075 131.366 142.906 130.578 142.906 129.676C142.906 128.771 143.075 127.979 143.412 127.301C143.749 126.623 144.223 126.097 144.832 125.722C145.442 125.347 146.156 125.159 146.974 125.159C147.793 125.159 148.507 125.347 149.116 125.722C149.726 126.097 150.2 126.623 150.537 127.301C150.874 127.979 151.043 128.771 151.043 129.676C151.043 130.578 150.874 131.366 150.537 132.04C150.2 132.714 149.726 133.239 149.116 133.614C148.507 133.989 147.793 134.176 146.974 134.176ZM146.98 132.75C147.51 132.75 147.95 132.61 148.298 132.33C148.647 132.049 148.904 131.676 149.071 131.21C149.241 130.744 149.327 130.231 149.327 129.67C149.327 129.114 149.241 128.602 149.071 128.136C148.904 127.667 148.647 127.29 148.298 127.006C147.95 126.722 147.51 126.58 146.98 126.58C146.446 126.58 146.003 126.722 145.651 127.006C145.302 127.29 145.043 127.667 144.872 128.136C144.705 128.602 144.622 129.114 144.622 129.67C144.622 130.231 144.705 130.744 144.872 131.21C145.043 131.676 145.302 132.049 145.651 132.33C146.003 132.61 146.446 132.75 146.98 132.75ZM152.939 134V125.273H154.57V126.693H154.678C154.859 126.212 155.157 125.837 155.57 125.568C155.982 125.295 156.477 125.159 157.053 125.159C157.636 125.159 158.125 125.295 158.518 125.568C158.916 125.841 159.21 126.216 159.399 126.693H159.49C159.698 126.227 160.03 125.856 160.484 125.58C160.939 125.299 161.481 125.159 162.109 125.159C162.901 125.159 163.547 125.407 164.047 125.903C164.551 126.4 164.803 127.148 164.803 128.148V134H163.104V128.307C163.104 127.716 162.943 127.288 162.621 127.023C162.299 126.758 161.914 126.625 161.467 126.625C160.914 126.625 160.484 126.795 160.178 127.136C159.871 127.473 159.717 127.907 159.717 128.438V134H158.024V128.199C158.024 127.725 157.876 127.345 157.581 127.057C157.286 126.769 156.901 126.625 156.428 126.625C156.106 126.625 155.808 126.71 155.536 126.881C155.267 127.047 155.049 127.28 154.882 127.58C154.719 127.879 154.638 128.225 154.638 128.619V134H152.939ZM172.388 137.273C172.134 137.273 171.903 137.252 171.695 137.21C171.486 137.172 171.331 137.131 171.229 137.085L171.638 135.693C171.948 135.777 172.225 135.813 172.467 135.801C172.71 135.79 172.924 135.699 173.109 135.528C173.299 135.358 173.465 135.08 173.609 134.693L173.82 134.114L170.626 125.273H172.445L174.655 132.045H174.746L176.956 125.273H178.78L175.183 135.165C175.017 135.619 174.804 136.004 174.547 136.318C174.289 136.636 173.982 136.875 173.626 137.034C173.27 137.193 172.857 137.273 172.388 137.273ZM183.841 134.176C182.981 134.176 182.241 133.992 181.619 133.625C181.002 133.254 180.525 132.733 180.188 132.062C179.854 131.388 179.688 130.598 179.688 129.693C179.688 128.799 179.854 128.011 180.188 127.33C180.525 126.648 180.994 126.116 181.597 125.733C182.203 125.35 182.911 125.159 183.722 125.159C184.214 125.159 184.691 125.241 185.153 125.403C185.616 125.566 186.03 125.822 186.398 126.17C186.765 126.519 187.055 126.972 187.267 127.528C187.479 128.081 187.585 128.754 187.585 129.545V130.148H180.648V128.875H185.92C185.92 128.428 185.83 128.032 185.648 127.688C185.466 127.339 185.21 127.064 184.881 126.864C184.555 126.663 184.172 126.562 183.733 126.562C183.256 126.562 182.839 126.68 182.483 126.915C182.131 127.146 181.858 127.449 181.665 127.824C181.475 128.195 181.381 128.598 181.381 129.034V130.028C181.381 130.612 181.483 131.108 181.688 131.517C181.896 131.926 182.186 132.239 182.557 132.455C182.928 132.667 183.362 132.773 183.858 132.773C184.18 132.773 184.473 132.727 184.739 132.636C185.004 132.542 185.233 132.402 185.426 132.216C185.619 132.03 185.767 131.801 185.869 131.528L187.477 131.818C187.348 132.292 187.117 132.706 186.784 133.062C186.455 133.415 186.04 133.689 185.54 133.886C185.044 134.08 184.477 134.176 183.841 134.176ZM196.01 127.403L194.47 127.676C194.406 127.479 194.304 127.292 194.163 127.114C194.027 126.936 193.841 126.79 193.607 126.676C193.372 126.562 193.078 126.506 192.726 126.506C192.245 126.506 191.843 126.614 191.521 126.83C191.199 127.042 191.038 127.316 191.038 127.653C191.038 127.945 191.146 128.18 191.362 128.358C191.578 128.536 191.927 128.682 192.408 128.795L193.794 129.114C194.597 129.299 195.196 129.585 195.589 129.972C195.983 130.358 196.18 130.86 196.18 131.477C196.18 132 196.029 132.466 195.726 132.875C195.427 133.28 195.008 133.598 194.47 133.83C193.936 134.061 193.317 134.176 192.612 134.176C191.635 134.176 190.838 133.968 190.22 133.551C189.603 133.131 189.224 132.534 189.084 131.761L190.726 131.511C190.828 131.939 191.038 132.263 191.357 132.483C191.675 132.699 192.089 132.807 192.601 132.807C193.158 132.807 193.603 132.691 193.936 132.46C194.269 132.225 194.436 131.939 194.436 131.602C194.436 131.33 194.334 131.1 194.129 130.915C193.929 130.729 193.62 130.589 193.203 130.494L191.726 130.17C190.911 129.985 190.309 129.689 189.919 129.284C189.533 128.879 189.339 128.366 189.339 127.744C189.339 127.229 189.483 126.778 189.771 126.392C190.059 126.006 190.457 125.705 190.964 125.489C191.472 125.269 192.054 125.159 192.709 125.159C193.652 125.159 194.394 125.364 194.936 125.773C195.478 126.178 195.836 126.722 196.01 127.403ZM202.122 125.273V126.636H197.355V125.273H202.122ZM198.634 123.182H200.332V131.438C200.332 131.767 200.382 132.015 200.48 132.182C200.579 132.345 200.705 132.456 200.861 132.517C201.02 132.574 201.192 132.602 201.378 132.602C201.514 132.602 201.634 132.593 201.736 132.574C201.838 132.555 201.918 132.54 201.974 132.528L202.281 133.932C202.183 133.97 202.043 134.008 201.861 134.045C201.679 134.087 201.452 134.11 201.179 134.114C200.732 134.121 200.315 134.042 199.929 133.875C199.543 133.708 199.23 133.451 198.991 133.102C198.753 132.754 198.634 132.316 198.634 131.79V123.182ZM207.669 134.176C206.809 134.176 206.069 133.992 205.447 133.625C204.83 133.254 204.353 132.733 204.016 132.062C203.682 131.388 203.516 130.598 203.516 129.693C203.516 128.799 203.682 128.011 204.016 127.33C204.353 126.648 204.822 126.116 205.425 125.733C206.031 125.35 206.739 125.159 207.55 125.159C208.042 125.159 208.519 125.241 208.982 125.403C209.444 125.566 209.858 125.822 210.226 126.17C210.593 126.519 210.883 126.972 211.095 127.528C211.307 128.081 211.413 128.754 211.413 129.545V130.148H204.476V128.875H209.749C209.749 128.428 209.658 128.032 209.476 127.688C209.294 127.339 209.038 127.064 208.709 126.864C208.383 126.663 208 126.562 207.561 126.562C207.084 126.562 206.667 126.68 206.311 126.915C205.959 127.146 205.686 127.449 205.493 127.824C205.304 128.195 205.209 128.598 205.209 129.034V130.028C205.209 130.612 205.311 131.108 205.516 131.517C205.724 131.926 206.014 132.239 206.385 132.455C206.756 132.667 207.19 132.773 207.686 132.773C208.008 132.773 208.302 132.727 208.567 132.636C208.832 132.542 209.061 132.402 209.254 132.216C209.447 132.03 209.595 131.801 209.697 131.528L211.305 131.818C211.177 132.292 210.946 132.706 210.612 133.062C210.283 133.415 209.868 133.689 209.368 133.886C208.872 134.08 208.305 134.176 207.669 134.176ZM213.298 134V125.273H214.94V126.659H215.031C215.19 126.189 215.471 125.82 215.872 125.551C216.277 125.278 216.736 125.142 217.247 125.142C217.353 125.142 217.478 125.146 217.622 125.153C217.77 125.161 217.885 125.17 217.969 125.182V126.807C217.901 126.788 217.779 126.767 217.605 126.744C217.431 126.718 217.257 126.705 217.082 126.705C216.681 126.705 216.323 126.79 216.009 126.96C215.698 127.127 215.452 127.36 215.27 127.659C215.088 127.955 214.997 128.292 214.997 128.67V134H213.298ZM222.393 134.17C221.689 134.17 221.06 133.991 220.507 133.631C219.958 133.267 219.526 132.75 219.212 132.08C218.901 131.405 218.746 130.597 218.746 129.653C218.746 128.71 218.903 127.903 219.217 127.233C219.536 126.562 219.971 126.049 220.524 125.693C221.077 125.337 221.704 125.159 222.405 125.159C222.946 125.159 223.382 125.25 223.712 125.432C224.045 125.61 224.303 125.818 224.484 126.057C224.67 126.295 224.814 126.506 224.916 126.688H225.018V122.364H226.717V134H225.058V132.642H224.916C224.814 132.828 224.666 133.04 224.473 133.278C224.284 133.517 224.022 133.725 223.689 133.903C223.356 134.081 222.924 134.17 222.393 134.17ZM222.768 132.722C223.257 132.722 223.67 132.593 224.007 132.335C224.348 132.074 224.606 131.712 224.78 131.25C224.958 130.788 225.047 130.25 225.047 129.636C225.047 129.03 224.96 128.5 224.786 128.045C224.611 127.591 224.356 127.237 224.018 126.983C223.681 126.729 223.265 126.602 222.768 126.602C222.257 126.602 221.831 126.735 221.49 127C221.149 127.265 220.892 127.627 220.717 128.085C220.547 128.544 220.462 129.061 220.462 129.636C220.462 130.22 220.549 130.744 220.723 131.21C220.897 131.676 221.155 132.045 221.496 132.318C221.84 132.587 222.265 132.722 222.768 132.722ZM231.682 134.193C231.129 134.193 230.629 134.091 230.182 133.886C229.735 133.678 229.381 133.377 229.119 132.983C228.862 132.589 228.733 132.106 228.733 131.534C228.733 131.042 228.828 130.636 229.017 130.318C229.206 130 229.462 129.748 229.784 129.562C230.106 129.377 230.466 129.237 230.864 129.142C231.261 129.047 231.667 128.975 232.08 128.926C232.602 128.866 233.027 128.816 233.352 128.778C233.678 128.737 233.915 128.67 234.062 128.58C234.21 128.489 234.284 128.341 234.284 128.136V128.097C234.284 127.6 234.144 127.216 233.864 126.943C233.587 126.67 233.174 126.534 232.625 126.534C232.053 126.534 231.602 126.661 231.273 126.915C230.947 127.165 230.722 127.443 230.597 127.75L229 127.386C229.189 126.856 229.466 126.428 229.83 126.102C230.197 125.773 230.619 125.534 231.097 125.386C231.574 125.235 232.076 125.159 232.602 125.159C232.951 125.159 233.32 125.201 233.71 125.284C234.104 125.364 234.472 125.511 234.812 125.727C235.157 125.943 235.439 126.252 235.659 126.653C235.879 127.051 235.989 127.568 235.989 128.205V134H234.33V132.807H234.261C234.152 133.027 233.987 133.242 233.767 133.455C233.547 133.667 233.265 133.843 232.92 133.983C232.576 134.123 232.163 134.193 231.682 134.193ZM232.051 132.83C232.521 132.83 232.922 132.737 233.256 132.551C233.593 132.366 233.848 132.123 234.023 131.824C234.201 131.521 234.29 131.197 234.29 130.852V129.727C234.229 129.788 234.112 129.845 233.938 129.898C233.767 129.947 233.572 129.991 233.352 130.028C233.133 130.062 232.919 130.095 232.71 130.125C232.502 130.152 232.328 130.174 232.188 130.193C231.858 130.235 231.557 130.305 231.284 130.403C231.015 130.502 230.799 130.644 230.636 130.83C230.477 131.011 230.398 131.254 230.398 131.557C230.398 131.977 230.553 132.295 230.864 132.511C231.174 132.723 231.57 132.83 232.051 132.83ZM239.013 137.273C238.759 137.273 238.528 137.252 238.32 137.21C238.111 137.172 237.956 137.131 237.854 137.085L238.263 135.693C238.573 135.777 238.85 135.813 239.092 135.801C239.335 135.79 239.549 135.699 239.734 135.528C239.924 135.358 240.09 135.08 240.234 134.693L240.445 134.114L237.251 125.273H239.07L241.28 132.045H241.371L243.581 125.273H245.405L241.808 135.165C241.642 135.619 241.429 136.004 241.172 136.318C240.914 136.636 240.607 136.875 240.251 137.034C239.895 137.193 239.482 137.273 239.013 137.273Z" fill="#606060"/>
<path opacity="0.21" fill-rule="evenodd" clip-rule="evenodd" d="M254 43V63C254 65.7614 256.239 68 259 68H279H299C301.761 68 304 65.7614 304 63V43V23C304 20.2386 301.761 18 299 18H279H259C256.239 18 254 20.2386 254 23V43Z" fill="#791229"/>
<path fill-rule="evenodd" clip-rule="evenodd" d="M266.5 38.2629L277.25 44.4697C277.366 44.5365 277.488 44.5848 277.611 44.6154V56.6531L267.267 50.5313C266.791 50.2501 266.5 49.7389 266.5 49.1866V38.2629ZM291.5 38.0981V49.1868C291.5 49.7391 291.208 50.2503 290.733 50.5315L280.389 56.6533V44.5102C280.414 44.4976 280.439 44.4842 280.464 44.4699L291.5 38.0981Z" fill="#791229"/>
<path opacity="0.499209" fill-rule="evenodd" clip-rule="evenodd" d="M266.836 35.2509C266.967 35.085 267.133 34.9449 267.326 34.842L278.264 29.0164C278.723 28.7719 279.274 28.7719 279.733 29.0164L290.67 34.842C290.819 34.9213 290.952 35.0228 291.065 35.1411L279.073 42.0645C278.994 42.1101 278.922 42.1621 278.855 42.2197C278.789 42.1621 278.716 42.1101 278.638 42.0645L266.836 35.2509Z" fill="#791229"/>
</svg>
